<svg width="491" height="487" xmlns="http://www.w3.org/2000/svg" xmlns:xlink="http://www.w3.org/1999/xlink">
 <defs>
  <radialGradient id="imagebot_70" gradientUnits="userSpaceOnUse" cy="525.03003" cx="-76.114" gradientTransform="matrix(0.35624,-0.5997,0.62718,0.37256,-439.32,-34.604)" r="454.60001">
   <stop stop-color="#ffaaaa" id="imagebot_91" offset="0"/>
   <stop stop-color="#fb7d7d" stop-opacity="0.12169" id="imagebot_90" offset="1"/>
  </radialGradient>
  <radialGradient id="imagebot_84" gradientUnits="userSpaceOnUse" cy="525.03003" cx="-76.114" gradientTransform="matrix(0.35624,-0.5997,0.62718,0.37256,-441.99,-30.671)" r="454.60001">
   <stop stop-color="#ffaaaa" id="imagebot_89" offset="0"/>
   <stop stop-color="#fb7d7d" stop-opacity="0.12169" id="imagebot_88" offset="1"/>
  </radialGradient>
  <linearGradient id="imagebot_103">
   <stop stop-color="rgb(0, 0, 0)" id="imagebot_115" offset="0"/>
   <stop stop-color="rgb(0, 0, 0)" id="imagebot_114" offset="1"/>
  </linearGradient>
  <radialGradient gradientTransform="matrix(1 0 0 1 75.5275 18.0396)" gradientUnits="userSpaceOnUse" r="38.55332" fy="345.81219" fx="225.49467" cy="345.81219" cx="225.49467" id="imagebot_98" xlink:href="#imagebot_103"/>
 </defs>
 <title/>
 <metadata id="imagebot_87">image/svg+xmlRed Octopus2015arkingoctopus sea ocean redoctopus sea ocean red</metadata>
 <g id="imagebot_2" label="Ebene 1">
  <path transform="matrix(0.233383 0 0 0.233383 150.732 134.688)" label="Layer3" fill="#ff8080" id="imagebot_86" d="M425.71,192.36C382.478,225.157 342.365,331.89 305.45,369.96C263.577,422.757 217.663,484.06 224.995,555.42C263.978,681.83 281.063,666.03 279.989,707.68C317.498,890.06 392.469,896.58 407.399,993.04C422.828,1023.775 408.21489,1061.528 375.672,1073.547C362.06,1081.7453 331.58,1086.195 326.226,1087.451C374.869,1103.979 419.472,1060.018 433.196,1016.662C473.926,907.832 353.766,824.152 341.716,754.572C374.376,635.582 249.916,603.342 327.276,446.202C347.697,413.407 383.526,389.93 414.148,412.02C447.382,432.174 482.25,464.107 524.348,452.027C533.7111,450.584 617.128,376.308 625.718,372.324"/>
  <path transform="matrix(0.233383 0 0 0.233383 150.732 134.688)" label="Layer3" fill="#ff8080" id="imagebot_85" d="M497.14,152.36C414.524,202.202 327.78,176.731 235.74,148.5141C11.33,154.3975 -32.58,382.9441 -107.58,580.7541C-75.918,876.6541 -203.469,1063.3941 -276.94,1013.1141C-261.394,1024.9841 -223.546,1045.3421 -193.838,1027.0621C-118.28,940.7441 -82.578,825.7221 -70.538,713.3921C-66.1316,531.9621 64.072,127.1221 284.372,265.5621C327.968,345.2501 452.782,287.1101 529.372,256.2803C560.029,245.8823 569.195,297.2073 597.127,280.9323"/>
  <path transform="matrix(0.233383 0 0 0.233383 150.732 134.688)" label="Layer3" fill="#ff5555" stroke="url(#imagebot_84)" id="imagebot_83" d="M514.29,32.362C502.38,185.272 299.47,150.962 188.91,122.32C58.48,72.519 -72.69,228.27 -223.16,126.99C-324.42,-2.65 -244.88,-167.64 -131.35,-41C-20.84,-0.58 81.16,-261.49 -21.89,-108.71C-179.35,23.34 -109.56,-219.88 -278.77,-106.93C-336.654,1.13 -329.744,173.64 -207.265,221.5C-76.165,272.128 55.575,130.628 179.285,225.8933C280.655,306.6283 402.375,267.8473 517.105,253.6033C543.093,249.8969 569.004,245.2329 594.287,238.0793"/>
  <path transform="matrix(0.233383 0 0 0.233383 150.732 134.688)" label="Layer3" fill="#ff5555" id="imagebot_82" d="M348.57,312.36C273.18,393.73 170.33,415.95 42.09,485.41C-74.94,524.18 -176,502.16 -310.45,585.47C-399.928,705.29 -587.78,778.78 -656.57,668.154C-629.672,737.276 -571.683,763.34 -506.77,749.663C-430.316,740.0961 -368.19,691.619 -304.95,652.184C-227.224,609.192 -134.13,574.96 -44.92,586.067C82.31,560.247 179.24,464.117 312.49,459.337C403.318,447.638 482.56,398.441 562.8,358.527C568.4649,357.0929 574.251,356.2511 579.997,355.2272"/>
  <path transform="matrix(0.233383 0 0 0.233383 150.732 134.688)" label="Layer3" fill="#ff2a2a" id="imagebot_81" d="M771.43,349.51C755.13,460.8 718.96,518.02 631.08,601.31C556.369,674.834 341.75,905.88 444.48,959.89C484.31,986.712 543.644,1019.433 598.88,1037.91C686.368,1105.553 601.4046,1203.95 555.463,1260.25C538.147,1274.042 509.05,1312.175 490.619,1301.259C538.577,1245.476 584.512,1193.879 597.519,1129.829C610.505,1088.434 557.197,1048.8 516.139,1045.719C459.809,1027.419 394.479,1006.519 378.189,934.759C365.099,728.769 499.709,659.179 571.169,565.109C611.405,522.883 638.47,469.051 651.431,412.379"/>
  <path transform="matrix(0.233383 0 0 0.233383 150.732 134.688)" label="Layer3" fill="#ff5555" id="imagebot_80" d="M480,332.36C497.542,410.059 448.514,469.01 380.64,526.35C257.42,608.383 144.85,612.272 207,856.82C232.523,904.086 277.244,1032 247.529,1093.45C227.586,1152.152 204.566,1199.61 206.117,1284.64C239.719,1489.13 180.339,1250.373 278.104,1105.99C333.466,894.62 196.204,819.09 252.692,726.56C260.6674,662.855 355.162,622.09 420.472,574.35C464.803,549.812 527.062,431.21 571.602,506.895C562.1959,599.622 583.209,717.585 638.671,787.825C764.221,983.945 475.351,1032.945 425.011,1168.155C400.283,1215.755 371.438,1279.195 388.405,1319.265C392.3658,1222.675 476.179,1158.215 545.755,1102.935C676.375,1022.885 749.985,894.825 707.825,759.085C679.608,694.519 624.074,630.935 636.5,551.715C650.308,502.642 697.155,466 697.146,412.385"/>
  <path transform="matrix(0.233383 0 0 0.233383 150.732 134.688)" label="Layer3" fill="#ff2a2a" id="imagebot_79" d="M774.29,386.65C801.127,542.18 901.35,673.17 1018.17,773.93C1109.168,902.04 1071.314,954.86 1051.369,1046.62C1003.743,1157.72 929.859,1237.5 912.389,1377.89C897.68,1413.737 900.99,1497.73 895.716,1410.768C899.1008,1204.428 930.151,1229.758 961.992,1143.708C1003.716,1056.586 1042.943,952.928 1005.963,859.338C953.033,769.448 841.953,724.778 795.333,614.928C725.563,556.668 668.533,477.748 676.573,382.198C676.36505,369.4 676.6017,356.599 677.10528,343.811"/>
  <path transform="matrix(0.233383 0 0 0.233383 150.732 134.688)" label="Layer3" fill="#ff5555" id="imagebot_78" d="M914.29,343.79C786.52,377.87 820.493,524.78 873.974,605.42C948.658,882.67 795.759,803.43 798.227,1218.73C823.605,1387.58 766.322,1487.9 631.477,1452.62C482.957,1425.672 801.687,1509.724 773.437,1327.51C774.6137,1188.79 716.336,1077.93 775.7846,902.86C841.3146,800.04 841.7146,675.28 790.0146,569.44C754.0546,498.7 690.1746,457.39 659.9946,383.82"/>
  <path transform="matrix(0.233383 0 0 0.233383 150.732 134.688)" label="Layer3" fill="#ff5555" id="imagebot_77" d="M582.86,383.79C645.69,420.866 644.861,503.58 686.15,557.31C773.975,656.449 941.24,696.51 1055.63,690.56C1155.535,697.9968 1213.29,803.43 1124.986,868.58C1276.486,786.875 1134.2899,619.34 1007.246,630.12C938.69,624.1592 870.266,607.431 807.736,578.863C738.104,537.879 670.336,465.643 681.366,378.693C683.5597,367.917 684.0003,355.419 691.431,346.643"/>
  <path transform="matrix(0.233383 0 0 0.233383 150.732 134.688)" label="Layer3" fill="#773737" id="imagebot_76" d="M511.43,255.22L462.859,246.6486C470.478,258.8296 478.097,263.4806 485.716,289.5056C480.9382,270.4836 450.928,291.8336 428.573,300.9346C447.621,310.3691 466.668,332.8846 485.716,318.0776C476.1016,330.0596 468.03,342.3496 477.1446,358.0776C487.6206,357.93401 498.0966,375.7206 508.5736,355.2204L511.4307,392.3634C535.3387,395.109 546.5187,387.6718 551.4307,375.2204C567.3047,379.0281 573.6287,397.1614 574.2877,423.7914C583.8194,411.4264 597.0467,406.4524 602.8587,386.6484C611.3178,409.4514 622.0217,414.2984 634.2877,406.6484C646.0557,394.8004 653.7267,382.2694 642.8591,366.6484L605.7161,292.3624L511.43,255.22z"/>
  <path transform="matrix(0.233383 0 0 0.233383 150.732 134.688)" label="Layer3" fill="#ff5555" id="imagebot_75" d="M511.43,28.648C461.31,-259.462 743.4,-577.112 1108.6,-428.492C1446.82,-277.752 1372.99,-44.132 1348.6,105.798C1150.7,550.308 871.51,354.218 871.46,357.228C657.42,393.361 457.28,409.765 511.46,28.658L511.43,28.648z"/>
  <path transform="matrix(0.233383 0 0 0.233383 150.732 134.688)" label="Layer3" fill="#ff2a2a" stroke="url(#imagebot_70)" id="imagebot_69" d="M542.67,179.86C434.33,263.115 232.41392,258.98102 145.86,181.243C75.565,188.3221 -14.25,122.618 181.948,221.96C253.17941,302.695 404.31414,263.914 519.768,249.67C545.756,245.9636 491.667,218.443 516.9504,211.289"/>
  <path transform="matrix(0.233383 0 0 0.233383 150.732 134.688)" label="Layer3" fill="#d40000" id="imagebot_68" d="M1363.7,-133.85C1295.587,181.68 1269.533,330.91 940.1,368.76C888.18136,366.93265 861.07887,355.85665 926.988,384.3C1145.698,485.02 1381.798,176.75 1373.998,-38.77C1374.8075,-109.057 1373.0477,-127.248 1363.744,-133.846L1363.7,-133.85z"/>
  <path transform="matrix(0.233383 0 0 0.233383 150.732 134.688)" label="Layer3" fill="#ffaaaa" fill-rule="evenodd" id="imagebot_67" d="M1155.8,15.692C1147.8117,24.4375 1142.894,36.355 1142.894,49.504C1142.894,76.329 1163.365,98.066 1188.613,98.066C1213.86,98.066 1234.301,76.329 1234.301,49.504C1234.301,39.454 1231.4401,30.127 1226.5198,22.379C1227.8561,27.3058 1228.6135,32.57 1228.6135,38.067C1228.6135,64.892 1211.3225,86.661 1190.0195,86.661C1168.7175,86.661 1151.4575,64.893 1151.4575,38.067C1151.4575,29.9966 1153.0355,22.389 1155.8012,15.692L1155.8,15.692z"/>
  <path transform="matrix(0.233383 0 0 0.233383 150.732 134.688)" label="Layer3" fill="#ffaaaa" fill-rule="evenodd" id="imagebot_66" d="M710,-36.196C688.696,-36.196 671.42,-20.857 671.42,-1.924C671.42,17.009 688.697,32.348 710,32.348C731.304,32.348 748.58,17.009 748.58,-1.924C748.58,-20.857 731.303,-36.196 710,-36.196zM711.0782,-28.7984C725.8722,-28.7984 737.8452,-17.1834 737.8452,-2.8564C737.8452,11.4716 725.8722,23.0856 711.0782,23.0856C696.2842,23.0856 684.2872,11.4706 684.2872,-2.8564C684.2872,-17.1844 696.2832,-28.7984 711.0782,-28.7984z"/>
  <path transform="matrix(0.233383 0 0 0.233383 150.732 134.688)" label="Layer3" fill="#ffd5d5" fill-rule="evenodd" id="imagebot_65" d="M584.29,29.518C570.086,29.518 558.567,42.3 558.567,58.076C558.567,73.852 570.086,86.634 584.29,86.634C598.494,86.634 610.013,73.852 610.013,58.076C610.013,42.3 598.494,29.518 584.29,29.518zM585.00887,35.6822C594.87277,35.6822 602.85587,45.3604 602.85587,57.2992C602.85587,69.238 594.87297,78.9162 585.00887,78.9162C575.14487,78.9162 567.14687,69.238 567.14687,57.2992C567.14687,45.3604 575.14537,35.6822 585.00887,35.6822z"/>
  <path transform="matrix(0.233383 0 0 0.233383 150.732 134.688)" label="Layer3" fill="#ffaaaa" fill-rule="evenodd" id="imagebot_64" d="M674.29,66.661C660.875,66.661 649.995,76.2459 649.995,88.076C649.995,99.9061 660.874,109.491 674.29,109.491C687.705,109.491 698.585,99.9061 698.585,88.076C698.585,76.2459 687.706,66.661 674.29,66.661zM674.96895,71.2834C684.28505,71.2834 691.82495,78.5409 691.82495,87.4934C691.82495,96.446 684.28535,103.7034 674.96895,103.7034C665.65285,103.7034 658.09895,96.4459 658.09895,87.4934C658.09895,78.5408 665.65325,71.2834 674.96895,71.2834z"/>
  <path transform="matrix(0.233383 0 0 0.233383 150.732 134.688)" label="Layer3" fill="#ffd5d5" fill-rule="evenodd" id="imagebot_63" d="M591.43,-104.77C570.126,-104.77 552.85,-89.431 552.85,-70.498C552.85,-51.565 570.127,-36.226 591.43,-36.226C612.734,-36.226 630.01,-51.565 630.01,-70.498C630.01,-89.431 612.733,-104.77 591.43,-104.77zM592.5082,-97.3724C607.3022,-97.3724 619.2752,-85.7574 619.2752,-71.4304C619.2752,-57.1024 607.3022,-45.4884 592.5082,-45.4884C577.7142,-45.4884 565.7172,-57.1034 565.7172,-71.4304C565.7172,-85.7584 577.7132,-97.3724 592.5082,-97.3724z"/>
  <path transform="matrix(0.233383 0 0 0.233383 150.732 134.688)" label="Layer3" fill="#ffd5d5" fill-rule="evenodd" id="imagebot_62" d="M742.86,126.66C732.6,126.66 724.28,134.3267 724.28,143.789C724.28,153.2517 732.6005,160.918 742.86,160.918C753.1195,160.918 761.44,153.2513 761.44,143.789C761.44,134.3263 753.1195,126.66 742.86,126.66zM743.37925,130.3574C750.50415,130.3574 756.27025,136.1625 756.27025,143.3234C756.27025,150.4844 750.50405,156.2894 743.37925,156.2894C736.25435,156.2894 730.47725,150.4843 730.47725,143.3234C730.47725,136.1624 736.25475,130.3574 743.37925,130.3574z"/>
  <path transform="matrix(0.233383 0 0 0.233383 150.732 134.688)" label="Layer3" fill="#ffd5d5" fill-rule="evenodd" id="imagebot_61" d="M571.43,115.23C562.7478,115.23 555.707,121.6179 555.707,129.502C555.707,137.3864 562.748,143.774 571.43,143.774C580.1122,143.774 587.153,137.3861 587.153,129.502C587.153,121.6176 580.112,115.23 571.43,115.23zM571.86941,118.3107C577.89871,118.3107 582.77841,123.1476 582.77841,129.1137C582.77841,135.0803 577.89891,139.9167 571.86941,139.9167C565.84011,139.9167 560.95141,135.0799 560.95141,129.1137C560.95141,123.1471 565.84051,118.3107 571.86941,118.3107z"/>
  <path transform="matrix(0.233383 0 0 0.233383 150.732 134.688)" label="Layer3" fill="#ffd5d5" fill-rule="evenodd" id="imagebot_60" d="M617.14,158.09C608.4578,158.09 601.417,164.4779 601.417,172.362C601.417,180.2464 608.458,186.634 617.14,186.634C625.8222,186.634 632.863,180.2461 632.863,172.362C632.863,164.4776 625.822,158.09 617.14,158.09zM617.57941,161.1707C623.60871,161.1707 628.48841,166.0076 628.48841,171.9737C628.48841,177.9403 623.60891,182.7767 617.57941,182.7767C611.55011,182.7767 606.66141,177.9399 606.66141,171.9737C606.66141,166.0071 611.55051,161.1707 617.57941,161.1707z"/>
  <path transform="matrix(0.233383 0 0 0.233383 150.732 134.688)" label="Layer3" fill="#ffd5d5" fill-rule="evenodd" id="imagebot_59" d="M1020,255.23C1011.3178,255.23 1004.277,261.6179 1004.277,269.502C1004.277,277.3864 1011.3181,283.774 1020,283.774C1028.6821,283.774 1035.723,277.3861 1035.723,269.502C1035.723,261.6176 1028.6819,255.23 1020,255.23zM1020.4394,258.3107C1026.4687,258.3107 1031.3484,263.1476 1031.3484,269.1137C1031.3484,275.0803 1026.4689,279.9167 1020.4394,279.9167C1014.4101,279.9167 1009.5214,275.0799 1009.5214,269.1137C1009.5214,263.1471 1014.4105,258.3107 1020.4394,258.3107z"/>
  <path transform="matrix(0.233383 0 0 0.233383 150.732 134.688)" label="Layer3" fill="#ffd5d5" fill-rule="evenodd" id="imagebot_58" d="M1108.6,235.23C1099.9178,235.23 1092.877,241.6179 1092.877,249.502C1092.877,257.3864 1099.918,263.774 1108.6,263.774C1117.2822,263.774 1124.323,257.3861 1124.323,249.502C1124.323,241.6176 1117.282,235.23 1108.6,235.23zM1109.0394,238.3107C1115.0687,238.3107 1119.9484,243.1476 1119.9484,249.1137C1119.9484,255.0803 1115.0689,259.9167 1109.0394,259.9167C1103.0101,259.9167 1098.1214,255.0799 1098.1214,249.1137C1098.1214,243.1471 1103.0105,238.3107 1109.0394,238.3107z"/>
  <path transform="matrix(0.233383 0 0 0.233383 150.732 134.688)" label="Layer3" fill="#ffd5d5" fill-rule="evenodd" id="imagebot_57" d="M1191.4,140.95C1182.7178,140.95 1175.677,147.3379 1175.677,155.222C1175.677,163.1064 1182.718,169.494 1191.4,169.494C1200.0822,169.494 1207.123,163.1061 1207.123,155.222C1207.123,147.3376 1200.082,140.95 1191.4,140.95zM1191.8394,144.0307C1197.8687,144.0307 1202.7484,148.8676 1202.7484,154.8337C1202.7484,160.8003 1197.8689,165.6367 1191.8394,165.6367C1185.8101,165.6367 1180.9214,160.7999 1180.9214,154.8337C1180.9214,148.8671 1185.8105,144.0307 1191.8394,144.0307z"/>
  <path transform="matrix(0.233383 0 0 0.233383 150.732 134.688)" label="Layer3" fill="#ffd5d5" fill-rule="evenodd" id="imagebot_56" d="M1282.9,-59.053C1274.2179,-59.053 1267.177,-52.6651 1267.177,-44.781C1267.177,-36.8966 1274.2181,-30.509 1282.9,-30.509C1291.5822,-30.509 1298.623,-36.8969 1298.623,-44.781C1298.623,-52.6654 1291.5819,-59.053 1282.9,-59.053zM1283.3395,-55.9723C1289.3688,-55.9723 1294.2485,-51.1354 1294.2485,-45.1693C1294.2485,-39.2027 1289.369,-34.3663 1283.3395,-34.3663C1277.3102,-34.3663 1272.4215,-39.2031 1272.4215,-45.1693C1272.4215,-51.1359 1277.3106,-55.9723 1283.3395,-55.9723z"/>
  <path transform="matrix(0.233383 0 0 0.233383 150.732 134.688)" label="Layer3" fill="#ffd5d5" fill-rule="evenodd" id="imagebot_55" d="M1285.7,-187.62C1277.0178,-187.62 1269.977,-181.2321 1269.977,-173.348C1269.977,-165.4636 1277.018,-159.076 1285.7,-159.076C1294.3822,-159.076 1301.423,-165.4639 1301.423,-173.348C1301.423,-181.2324 1294.382,-187.62 1285.7,-187.62zM1286.1394,-184.5393C1292.1687,-184.5393 1297.0484,-179.7024 1297.0484,-173.7363C1297.0484,-167.7697 1292.1689,-162.9333 1286.1394,-162.9333C1280.1101,-162.9333 1275.2214,-167.7701 1275.2214,-173.7363C1275.2214,-179.7029 1280.1105,-184.5393 1286.1394,-184.5393z"/>
  <path transform="matrix(0.233383 0 0 0.233383 150.732 134.688)" label="Layer3" fill="#ffd5d5" fill-rule="evenodd" id="imagebot_54" d="M1268.6,92.376C1259.9178,92.376 1252.877,98.7639 1252.877,106.648C1252.877,114.5324 1259.918,120.92 1268.6,120.92C1277.2822,120.92 1284.323,114.5321 1284.323,106.648C1284.323,98.7636 1277.282,92.376 1268.6,92.376zM1269.0394,95.4567C1275.0687,95.4567 1279.9484,100.2936 1279.9484,106.2597C1279.9484,112.2263 1275.0688,117.0627 1269.0394,117.0627C1263.0101,117.0627 1258.1214,112.2259 1258.1214,106.2597C1258.1214,100.2931 1263.0104,95.4567 1269.0394,95.4567z"/>
  <path transform="matrix(0.233383 0 0 0.233383 150.732 134.688)" label="Layer3" fill="#ffd5d5" fill-rule="evenodd" id="imagebot_53" d="M1211.4,-99.053C1202.7178,-99.053 1195.677,-92.6651 1195.677,-84.781C1195.677,-76.8966 1202.718,-70.509 1211.4,-70.509C1220.0822,-70.509 1227.123,-76.8969 1227.123,-84.781C1227.123,-92.6654 1220.082,-99.053 1211.4,-99.053zM1211.8394,-95.9723C1217.8687,-95.9723 1222.7484,-91.1354 1222.7484,-85.1693C1222.7484,-79.2027 1217.8689,-74.3663 1211.8394,-74.3663C1205.8101,-74.3663 1200.9214,-79.2031 1200.9214,-85.1693C1200.9214,-91.1359 1205.8105,-95.9723 1211.8394,-95.9723z"/>
  <path transform="matrix(0.233383 0 0 0.233383 150.732 134.688)" label="Layer3" fill="#ffaaaa" fill-rule="evenodd" id="imagebot_52" d="M914.29,246.66C892.986,246.66 875.71,261.999 875.71,280.932C875.71,299.865 892.987,315.204 914.29,315.204C935.594,315.204 952.87,299.865 952.87,280.932C952.87,261.999 935.593,246.66 914.29,246.66zM915.3682,254.0576C930.1622,254.0576 942.1352,265.6726 942.1352,279.9996C942.1352,294.3276 930.1622,305.9416 915.3682,305.9416C900.5742,305.9416 888.5772,294.3266 888.5772,279.9996C888.5772,265.6716 900.5732,254.0576 915.3682,254.0576z"/>
  <path transform="matrix(0.233383 0 0 0.233383 150.732 134.688)" label="Layer3" fill="#ffd5d5" fill-rule="evenodd" id="imagebot_51" d="M785.71,59.518C772.295,59.518 761.415,69.1029 761.415,80.933C761.415,92.7631 772.294,102.348 785.71,102.348C799.125,102.348 810.005,92.7631 810.005,80.933C810.005,69.1029 799.126,59.518 785.71,59.518zM786.38895,64.1404C795.70505,64.1404 803.24495,71.3979 803.24495,80.3504C803.24495,89.303 795.70535,96.5604 786.38895,96.5604C777.07285,96.5604 769.51895,89.3029 769.51895,80.3504C769.51895,71.3978 777.07325,64.1404 786.38895,64.1404z"/>
  <path transform="matrix(0.233383 0 0 0.233383 150.732 134.688)" label="Layer3" fill="#ffd5d5" fill-rule="evenodd" id="imagebot_50" d="M521.43,-31.91C516.692,-31.91 512.8496,-22.3251 512.8496,-10.495C512.8496,1.3351 516.692,10.92 521.43,10.92C526.168,10.92 530.0104,1.3351 530.0104,-10.495C530.0104,-22.3251 526.168,-31.91 521.43,-31.91zM521.6698,-27.2876C524.9601,-27.2876 527.6229,-20.0301 527.6229,-11.0776C527.6229,-2.125 524.9601,5.1324 521.6698,5.1324C518.3795,5.1324 515.7115,-2.1251 515.7115,-11.0776C515.7115,-20.0302 518.3795,-27.2876 521.6698,-27.2876z"/>
  <path transform="matrix(0.233383 0 0 0.233383 150.732 134.688)" label="Layer3" fill="#ffd5d5" fill-rule="evenodd" id="imagebot_49" d="M841.43,333.8C831.959,333.8 824.278,338.9092 824.278,345.215C824.278,351.521 831.9588,356.63 841.43,356.63C850.901,356.63 858.582,351.5208 858.582,345.215C858.582,338.909 850.9012,333.8 841.43,333.8zM841.90933,336.264C848.48643,336.264 853.80933,340.1326 853.80933,344.9047C853.80933,349.6768 848.48643,353.5454 841.90933,353.5454C835.33223,353.5454 829.99933,349.6768 829.99933,344.9047C829.99933,340.1326 835.33263,336.264 841.90933,336.264z"/>
  <path transform="matrix(0.233383 0 0 0.233383 150.732 134.688)" label="Layer3" fill="#ffd5d5" fill-rule="evenodd" id="imagebot_48" d="M1118.6,169.52C1105.974,169.52 1095.734,179.1049 1095.734,190.935C1095.734,202.7651 1105.974,212.35 1118.6,212.35C1131.226,212.35 1141.466,202.7651 1141.466,190.935C1141.466,179.1049 1131.226,169.52 1118.6,169.52zM1119.239,174.1424C1128.0073,174.1424 1135.103,181.4 1135.103,190.3524C1135.103,199.305 1128.0068,206.5624 1119.239,206.5624C1110.4706,206.5624 1103.361,199.3048 1103.361,190.3524C1103.361,181.3998 1110.4711,174.1424 1119.239,174.1424z"/>
  <path transform="matrix(0.233383 0 0 0.233383 150.732 134.688)" label="Layer3" fill="#ffd5d5" fill-rule="evenodd" id="imagebot_47" d="M-291.43,69.518C-300.1122,69.518 -307.153,75.9059 -307.153,83.79C-307.153,91.6744 -300.112,98.062 -291.43,98.062C-282.7478,98.062 -275.707,91.6741 -275.707,83.79C-275.707,75.9056 -282.748,69.518 -291.43,69.518zM-290.9906,72.5987C-284.9613,72.5987 -280.0816,77.4356 -280.0816,83.4017C-280.0816,89.3683 -284.9611,94.2047 -290.9906,94.2047C-297.0199,94.2047 -301.9086,89.3679 -301.9086,83.4017C-301.9086,77.4351 -297.0195,72.5987 -290.9906,72.5987z"/>
  <path transform="matrix(0.233383 0 0 0.233383 150.732 134.688)" label="Layer3" fill="#ffd5d5" fill-rule="evenodd" id="imagebot_46" d="M-269.43,129.52C-278.1122,129.52 -285.153,135.9079 -285.153,143.792C-285.153,151.6764 -278.112,158.064 -269.43,158.064C-260.7478,158.064 -253.707,151.6761 -253.707,143.792C-253.707,135.9076 -260.748,129.52 -269.43,129.52zM-268.9906,132.6007C-262.9613,132.6007 -258.0816,137.4376 -258.0816,143.4037C-258.0816,149.3703 -262.9611,154.2067 -268.9906,154.2067C-275.0199,154.2067 -279.9086,149.3699 -279.9086,143.4037C-279.9086,137.4371 -275.0195,132.6007 -268.9906,132.6007z"/>
  <path transform="matrix(0.233383 0 0 0.233383 150.732 134.688)" label="Layer3" fill="#ffd5d5" fill-rule="evenodd" id="imagebot_45" d="M-234.29,169.52C-242.9722,169.52 -250.013,175.9079 -250.013,183.792C-250.013,191.6764 -242.972,198.064 -234.29,198.064C-225.6078,198.064 -218.567,191.6761 -218.567,183.792C-218.567,175.9076 -225.608,169.52 -234.29,169.52zM-233.8506,172.6007C-227.8213,172.6007 -222.9416,177.4376 -222.9416,183.4037C-222.9416,189.3703 -227.8211,194.2067 -233.8506,194.2067C-239.8799,194.2067 -244.7686,189.3699 -244.7686,183.4037C-244.7686,177.4371 -239.8795,172.6007 -233.8506,172.6007z"/>
  <path transform="matrix(0.233383 0 0 0.233383 150.732 134.688)" label="Layer3" fill="#ffaaaa" fill-rule="evenodd" id="imagebot_44" d="M-194.29,183.8C-202.9722,183.8 -210.013,190.1879 -210.013,198.072C-210.013,205.9564 -202.972,212.344 -194.29,212.344C-185.6078,212.344 -178.567,205.9561 -178.567,198.072C-178.567,190.1876 -185.608,183.8 -194.29,183.8zM-193.8506,186.8807C-187.8213,186.8807 -182.9416,191.7176 -182.9416,197.6837C-182.9416,203.6503 -187.8211,208.4867 -193.8506,208.4867C-199.8799,208.4867 -204.7686,203.6499 -204.7686,197.6837C-204.7686,191.7171 -199.8795,186.8807 -193.8506,186.8807z"/>
  <path transform="matrix(0.233383 0 0 0.233383 150.732 134.688)" label="Layer3" fill="#ffd5d5" fill-rule="evenodd" id="imagebot_43" d="M394.29,398.09C385.6078,398.09 378.567,404.4779 378.567,412.362C378.567,420.2464 385.608,426.634 394.29,426.634C402.9722,426.634 410.013,420.2461 410.013,412.362C410.013,404.4776 402.972,398.09 394.29,398.09zM394.7294,401.1707C400.7587,401.1707 405.6384,406.0076 405.6384,411.9737C405.6384,417.9403 400.7589,422.7767 394.7294,422.7767C388.7001,422.7767 383.8114,417.9399 383.8114,411.9737C383.8114,406.0071 388.7005,401.1707 394.7294,401.1707z"/>
  <path transform="matrix(0.233383 0 0 0.233383 150.732 134.688)" label="Layer3" fill="#ffd5d5" fill-rule="evenodd" id="imagebot_42" d="M334.29,406.66C325.6078,406.66 318.567,413.0479 318.567,420.932C318.567,428.8164 325.608,435.204 334.29,435.204C342.9722,435.204 350.013,428.8161 350.013,420.932C350.013,413.0476 342.972,406.66 334.29,406.66zM334.7294,409.7407C340.7587,409.7407 345.6384,414.5776 345.6384,420.5437C345.6384,426.5103 340.7589,431.3467 334.7294,431.3467C328.7001,431.3467 323.8114,426.5099 323.8114,420.5437C323.8114,414.5771 328.7005,409.7407 334.7294,409.7407z"/>
  <path transform="matrix(0.233383 0 0 0.233383 150.732 134.688)" label="Layer3" fill="#ffd5d5" fill-rule="evenodd" id="imagebot_41" d="M440,369.52C431.3178,369.52 424.277,375.9079 424.277,383.792C424.277,391.6764 431.318,398.064 440,398.064C448.6822,398.064 455.723,391.6761 455.723,383.792C455.723,375.9076 448.682,369.52 440,369.52zM440.4394,372.6007C446.4687,372.6007 451.3484,377.4376 451.3484,383.4037C451.3484,389.3703 446.4689,394.2067 440.4394,394.2067C434.4101,394.2067 429.5214,389.3699 429.5214,383.4037C429.5214,377.4371 434.4105,372.6007 440.4394,372.6007z"/>
  <path transform="matrix(0.233383 0 0 0.233383 150.732 134.688)" label="Layer3" fill="#ffd5d5" fill-rule="evenodd" id="imagebot_40" d="M271.43,432.38C262.7478,432.38 255.707,438.7679 255.707,446.652C255.707,454.5364 262.748,460.924 271.43,460.924C280.1122,460.924 287.153,454.5361 287.153,446.652C287.153,438.7676 280.112,432.38 271.43,432.38zM271.8694,435.4607C277.8987,435.4607 282.7784,440.2976 282.7784,446.2637C282.7784,452.2303 277.8989,457.0667 271.8694,457.0667C265.8401,457.0667 260.9514,452.2299 260.9514,446.2637C260.9514,440.2971 265.8405,435.4607 271.8694,435.4607z"/>
  <path transform="matrix(0.233383 0 0 0.233383 150.732 134.688)" label="Layer3" fill="#ffd5d5" fill-rule="evenodd" id="imagebot_39" d="M188.57,446.66C179.8878,446.66 172.847,453.0479 172.847,460.932C172.847,468.8164 179.888,475.204 188.57,475.204C197.2522,475.204 204.293,468.8161 204.293,460.932C204.293,453.0476 197.252,446.66 188.57,446.66zM189.0094,449.7407C195.0387,449.7407 199.9184,454.5776 199.9184,460.5437C199.9184,466.5103 195.0389,471.3467 189.0094,471.3467C182.9801,471.3467 178.0914,466.5099 178.0914,460.5437C178.0914,454.5771 182.9805,449.7407 189.0094,449.7407z"/>
  <path transform="matrix(0.233383 0 0 0.233383 150.732 134.688)" label="Layer3" fill="#ffd5d5" fill-rule="evenodd" id="imagebot_38" d="M100,489.52C92.8955,489.52 87.134,494.6292 87.134,500.935C87.134,507.241 92.8955,512.35 100,512.35C107.1045,512.35 112.866,507.2408 112.866,500.935C112.866,494.629 107.1045,489.52 100,489.52zM100.35955,491.984C105.29325,491.984 109.28605,495.8526 109.28605,500.6247C109.28605,505.3968 105.29325,509.2654 100.35955,509.2654C95.42585,509.2654 91.42515,505.3968 91.42515,500.6247C91.42515,495.8526 95.42585,491.984 100.35955,491.984z"/>
  <path transform="matrix(0.233383 0 0 0.233383 150.732 134.688)" label="Layer3" fill="#ffd5d5" fill-rule="evenodd" id="imagebot_37" d="M228.57,432.38C219.8878,432.38 212.847,438.7679 212.847,446.652C212.847,454.5364 219.888,460.924 228.57,460.924C237.2522,460.924 244.293,454.5361 244.293,446.652C244.293,438.7676 237.252,432.38 228.57,432.38zM229.0094,435.4607C235.0387,435.4607 239.9184,440.2976 239.9184,446.2637C239.9184,452.2303 235.0389,457.0667 229.0094,457.0667C222.9801,457.0667 218.0914,452.2299 218.0914,446.2637C218.0914,440.2971 222.9805,435.4607 229.0094,435.4607z"/>
  <path transform="matrix(0.233383 0 0 0.233383 150.732 134.688)" label="Layer3" fill="#ffd5d5" fill-rule="evenodd" id="imagebot_36" d="M30,529.52C23.6843,529.52 18.563,535.2686 18.563,542.364C18.563,549.4592 23.6848,555.208 30,555.208C36.3157,555.208 41.437,549.4594 41.437,542.364C41.437,535.2688 36.3152,529.52 30,529.52zM30.31963,532.2923C34.70553,532.2923 38.25503,536.645 38.25503,542.0144C38.25503,547.3837 34.70553,551.7364 30.31963,551.7364C25.93373,551.7364 22.37733,547.3837 22.37733,542.0144C22.37733,536.6451 25.93383,532.2923 30.31963,532.2923z"/>
  <path transform="matrix(0.233383 0 0 0.233383 150.732 134.688)" label="Layer3" fill="#ffd5d5" fill-rule="evenodd" id="imagebot_35" d="M-42.857,540.95C-51.5392,540.95 -58.58,547.3379 -58.58,555.222C-58.58,563.1064 -51.539,569.494 -42.857,569.494C-34.1748,569.494 -27.134,563.1061 -27.134,555.222C-27.134,547.3376 -34.175,540.95 -42.857,540.95zM-42.4176,544.0307C-36.3883,544.0307 -31.5086,548.8676 -31.5086,554.8337C-31.5086,560.8003 -36.3881,565.6367 -42.4176,565.6367C-48.4469,565.6367 -53.3356,560.7999 -53.3356,554.8337C-53.3356,548.8671 -48.4465,544.0307 -42.4176,544.0307z"/>
  <path transform="matrix(0.233383 0 0 0.233383 150.732 134.688)" label="Layer3" fill="#ffd5d5" fill-rule="evenodd" id="imagebot_34" d="M-140,563.8C-147.1045,563.8 -152.866,568.2698 -152.866,573.7866C-152.866,579.3034 -147.1045,583.7732 -140,583.7732C-132.8955,583.7732 -127.134,579.3034 -127.134,573.7866C-127.134,568.2698 -132.8955,563.8 -140,563.8zM-139.64045,565.9556C-134.70675,565.9556 -130.71395,569.34 -130.71395,573.515C-130.71395,577.6899 -134.70675,581.0743 -139.64045,581.0743C-144.57415,581.0743 -148.57485,577.6899 -148.57485,573.515C-148.57485,569.3401 -144.57415,565.9556 -139.64045,565.9556z"/>
  <path transform="matrix(0.233383 0 0 0.233383 150.732 134.688)" label="Layer3" fill="#ffd5d5" fill-rule="evenodd" id="imagebot_33" d="M-222.86,586.66C-231.5422,586.66 -238.583,593.0479 -238.583,600.932C-238.583,608.8164 -231.542,615.204 -222.86,615.204C-214.1778,615.204 -207.137,608.8161 -207.137,600.932C-207.137,593.0476 -214.178,586.66 -222.86,586.66zM-222.4206,589.7407C-216.3913,589.7407 -211.5116,594.5776 -211.5116,600.5437C-211.5116,606.5103 -216.3911,611.3467 -222.4206,611.3467C-228.4499,611.3467 -233.3386,606.5099 -233.3386,600.5437C-233.3386,594.5771 -228.4495,589.7407 -222.4206,589.7407z"/>
  <path transform="matrix(0.233383 0 0 0.233383 150.732 134.688)" label="Layer3" fill="#ffd5d5" fill-rule="evenodd" id="imagebot_32" d="M691.43,500.95C682.7478,500.95 675.707,507.3379 675.707,515.222C675.707,523.1064 682.748,529.494 691.43,529.494C700.1122,529.494 707.153,523.1061 707.153,515.222C707.153,507.3376 700.112,500.95 691.43,500.95zM691.8694,504.0307C697.8987,504.0307 702.7784,508.8676 702.7784,514.8337C702.7784,520.8003 697.8989,525.6367 691.8694,525.6367C685.8401,525.6367 680.9514,520.7999 680.9514,514.8337C680.9514,508.8671 685.8405,504.0307 691.8694,504.0307z"/>
  <path transform="matrix(0.233383 0 0 0.233383 150.732 134.688)" label="Layer3" fill="#ffd5d5" fill-rule="evenodd" id="imagebot_31" d="M725.71,558.09C717.0278,558.09 709.987,564.4779 709.987,572.362C709.987,580.2464 717.028,586.634 725.71,586.634C734.3922,586.634 741.433,580.2461 741.433,572.362C741.433,564.4776 734.392,558.09 725.71,558.09zM726.1494,561.1707C732.1787,561.1707 737.0584,566.0076 737.0584,571.9737C737.0584,577.9403 732.1789,582.7767 726.1494,582.7767C720.1201,582.7767 715.2314,577.9399 715.2314,571.9737C715.2314,566.0071 720.1205,561.1707 726.1494,561.1707z"/>
  <path transform="matrix(0.233383 0 0 0.233383 150.732 134.688)" label="Layer3" fill="#ffd5d5" fill-rule="evenodd" id="imagebot_30" d="M-128.57,200.95C-137.2522,200.95 -144.293,207.3379 -144.293,215.222C-144.293,223.1064 -137.252,229.494 -128.57,229.494C-119.8878,229.494 -112.847,223.1061 -112.847,215.222C-112.847,207.3376 -119.888,200.95 -128.57,200.95zM-128.1306,204.0307C-122.1013,204.0307 -117.2216,208.8676 -117.2216,214.8337C-117.2216,220.8003 -122.1011,225.6367 -128.1306,225.6367C-134.1599,225.6367 -139.0486,220.7999 -139.0486,214.8337C-139.0486,208.8671 -134.1595,204.0307 -128.1306,204.0307z"/>
  <path transform="matrix(0.233383 0 0 0.233383 150.732 134.688)" label="Layer3" fill="#ffd5d5" fill-rule="evenodd" id="imagebot_29" d="M962.86,655.23C954.1778,655.23 947.137,661.6179 947.137,669.502C947.137,677.3864 954.178,683.774 962.86,683.774C971.5422,683.774 978.583,677.3861 978.583,669.502C978.583,661.6176 971.542,655.23 962.86,655.23zM963.2994,658.3107C969.3287,658.3107 974.2084,663.1476 974.2084,669.1137C974.2084,675.0803 969.3289,679.9167 963.2994,679.9167C957.2701,679.9167 952.3814,675.0799 952.3814,669.1137C952.3814,663.1471 957.2705,658.3107 963.2994,658.3107z"/>
  <path transform="matrix(0.233383 0 0 0.233383 150.732 134.688)" label="Layer3" fill="#ffd5d5" fill-rule="evenodd" id="imagebot_28" d="M1014.3,660.95C1005.6178,660.95 998.577,667.3379 998.577,675.222C998.577,683.1064 1005.618,689.494 1014.3,689.494C1022.9822,689.494 1030.023,683.1061 1030.023,675.222C1030.023,667.3376 1022.982,660.95 1014.3,660.95zM1014.7394,664.0307C1020.7687,664.0307 1025.6484,668.8676 1025.6484,674.8337C1025.6484,680.8003 1020.7689,685.6367 1014.7394,685.6367C1008.7101,685.6367 1003.8214,680.7999 1003.8214,674.8337C1003.8214,668.8671 1008.7105,664.0307 1014.7394,664.0307z"/>
  <path transform="matrix(0.233383 0 0 0.233383 150.732 134.688)" label="Layer3" fill="#ffd5d5" fill-rule="evenodd" id="imagebot_27" d="M1060,658.09C1051.3178,658.09 1044.277,664.4779 1044.277,672.362C1044.277,680.2464 1051.318,686.634 1060,686.634C1068.6822,686.634 1075.723,680.2461 1075.723,672.362C1075.723,664.4776 1068.682,658.09 1060,658.09zM1060.4394,661.1707C1066.4687,661.1707 1071.3484,666.0076 1071.3484,671.9737C1071.3484,677.9403 1066.4689,682.7767 1060.4394,682.7767C1054.4101,682.7767 1049.5214,677.9399 1049.5214,671.9737C1049.5214,666.0071 1054.4105,661.1707 1060.4394,661.1707z"/>
  <path transform="matrix(0.233383 0 0 0.233383 150.732 134.688)" label="Layer3" fill="#ffd5d5" fill-rule="evenodd" id="imagebot_26" d="M1091.4,675.23C1085.8732,675.23 1081.391,679.6998 1081.391,685.2166C1081.391,690.7334 1085.8731,695.2032 1091.4,695.2032C1096.9268,695.2032 1101.409,690.7334 1101.409,685.2166C1101.409,679.6998 1096.9269,675.23 1091.4,675.23zM1091.6797,677.3856C1095.5178,677.3856 1098.6239,680.77 1098.6239,684.945C1098.6239,689.1199 1095.5178,692.5043 1091.6797,692.5043C1087.8417,692.5043 1084.7294,689.1199 1084.7294,684.945C1084.7294,680.7701 1087.8417,677.3856 1091.6797,677.3856z"/>
  <path transform="matrix(0.233383 0 0 0.233383 150.732 134.688)" label="Layer3" fill="#ffd5d5" fill-rule="evenodd" id="imagebot_25" d="M-82.857,550.95C-89.9615,550.95 -95.723,555.4198 -95.723,560.9366C-95.723,566.4534 -89.9615,570.9232 -82.857,570.9232C-75.7525,570.9232 -69.991,566.4534 -69.991,560.9366C-69.991,555.4198 -75.7525,550.95 -82.857,550.95zM-82.49745,553.1056C-77.56375,553.1056 -73.57095,556.49 -73.57095,560.665C-73.57095,564.8399 -77.56375,568.2243 -82.49745,568.2243C-87.43115,568.2243 -91.43185,564.8399 -91.43185,560.665C-91.43185,556.4901 -87.43115,553.1056 -82.49745,553.1056z"/>
  <path transform="matrix(0.233383 0 0 0.233383 150.732 134.688)" label="Layer3" fill="#ffd5d5" fill-rule="evenodd" id="imagebot_24" d="M-191.43,556.66C-198.5345,556.66 -204.296,561.1298 -204.296,566.6466C-204.296,572.1634 -198.5345,576.6332 -191.43,576.6332C-184.3255,576.6332 -178.564,572.1634 -178.564,566.6466C-178.564,561.1298 -184.3255,556.66 -191.43,556.66zM-191.07045,558.8156C-186.13675,558.8156 -182.14395,562.2 -182.14395,566.375C-182.14395,570.5499 -186.13675,573.9343 -191.07045,573.9343C-196.00415,573.9343 -200.00485,570.5499 -200.00485,566.375C-200.00485,562.2001 -196.00415,558.8156 -191.07045,558.8156z"/>
  <path transform="matrix(0.233383 0 0 0.233383 150.732 134.688)" label="Layer3" fill="#ffd5d5" fill-rule="evenodd" id="imagebot_23" d="M-111.43,550.95C-118.5345,550.95 -124.296,555.4198 -124.296,560.9366C-124.296,566.4534 -118.5345,570.9232 -111.43,570.9232C-104.3255,570.9232 -98.564,566.4534 -98.564,560.9366C-98.564,555.4198 -104.3255,550.95 -111.43,550.95zM-111.07045,553.1056C-106.13675,553.1056 -102.14395,556.49 -102.14395,560.665C-102.14395,564.8399 -106.13675,568.2243 -111.07045,568.2243C-116.00415,568.2243 -120.00485,564.8399 -120.00485,560.665C-120.00485,556.4901 -116.00415,553.1056 -111.07045,553.1056z"/>
  <path transform="matrix(0.233383 0 0 0.233383 150.732 134.688)" label="Layer3" fill="#ffd5d5" fill-rule="evenodd" id="imagebot_22" d="M65.714,499.52C58.6095,499.52 52.848,503.9898 52.848,509.5066C52.848,515.0234 58.6095,519.4932 65.714,519.4932C72.8185,519.4932 78.58,515.0234 78.58,509.5066C78.58,503.9898 72.8185,499.52 65.714,499.52zM66.07355,501.6756C71.00725,501.6756 75.00005,505.06 75.00005,509.235C75.00005,513.4099 71.00725,516.7943 66.07355,516.7943C61.13985,516.7943 57.13915,513.4099 57.13915,509.235C57.13915,505.0601 61.13985,501.6756 66.07355,501.6756z"/>
  <path transform="matrix(0.233383 0 0 0.233383 150.732 134.688)" label="Layer3" fill="#ffd5d5" fill-rule="evenodd" id="imagebot_21" d="M154.29,473.8C147.1855,473.8 141.424,478.2698 141.424,483.7866C141.424,489.3034 147.1855,493.7732 154.29,493.7732C161.3945,493.7732 167.156,489.3034 167.156,483.7866C167.156,478.2698 161.3945,473.8 154.29,473.8zM154.64955,475.9556C159.58325,475.9556 163.57605,479.34 163.57605,483.515C163.57605,487.6899 159.58325,491.0743 154.64955,491.0743C149.71585,491.0743 145.71515,487.6899 145.71515,483.515C145.71515,479.3401 149.71585,475.9556 154.64955,475.9556z"/>
  <path transform="matrix(0.233383 0 0 0.233383 150.732 134.688)" label="Layer3" fill="#ffd5d5" fill-rule="evenodd" id="imagebot_20" d="M-5.7143,539.52C-12.8188,539.52 -18.5803,543.9898 -18.5803,549.5066C-18.5803,555.0234 -12.8188,559.4932 -5.7143,559.4932C1.3902,559.4932 7.1517,555.0234 7.1517,549.5066C7.1517,543.9898 1.3902,539.52 -5.7143,539.52zM-5.35475,541.6756C-0.42105,541.6756 3.57175,545.06 3.57175,549.235C3.57175,553.4099 -0.42105,556.7943 -5.35475,556.7943C-10.28845,556.7943 -14.28915,553.4099 -14.28915,549.235C-14.28915,545.0601 -10.28845,541.6756 -5.35475,541.6756z"/>
  <path transform="matrix(0.233383 0 0 0.233383 150.732 134.688)" label="Layer3" fill="#ffd5d5" fill-rule="evenodd" id="imagebot_19" d="M291.43,399.52C284.3255,399.52 278.564,403.9898 278.564,409.5066C278.564,415.0234 284.3255,419.4932 291.43,419.4932C298.5345,419.4932 304.296,415.0234 304.296,409.5066C304.296,403.9898 298.5345,399.52 291.43,399.52zM291.78955,401.6756C296.72325,401.6756 300.71605,405.06 300.71605,409.235C300.71605,413.4099 296.72325,416.7943 291.78955,416.7943C286.85585,416.7943 282.85515,413.4099 282.85515,409.235C282.85515,405.0601 286.85585,401.6756 291.78955,401.6756z"/>
  <path transform="matrix(0.233383 0 0 0.233383 150.732 134.688)" label="Layer3" fill="#ffd5d5" fill-rule="evenodd" id="imagebot_18" d="M291.43,499.52C284.3255,499.52 278.564,503.9898 278.564,509.5066C278.564,515.0234 284.3255,519.4932 291.43,519.4932C298.5345,519.4932 304.296,515.0234 304.296,509.5066C304.296,503.9898 298.5345,499.52 291.43,499.52zM291.78955,501.6756C296.72325,501.6756 300.71605,505.06 300.71605,509.235C300.71605,513.4099 296.72325,516.7943 291.78955,516.7943C286.85585,516.7943 282.85515,513.4099 282.85515,509.235C282.85515,505.0601 286.85585,501.6756 291.78955,501.6756z"/>
  <path transform="matrix(0.233383 0 0 0.233383 150.732 134.688)" label="Layer3" fill="#ffd5d5" fill-rule="evenodd" id="imagebot_17" d="M285.71,548.09C278.6055,548.09 272.844,552.5598 272.844,558.0766C272.844,563.5934 278.6055,568.0632 285.71,568.0632C292.8145,568.0632 298.576,563.5934 298.576,558.0766C298.576,552.5598 292.8145,548.09 285.71,548.09zM286.06955,550.2456C291.00325,550.2456 294.99605,553.63 294.99605,557.805C294.99605,561.9799 291.00325,565.3643 286.06955,565.3643C281.13585,565.3643 277.13515,561.9799 277.13515,557.805C277.13515,553.6301 281.13585,550.2456 286.06955,550.2456z"/>
  <path transform="matrix(0.233383 0 0 0.233383 150.732 134.688)" label="Layer3" fill="#ffd5d5" fill-rule="evenodd" id="imagebot_16" d="M317.14,656.66C310.0355,656.66 304.274,661.1298 304.274,666.6466C304.274,672.1634 310.0355,676.6332 317.14,676.6332C324.2445,676.6332 330.006,672.1634 330.006,666.6466C330.006,661.1298 324.2445,656.66 317.14,656.66zM317.49955,658.8156C322.43325,658.8156 326.42605,662.2 326.42605,666.375C326.42605,670.5499 322.43325,673.9343 317.49955,673.9343C312.56585,673.9343 308.56515,670.5499 308.56515,666.375C308.56515,662.2001 312.56585,658.8156 317.49955,658.8156z"/>
  <path transform="matrix(0.233383 0 0 0.233383 150.732 134.688)" label="Layer3" fill="#ffd5d5" fill-rule="evenodd" id="imagebot_15" d="M325.71,688.09C318.6055,688.09 312.844,692.5598 312.844,698.0766C312.844,703.5934 318.6055,708.0632 325.71,708.0632C332.8145,708.0632 338.576,703.5934 338.576,698.0766C338.576,692.5598 332.8145,688.09 325.71,688.09zM326.06955,690.2456C331.00325,690.2456 334.99605,693.63 334.99605,697.805C334.99605,701.9799 331.00325,705.3643 326.06955,705.3643C321.13585,705.3643 317.13515,701.9799 317.13515,697.805C317.13515,693.6301 321.13585,690.2456 326.06955,690.2456z"/>
  <path transform="matrix(0.233383 0 0 0.233383 150.732 134.688)" label="Layer3" fill="#ffd5d5" fill-rule="evenodd" id="imagebot_14" d="M148.57,219.52C141.4655,219.52 135.704,223.9898 135.704,229.5066C135.704,235.0234 141.4655,239.4932 148.57,239.4932C155.6745,239.4932 161.436,235.0234 161.436,229.5066C161.436,223.9898 155.6745,219.52 148.57,219.52zM148.92955,221.6756C153.86325,221.6756 157.85605,225.06 157.85605,229.235C157.85605,233.4099 153.86325,236.7943 148.92955,236.7943C143.99585,236.7943 139.99515,233.4099 139.99515,229.235C139.99515,225.0601 143.99585,221.6756 148.92955,221.6756z"/>
  <path transform="matrix(0.233383 0 0 0.233383 150.732 134.688)" label="Layer3" fill="#ffd5d5" fill-rule="evenodd" id="imagebot_13" d="M100,233.8C92.8955,233.8 87.134,238.2698 87.134,243.7866C87.134,249.3034 92.8955,253.7732 100,253.7732C107.1045,253.7732 112.866,249.3034 112.866,243.7866C112.866,238.2698 107.1045,233.8 100,233.8zM100.35955,235.9556C105.29325,235.9556 109.28605,239.34 109.28605,243.515C109.28605,247.6899 105.29325,251.0743 100.35955,251.0743C95.42585,251.0743 91.42515,247.6899 91.42515,243.515C91.42515,239.3401 95.42585,235.9556 100.35955,235.9556z"/>
  <path transform="matrix(0.233383 0 0 0.233383 150.732 134.688)" label="Layer3" fill="#ffd5d5" fill-rule="evenodd" id="imagebot_12" d="M68.571,268.09C61.4665,268.09 55.705,272.5598 55.705,278.0766C55.705,283.5934 61.4665,288.0632 68.571,288.0632C75.6755,288.0632 81.437,283.5934 81.437,278.0766C81.437,272.5598 75.6755,268.09 68.571,268.09zM68.93055,270.2456C73.86425,270.2456 77.85705,273.63 77.85705,277.805C77.85705,281.9799 73.86425,285.3643 68.93055,285.3643C63.99685,285.3643 59.99615,281.9799 59.99615,277.805C59.99615,273.6301 63.99685,270.2456 68.93055,270.2456z"/>
  <path transform="matrix(0.233383 0 0 0.233383 150.732 134.688)" label="Layer3" fill="#ffd5d5" fill-rule="evenodd" id="imagebot_11" d="M354.29,279.52C347.1855,279.52 341.424,283.9898 341.424,289.5066C341.424,295.0234 347.1855,299.4932 354.29,299.4932C361.3945,299.4932 367.156,295.0234 367.156,289.5066C367.156,283.9898 361.3945,279.52 354.29,279.52zM354.64955,281.6756C359.58325,281.6756 363.57605,285.06 363.57605,289.235C363.57605,293.4099 359.58325,296.7943 354.64955,296.7943C349.71585,296.7943 345.71515,293.4099 345.71515,289.235C345.71515,285.0601 349.71585,281.6756 354.64955,281.6756z"/>
  <path transform="matrix(0.233383 0 0 0.233383 150.732 134.688)" label="Layer3" fill="#ffd5d5" fill-rule="evenodd" id="imagebot_10" d="M405.71,270.38C398.6055,270.38 392.844,274.8498 392.844,280.3666C392.844,285.8834 398.6055,290.3532 405.71,290.3532C412.8145,290.3532 418.576,285.8834 418.576,280.3666C418.576,274.8498 412.8145,270.38 405.71,270.38zM406.06955,272.5356C411.00325,272.5356 414.99605,275.92 414.99605,280.095C414.99605,284.2699 411.00325,287.6543 406.06955,287.6543C401.13585,287.6543 397.13515,284.2699 397.13515,280.095C397.13515,275.9201 401.13585,272.5356 406.06955,272.5356z"/>
  <path transform="matrix(0.233383 0 0 0.233383 150.732 134.688)" label="Layer3" fill="#ff8080" id="imagebot_9" d="M1188.5339,-388.91599C1008.8111,-505.5902 737.66457,-505.07781 605.69,-310.491C765.46,-367.221 998.30388,-400.78599 1188.5339,-388.91599z"/>
  <path transform="matrix(0.233383 0 0 0.233383 150.732 134.688)" label="Layer3" fill="#ffd5d5" fill-rule="evenodd" id="imagebot_8" d="M-288.57,-53.339C-294.8857,-53.339 -300.007,-48.8692 -300.007,-43.3524C-300.007,-37.8355 -294.8852,-33.3658 -288.57,-33.3658C-282.2543,-33.3658 -277.133,-37.8356 -277.133,-43.3524C-277.133,-48.8692 -282.2548,-53.339 -288.57,-53.339zM-288.25037,-51.1834C-283.86447,-51.1834 -280.31497,-47.799 -280.31497,-43.624C-280.31497,-39.4491 -283.86447,-36.0647 -288.25037,-36.0647C-292.63627,-36.0647 -296.19277,-39.4491 -296.19277,-43.624C-296.19277,-47.7989 -292.63627,-51.1834 -288.25037,-51.1834z"/>
  <path transform="matrix(0.233383 0 0 0.233383 150.732 134.688)" label="Layer3" fill="#ffd5d5" fill-rule="evenodd" id="imagebot_7" d="M-260,-114.77C-266.3157,-114.77 -271.437,-110.3002 -271.437,-104.7834C-271.437,-99.2665 -266.3152,-94.7968 -260,-94.7968C-253.6843,-94.7968 -248.563,-99.2666 -248.563,-104.7834C-248.563,-110.3002 -253.6848,-114.77 -260,-114.77zM-259.68037,-112.6144C-255.29447,-112.6144 -251.74497,-109.23 -251.74497,-105.055C-251.74497,-100.8801 -255.29447,-97.4956 -259.68037,-97.4956C-264.06627,-97.4956 -267.62277,-100.88 -267.62277,-105.055C-267.62277,-109.2299 -264.06627,-112.6144 -259.68037,-112.6144z"/>
  <path transform="matrix(0.233383 0 0 0.233383 150.732 134.688)" label="Layer3" fill="#ffd5d5" fill-rule="evenodd" id="imagebot_6" d="M-297.14,8.0899C-303.4557,8.0899 -308.577,12.5597 -308.577,18.0765C-308.577,23.5934 -303.4552,28.0631 -297.14,28.0631C-290.8243,28.0631 -285.703,23.5933 -285.703,18.0765C-285.703,12.5597 -290.8248,8.0899 -297.14,8.0899zM-296.82037,10.2455C-292.43447,10.2455 -288.88497,13.6299 -288.88497,17.8049C-288.88497,21.9798 -292.43447,25.3642 -296.82037,25.3642C-301.20627,25.3642 -304.76277,21.9798 -304.76277,17.8049C-304.76277,13.63 -301.20627,10.2455 -296.82037,10.2455z"/>
  <path transform="matrix(0.233383 0 0 0.233383 150.732 134.688)" label="Layer3" fill="#ff2a2a" id="imagebot_5" d="M674.29,203.79C698.07,211.0025 721.74,193.843 745.52,201.063C800.415,222.842 787.788,304.983 744.57328,380.163C727.33928,413.995 713.15428,449.699 690.73928,480.613C686.56188,498.816 665.16328,471.784 682.74938,468.642C735.54138,357.872 829.40938,214.592 682.81968,208.242C679.80748,207.1198 676.89328,205.6838 674.29008,203.7852L674.29,203.79z"/>
  <title>Ebene 1</title>

  <metadata id="imagebot_102">image/svg+xmllogoabril 2011M Mlogolentesglassesverdeblancogrisnegrologo de un website</metadata>
  <path transform="matrix(0.472947 0.316173 -0.316173 0.472947 304.648 -69.4152)" label="Capa 1" fill="rgb(255, 255, 255)" stroke="rgb(0, 0, 0)" stroke-width="5.7" stroke-miterlimit="4" stroke-opacity="0.61497" id="imagebot_99" d="M 240.90349964904783 363.85179037231444 C 240.90349964904783 383.57020037231445 224.91857964904784 399.55512037231443 205.20016964904787 399.55512037231443 C 185.48176964904786 399.55512037231443 169.49684964904785 383.57020037231445 169.49684964904785 363.85179037231444 C 169.49684964904785 344.13339037231447 185.48176964904786 328.1484703723145 205.20016964904787 328.1484703723145 C 224.91857964904784 328.1484703723145 240.90349964904783 344.13339037231447 240.90349964904783 363.85179037231444 z"/>
  <path transform="matrix(0.472947 0.316173 -0.316173 0.472947 304.648 -69.4152)" label="Capa 1" fill="rgb(255, 255, 255)" stroke="url(#imagebot_98)" stroke-width="5.7" stroke-miterlimit="4" stroke-opacity="0.61497" d="M 336.7254963378906 363.85179037231444 C 336.7254963378906 383.57020037231445 320.7405763378906 399.55512037231443 301.02216633789067 399.55512037231443 C 281.30376633789064 399.55512037231443 265.3188463378906 383.57020037231445 265.3188463378906 363.85179037231444 C 265.3188463378906 344.13339037231447 281.30376633789064 328.1484703723145 301.02216633789067 328.1484703723145 C 320.7405763378906 328.1484703723145 336.7254963378906 344.13339037231447 336.7254963378906 363.85179037231444 z" id="imagebot_97"/>
  <path label="Capa 1" opacity="0.83857" fill="rgb(0, 0, 0)" transform="matrix(0.4798 0.320755 -0.320755 0.4798 275.468 -48.6258)" d="M244.28591,306.53854C244.28591,313.28431 238.48085,318.75284 231.31996,318.75284C224.15907,318.75284 218.35402,313.28431 218.35402,306.53854C218.35402,299.79277 224.15907,294.32425 231.31996,294.32425C238.48085,294.32425 244.28591,299.79277 244.28591,306.53854z" id="imagebot_96"/>
  <path label="Capa 1" opacity="0.83857" fill="rgb(0, 0, 0)" id="imagebot_95" d="M244.28591,306.53854C244.28591,313.28431 238.48085,318.75284 231.31996,318.75284C224.15907,318.75284 218.35402,313.28431 218.35402,306.53854C218.35402,299.79277 224.15907,294.32425 231.31996,294.32425C238.48085,294.32425 244.28591,299.79277 244.28591,306.53854z" transform="matrix(0.4798 0.320755 -0.320755 0.4798 320.965 -18.2106)"/>
 </g>
</svg>