<?xml version="1.0" encoding="UTF-8" standalone="no"?>
<!-- Created with Inkscape (http://www.inkscape.org/) -->

<svg
   version="1.1"
   id="svg3214"
   width="737.33331"
   height="530.66669"
   viewBox="0 0 737.33331 530.66669"
   sodipodi:docname="tu2.svg"
   inkscape:version="1.2.2 (732a01da63, 2022-12-09, custom)"
   xmlns:inkscape="http://www.inkscape.org/namespaces/inkscape"
   xmlns:sodipodi="http://sodipodi.sourceforge.net/DTD/sodipodi-0.dtd"
   xmlns="http://www.w3.org/2000/svg"
   xmlns:svg="http://www.w3.org/2000/svg">
  <defs
     id="defs3218" />
  <sodipodi:namedview
     id="namedview3216"
     pagecolor="#ffffff"
     bordercolor="#000000"
     borderopacity="0.25"
     inkscape:showpageshadow="2"
     inkscape:pageopacity="0.0"
     inkscape:pagecheckerboard="0"
     inkscape:deskcolor="#d1d1d1"
     showgrid="false"
     inkscape:zoom="1.4349006"
     inkscape:cx="368.66666"
     inkscape:cy="265.52362"
     inkscape:window-width="1920"
     inkscape:window-height="1031"
     inkscape:window-x="0"
     inkscape:window-y="25"
     inkscape:window-maximized="1"
     inkscape:current-layer="layer2" />
  <g
     inkscape:groupmode="layer"
     id="layer2"
     inkscape:label="Layer 1">
    <path
       style="fill:#000000;stroke-width:1.33333"
       d="m 379.02625,478.62003 c -12.91657,-2.60753 -27.76201,-11.85242 -43.09741,-26.83858 -10.02088,-9.79267 -15.0883,-16.77798 -23.24266,-32.03942 l -5.78432,-10.82575 -31.78427,-0.37521 c -17.48134,-0.20636 -41.47542,-1.26943 -53.32018,-2.36236 l -21.53594,-1.98715 -23.13073,3.85474 c -12.72191,2.1201 -23.2888,3.877 -23.48197,3.90422 -0.19317,0.0272 0.62369,2.2995 1.81525,5.0495 1.19156,2.75 4.23397,10.92355 6.76091,18.16344 2.52694,7.23989 5.54917,14.62056 6.71608,16.40148 5.95754,9.09236 20.03146,9.53847 50.56661,1.60281 17.38628,-4.51844 23.53644,-5.52882 34.49237,-5.66666 12.44235,-0.15652 13.80984,0.0961 20.464,3.78196 4.29241,2.37757 8.69229,6.21942 11.05399,9.65202 4.4555,6.47586 8.34192,16.39828 6.42286,16.39828 -0.7008,0 -1.27642,-1.05 -1.27917,-2.33333 -0.012,-5.78449 -9.78949,-17.76751 -17.89849,-21.93669 -11.73952,-6.03579 -27.64229,-4.35676 -61.36375,6.47881 -16.50372,5.30307 -19.87498,5.9634 -28.3318,5.54944 -16.77332,-0.82107 -21.6418,-6.75721 -38.34847,-46.75823 l -2.08828,-5 h -11.98211 -11.98211 l -0.0229,6.33334 c -0.021,5.81406 -11.74777,54.50552 -11.90708,49.4402 -0.0385,-1.22456 1.15836,-10.63174 2.65972,-20.90483 1.50137,-10.27308 2.55137,-22.66481 2.33334,-27.53717 L 111.33333,411.80606 104,409.2799 c -9.810831,-3.3796 -11.501307,-3.25652 -19.677972,1.43272 -12.074428,6.92457 -18.406681,18.1188 -20.338189,35.95407 l -0.938574,8.66666 -0.1893,-10.758 c -0.326006,-18.52704 5.400612,-30.81613 18.57604,-39.86341 l 6.098674,-4.18784 -7.090322,-7.80204 C 73.547488,385.1373 62.85233,366.04498 55.948092,349.00002 c -1.708006,-4.21667 -3.589226,-7.66667 -4.180491,-7.66667 -0.591264,0 -3.122688,2.82164 -5.625385,6.27029 -4.486729,6.18263 -8.276425,16.61096 -9.350264,25.72971 -0.302254,2.56667 -0.416118,-0.49828 -0.253029,-6.81099 0.241233,-9.33738 0.959122,-12.83196 3.849845,-18.74038 1.954325,-3.9945 5.018645,-8.63933 6.809599,-10.32185 3.176123,-2.98381 3.205625,-3.19533 1.198453,-8.59294 -1.1415,-3.06968 -2.133303,-10.29591 -2.227324,-16.22819 -0.151233,-9.54201 0.294099,-11.63608 4.132978,-19.43427 2.760607,-5.60782 7.128723,-11.43572 12.188913,-16.26232 7.457223,-7.11298 7.971088,-8.01456 9.441848,-16.56572 3.778067,-21.96611 14.208172,-33.81805 47.266565,-53.71001 22.99564,-13.83698 36.14132,-23.87634 41.40283,-31.61937 4.64118,-6.83009 4.31819,-3.68157 -0.3787,3.69166 -5.07287,7.96344 -10.57244,12.69645 -34.79544,29.94552 -25.22107,17.95979 -36.181159,28.43956 -41.498911,39.68027 -2.160114,4.56605 -3.927951,9.84241 -3.92853,11.72522 l -0.0011,3.42331 10.398319,-4.95499 c 15.138342,-7.21368 41.611692,-15.30217 66.851932,-20.42552 18.59648,-3.77477 25.66181,-5.96756 44.74974,-13.88844 31.01534,-12.87038 51.72822,-20.50686 72.90003,-26.87698 19.17124,-5.7682 45.16529,-12.00214 50.12857,-12.02194 1.87477,-0.008 5.91491,-2.85263 10.6046,-7.468 4.1668,-4.10075 10.197,-9.2592 13.40045,-11.46324 5.55579,-3.82248 29.49824,-15.74751 31.61704,-15.74751 1.18772,0 0.13992,22.3577 -1.19287,25.45335 -0.80922,1.87957 2.00526,2.22024 24.81471,3.00363 26.52589,0.91101 53.07828,3.41866 73.31626,6.92408 10.8789,1.88433 12.71666,1.83602 30,-0.7885 30.00496,-4.55632 55.07787,-10.58482 55.07787,-13.24285 0,-2.08808 -18.90428,-10.57664 -29.5372,-13.26304 -11.76004,-2.97117 -31.80255,-5.42 -44.36023,-5.42 -16.44397,0 -31.60579,-8.89016 -33.55225,-19.6734 -1.5042,-8.33321 -2.53512,-9.3448 -10.1942,-10.00313 -5.64176,-0.48494 -10.1191,0.41425 -22.76806,4.57253 -21.97022,7.2226 -42.7097,10.58009 -64.92139,10.51009 -9.9,-0.0312 -20.33442,-0.6162 -23.18761,-1.29998 -9.49487,-2.2755 -9.53376,-2.40966 -9.03351,-31.16331 0.39819,-22.887414 0.0793,-27.658725 -3,-44.889136 -5.49017,-30.720444 -4.17098,-40.255402 6.30915,-45.601969 4.9622,-2.531521 6.77132,-2.683728 21.49839,-1.808717 20.24917,1.203105 35.20877,4.972309 57.41358,14.465859 9.53333,4.075926 23.23833,9.589545 30.45555,12.252486 l 13.12221,4.841714 27.54445,-1.566804 c 74.36579,-4.230127 131.8064,8.401549 179.1094,39.387667 29.58709,19.38121 39.90399,36.98442 45.73927,78.04261 2.78155,19.57154 2.59208,31.73167 -0.63756,40.92059 -1.9527,5.5558 -2.66666,11.00509 -2.66666,20.35322 0,14.88698 -2.2094,24.50392 -8.49875,36.99291 -9.82192,19.50372 -25.96465,36.47124 -49.97048,52.5236 -24.87914,16.63635 -67.69214,35.43191 -77.66177,34.09471 -7.69217,-1.03174 -21.47789,-8.30411 -27.94237,-14.74041 l -5.92663,-5.9008 -4,2.72965 c -2.2,1.50131 -5.33649,3.92337 -6.96997,5.38239 l -2.96997,2.65273 8.48325,7.77336 c 4.66579,4.27535 10.36923,10.7124 12.67431,14.30456 l 4.19106,6.53119 -3.21096,13.61689 c -1.76601,7.4893 -4.13817,14.54412 -5.27144,15.67739 -3.18546,3.18547 -14.21417,3.58232 -28.54878,1.02731 -15.91776,-2.83719 -38.60099,-10.08196 -47.77236,-15.25798 l -6.78915,-3.83154 -20.84058,8.35554 c -11.46232,4.59556 -25.67092,9.75131 -31.57466,11.45722 -5.90374,1.70592 -10.73408,3.51076 -10.73408,4.01076 0,0.5 2.54827,1.25089 5.66283,1.66864 10.58507,1.41976 19.67051,15.68579 19.67051,30.88677 0,12.414 -7.28427,30.53067 -16.46266,40.94415 -4.92154,5.58383 -8.47406,6.6698 -16.51108,5.04733 z"
       id="path3224" />
    <g
       id="layer1"
       inkscape:label="01"
       style="fill:#008080">
      <path
         style="fill:#008080;stroke-width:1.33333"
         d="m 586.37763,162.13553 c 14.83732,-7.54444 42.95568,-28.18588 42.95568,-31.53339 0,-2.39768 -16.86238,-19.08841 -24.5786,-24.32839 C 594.60777,99.383087 578.8892,92.742024 562.8844,88.583628 550.37009,85.332134 524.8109,81.450792 514.26502,81.20043 c -3.0791,-0.0731 -7.09837,-0.66461 -8.9317,-1.31447 -5.47999,-1.942486 32.70257,-0.178655 46,2.124956 37.92295,6.569671 66.36609,20.713244 80.41921,39.989094 l 2.91621,4 2.85988,-3.33334 c 9.79732,-11.41926 11.65864,-26.96209 4.47091,-37.333997 C 636.16535,76.913967 629.3595,72.332287 614.20513,66.621591 564.84765,48.021959 512.85574,44.280094 429.99999,53.364317 c -31.01247,3.400176 -34.35704,4.343478 -42.12752,11.881654 -18.50018,17.947098 -7.68158,42.384519 22.14693,50.026229 5.70377,1.46124 20.27927,2.4189 50.66077,3.3286 53.43293,1.59991 72.71472,4.46104 93.16763,13.82469 13.38037,6.12574 23.48552,18.45824 23.48552,28.66214 0,5.08995 0.89178,5.19327 9.04431,1.0479 z"
         id="path3267" />
      <path
         style="fill:#008080;stroke-width:1.33333"
         d="m 176.35006,402.79278 c 23.47404,-3.86655 23.55732,-3.87044 43.91763,-2.05123 11.21942,1.00247 22.19897,1.82445 24.39897,1.82665 l 4,0.004 -3.33333,-2.00296 -3.33334,-2.00297 4.35688,0.82799 c 12.70146,2.41381 25.89413,-1.13434 30.53067,-8.21119 3.63548,-5.54891 2.8942,-17.21399 -2.0717,-32.60136 -5.57133,-17.26336 -7.73558,-19.07626 -31.51041,-26.39476 -7.34868,-2.26211 -14.54868,-4.99022 -16,-6.06244 -2.32645,-1.71879 -1.92862,-1.7297 3.36123,-0.0921 3.3,1.02154 10.84036,3.11831 16.75635,4.65951 19.95617,5.19888 29.49589,13.30103 35.38306,30.0511 2.9948,8.52076 3.29279,21.5106 0.63913,27.86168 -2.20593,5.27954 -8.03633,11.52705 -12.77854,13.6927 -3.26244,1.48988 -3.23408,1.52366 1.33333,1.58792 6.30299,0.0887 26.05095,-3.47597 29.7142,-5.36366 8.62496,-4.44458 14.2858,-17.01191 14.2858,-31.71526 0,-34.40505 -27.04548,-60.52132 -65.82445,-63.56287 -13.33552,-1.04594 -15.23476,-1.57325 -16.90465,-4.69348 -1.30307,-2.43481 -1.1923,-2.60242 0.96152,-1.45481 1.33884,0.71337 7.23425,2.01953 13.10092,2.90259 39.8481,5.9979 63.60229,19.1143 71.25565,39.34538 3.87164,10.23442 4.84497,26.06686 2.43237,39.56523 l -1.83055,10.24174 4.73794,-1.977 c 2.60585,-1.08734 5.96217,-3.50974 7.45846,-5.3831 l 2.72056,-3.40612 6.99327,6.84763 c 3.84629,3.7662 10.31845,8.42203 14.38256,10.34629 l 7.38928,3.49867 10.72073,-2.30377 c 23.82645,-5.12006 50.59892,-14.82059 85.73972,-31.06627 43.20061,-19.97177 40.94449,-18.71331 46.57853,-25.98136 9.67184,-12.47694 40.94357,-32.77056 63.06955,-40.92867 63.84875,-23.54179 113.81521,-61.2761 128.15726,-96.78342 2.99096,-7.40488 3.17445,-9.16656 2.43148,-23.34449 -0.73896,-14.10158 -2.63616,-28.42076 -4.4167,-33.33519 -0.42354,-1.16903 -1.68406,1.04689 -3.03385,5.33333 -12.00025,38.10851 -75.75294,76.33337 -172.17785,103.23445 -49.83898,13.90431 -103.47729,22.34804 -138.60842,21.81969 -10.07459,-0.15152 -12.71141,-0.40248 -6.66667,-0.63452 34.88158,-1.33897 91.45739,-11.72105 139.37344,-25.57607 91.06016,-26.3302 152.97052,-60.88724 169.69036,-94.71753 4.38982,-8.88222 4.93314,-11.10223 4.90861,-20.05687 -0.034,-12.43168 -2.83175,-19.1099 -12.37296,-29.53472 -6.52189,-7.125889 -26.44059,-22.137739 -27.70116,-20.877162 -0.32999,0.329978 0.37124,2.924375 1.55827,5.765329 9.08832,21.751433 -14.97854,51.535703 -62.29816,77.097923 -21.48403,11.60575 -39.62517,16.98855 -76.88255,22.81243 -20.89482,3.26618 -22.16732,3.31911 -33.33333,1.38654 -29.06101,-5.02979 -89.93774,-9.26601 -99.31954,-6.91133 -2.71635,0.68176 -3.70942,1.96338 -4.40839,5.68926 -0.7558,4.02869 -1.81397,5.21257 -6.51976,7.29416 -15.31725,6.77555 -35.5671,8.26207 -40.83176,2.99741 -2.21358,-2.21357 -2.41394,-3.25326 -1.22806,-6.37236 l 1.41708,-3.72722 -6.35938,0.94044 c -24.7849,3.66522 -73.65137,19.71568 -121.64854,39.9561 -13.14577,5.54359 -22.43237,8.45534 -34.66667,10.86951 -32.97607,6.50709 -61.57955,15.40825 -77.689115,24.17618 -5.857651,3.18813 -6.500623,3.97377 -5.862671,7.16354 0.394096,1.97047 2.544533,6.46514 4.778752,9.98814 4.957318,7.81688 5.126594,10.87801 0.694713,12.56301 -1.852125,0.70419 -3.716318,2.18933 -4.142652,3.30033 -0.426332,1.11102 -1.53707,2.02002 -2.468306,2.02002 -1.991732,0 -6.631029,-10.42551 -7.962241,-17.8929 l -0.931682,-5.22622 -3.256222,3.89289 c -6.963213,8.32469 -9.128771,14.0304 -9.068376,23.89289 0.04872,7.95547 0.950584,11.49855 6.109041,24 15.359072,37.22251 30.434229,61.12517 42.463569,67.32881 5.29787,2.73214 17.81712,5.33786 25.64597,5.33786 h 5.19852 l -3.99968,-6.92768 c -2.19982,-3.81022 -6.44813,-9.77018 -9.4407,-13.24434 -5.01134,-5.8178 -5.23065,-6.38342 -2.77705,-7.16216 1.46519,-0.46503 2.66398,-1.70508 2.66398,-2.75567 0,-6.66164 10.40141,3.73077 18.69866,18.68249 l 5.13834,9.25932 7.08149,-0.0932 c 5.60098,-0.0737 5.96648,0.0301 1.74817,0.49647 -5.87146,0.64909 -8.11002,2.076 -6.73846,4.29523 1.15705,1.87214 -0.69359,2.04196 26.42186,-2.4244 z"
         id="path3255" />
      <path
         style="display:inline;fill:#008080;stroke-width:1.33333"
         d="m 139.2182,406.18078 c -0.48372,-1.26055 -4.25847,-2.04098 -12.29149,-2.54128 -21.80358,-1.35796 -31.12155,-6.75944 -44.135343,-25.58456 -8.297101,-12.00218 -15.440913,-26.89631 -22.058598,-45.98994 -5.500464,-15.87019 -7.023756,-26.38573 -4.923821,-33.99001 1.891446,-6.84931 0.907912,-7.70502 -1.695204,-1.47488 -3.033127,7.25929 -3.929062,16.84952 -2.288678,24.49836 3.530888,16.46397 19.466905,51.40392 29.394743,64.44843 12.295107,16.15492 25.008971,22.10452 47.738341,22.33972 8.74097,0.0904 10.8169,-0.2547 10.26005,-1.70584 z"
         id="path3253" />
    </g>
    <g
       id="layer3"
       inkscape:label="02"
       style="display:inline;fill:#008000">
      <path
         style="fill:#008000;stroke-width:1.33333"
         d="m 585.04587,335.16624 c 44.42002,-17.53709 78.6766,-41.67855 95.89604,-67.58029 8.16303,-12.27895 13.68812,-28.25282 13.69211,-39.58594 l 0.003,-8.66667 -3.59354,4.66667 c -23.85283,30.97583 -67.70533,60.20203 -118.37688,78.89416 -10.07554,3.71675 -21.57274,9.53322 -33.12188,16.75644 -5.03665,3.1501 -5.08102,3.2488 -2.66666,5.9316 6.1736,6.86 22.50585,15.54554 29.5011,15.68878 1.67524,0.0343 10.07524,-2.71284 18.66667,-6.10475 z"
         id="path3261" />
      <path
         style="fill:#008000;stroke-width:1.33333"
         d="m 528.36146,390.33335 c 1.2828,-0.96984 3.27774,-6.5346 4.77146,-13.30969 l 2.56696,-11.64303 -4.40846,-6.20059 c -4.69701,-6.60645 -16.76502,-17.84669 -19.16098,-17.84669 -0.7916,0 -2.79479,2.07871 -4.45154,4.61935 -2.26476,3.47306 -5.99005,6.00861 -15.01225,10.21782 -6.6,3.07916 -17.7,8.25535 -24.66666,11.50264 l -12.66667,5.90416 4.66667,2.39698 c 20.43561,10.49648 61.93957,19.21422 68.36147,14.35905 z"
         id="path3259" />
      <path
         style="fill:#008000;stroke-width:1.33333"
         d="m 393.34253,467.98566 c 13.65975,-21.28687 16.4763,-45.95011 6.21963,-54.46239 -1.07085,-0.88873 -11.31229,-3.97745 -22.75877,-6.86385 -22.92739,-5.78146 -33.77676,-10.3788 -39.27715,-16.64338 -3.46042,-3.94122 -3.73621,-4.02352 -6.06702,-1.81064 -1.343,1.27504 -5.20007,3.25808 -8.57124,4.40676 -3.37119,1.14868 -8.0681,3.96752 -10.43756,6.26411 l -4.30812,4.1756 2.76268,5.47407 c 4.40096,8.72023 16.21394,26.25435 22.26194,33.04357 11.72679,13.16403 43.09371,33.09718 52.08191,33.09718 3.10961,0 4.59141,-1.22316 8.0937,-6.68103 z"
         id="path3251" />
      <path
         style="fill:#008000;stroke-width:1.33333"
         d="m 571.99998,163.95718 c 0,-7.52872 -2.6973,-13.14953 -9.06942,-18.89943 -14.18679,-12.80146 -39.29883,-19.1726 -81.41523,-20.65574 l -23.15133,-0.81528 0.98787,4.53997 c 1.6715,7.68187 2.98348,10.12248 6.96576,12.95811 6.96928,4.96257 14.03406,6.67534 31.01569,7.51941 27.71821,1.37772 49.31012,6.74244 64.02832,15.90847 9.67553,6.02561 10.63834,5.97533 10.63834,-0.55551 z"
         id="path3265" />
      <path
         style="fill:#008000;stroke-width:1.33333"
         d="m 352.80183,196.70868 c 13.66396,-3.2225 14.22583,-3.70208 18.93849,-16.16521 3.92647,-10.38392 5.64076,-21.88578 3.25967,-21.87029 -0.55,0.004 -5.19628,2.15987 -10.32507,4.79173 -16.54248,8.4889 -27.61797,18.09878 -32.38842,28.10255 -1.90678,3.99852 -1.9374,4.7492 -0.2377,5.82427 2.84034,1.79649 11.43932,1.51348 20.75303,-0.68305 z"
         id="path3263" />
      <path
         style="fill:#008000;stroke-width:1.33333"
         d="m 387.65208,131.28372 c 15.60427,-2.57333 33.06197,-7.45716 30.84311,-8.62843 -1.0057,-0.53088 -4.37686,-1.35231 -7.49146,-1.82542 -13.40248,-2.0358 -28.51225,-12.05237 -33.79189,-22.401316 -8.01797,-15.71654 -1.80552,-34.047753 14.52481,-42.858598 5.6923,-3.071214 10.3838,-4.17474 25.50826,-6 10.19318,-1.230142 18.941,-2.644603 19.43958,-3.143249 0.49859,-0.498646 -2.90145,-2.098877 -7.55565,-3.556069 -4.6542,-1.457194 -14.46219,-5.326462 -21.79552,-8.598375 -21.94727,-9.792211 -33.80844,-13.000735 -54.02098,-14.613031 -14.98638,-1.195421 -18.68446,-1.119367 -21.96098,0.451644 -8.34216,3.999849 -9.12686,12.07194 -3.9425,40.555793 3.01856,16.584528 3.35256,21.516352 2.99433,44.214471 -0.22176,14.05129 -0.0188,25.93566 0.45095,26.4097 1.51541,1.52917 22.8128,3.01102 34.47918,2.39902 6.23333,-0.32699 16.27677,-1.40975 22.31876,-2.40614 z"
         id="path3269" />
    </g>
    <path
       style="fill:#ffcc00;stroke-width:1.33333"
       d="m 170.33333,367.30959 c -5.42624,-3.05064 -5.10562,-9.13809 0.66666,-12.65752 5.20455,-3.17328 9.13198,-3.34177 14.39955,-0.61781 4.71073,2.43601 5.38111,8.24265 1.37061,11.8721 -3.56229,3.22383 -11.92814,3.93803 -16.43682,1.40323 z"
       id="path3257" />
  </g>
</svg>
