<?xml version="1.0" encoding="UTF-8" standalone="no"?>
<!-- Created with Inkscape (http://www.inkscape.org/) -->

<svg
   version="1.1"
   id="svg198"
   width="570.21173"
   height="498.47821"
   viewBox="0 0 570.21173 498.47821"
   sodipodi:docname="Horse9b-novo.svg"
   inkscape:version="1.2.2 (732a01da63, 2022-12-09, custom)"
   xmlns:inkscape="http://www.inkscape.org/namespaces/inkscape"
   xmlns:sodipodi="http://sodipodi.sourceforge.net/DTD/sodipodi-0.dtd"
   xmlns="http://www.w3.org/2000/svg"
   xmlns:svg="http://www.w3.org/2000/svg">
  <defs
     id="defs202" />
  <sodipodi:namedview
     id="namedview200"
     pagecolor="#ffffff"
     bordercolor="#000000"
     borderopacity="0.25"
     inkscape:showpageshadow="2"
     inkscape:pageopacity="0.0"
     inkscape:pagecheckerboard="0"
     inkscape:deskcolor="#d1d1d1"
     showgrid="false"
     inkscape:zoom="0.91437233"
     inkscape:cx="254.81961"
     inkscape:cy="340.12403"
     inkscape:window-width="1920"
     inkscape:window-height="1031"
     inkscape:window-x="0"
     inkscape:window-y="25"
     inkscape:window-maximized="1"
     inkscape:current-layer="layer4" />
  <g
     inkscape:groupmode="layer"
     id="layer4"
     inkscape:label="Layer 1">
    <path
       id="path316"
       style="fill:#000000;stroke-width:1.33333"
       d="M 385.30072 127.62678 C 383.9552 127.62678 379.9773 130.95998 376.46087 135.03303 L 370.06829 142.43733 L 361.98626 141.57209 C 355.56062 140.88396 353.55427 141.12945 352.19329 142.76936 C 348.79335 146.86602 351.01209 149.40416 360.70892 152.50764 C 365.83767 154.1491 370.28838 155.52347 370.59954 155.56037 C 370.91071 155.59733 369.94172 156.97678 368.44525 158.62678 C 366.94879 160.27678 364.66559 164.46993 363.37103 167.94514 C 360.8239 174.78286 361.93519 178.2928 366.64837 178.2928 C 368.40342 178.2928 369.21952 180.07889 370.15228 185.96076 C 371.32297 193.34292 371.52859 193.64244 375.70111 194.04475 C 382.21056 194.67238 381.50705 199.30592 373.43158 209.00959 C 360.3789 224.69398 353.4515 245.76077 355.47259 263.62483 C 356.11906 269.3389 355.85707 271.44695 354.34369 272.70295 C 350.06216 276.2563 326.07285 287.62678 322.85736 287.62678 C 320.50288 287.62678 317.95277 285.90004 314.65423 282.07014 L 309.86712 276.51155 L 301.95111 277.87873 C 297.597 278.63096 293.02249 279.68278 291.78509 280.21467 C 290.05117 280.95999 288.84434 279.85666 286.52533 275.40412 C 284.87037 272.22664 283.47988 269.02613 283.43548 268.2928 C 283.27499 265.64106 279.90001 260.96076 278.14837 260.96076 C 277.1625 260.96076 274.1435 258.26076 271.43939 254.96076 C 268.7353 251.66077 265.66217 248.96076 264.61126 248.96076 C 263.56035 248.96076 262.70111 248.23518 262.70111 247.34944 C 262.70111 245.29822 253.31973 235.62678 251.33001 235.62678 C 250.50666 235.62678 248.37738 234.068 246.59954 232.16194 C 244.82172 230.25588 241.50005 227.70457 239.21673 226.49397 C 221.18906 216.93584 214.35176 213.90052 205.5097 211.52326 C 199.93128 210.02347 193.26776 208.09058 190.70111 207.22834 C 188.03593 206.33302 177.05947 205.57742 165.10931 205.46662 C 145.9824 205.28934 143.87594 205.02932 140.59564 202.44905 C 138.62192 200.89652 136.20962 199.62678 135.23431 199.62678 C 133.13232 199.62678 130.70111 203.7514 130.70111 207.31623 C 130.70111 208.77435 128.5904 211.21307 125.72259 213.07014 C 122.98482 214.843 118.63547 219.25483 116.05658 222.87483 C 113.47769 226.49482 108.51843 232.55353 105.03509 236.33772 C 101.41352 240.27208 98.701107 244.49567 98.701107 246.20295 C 98.701107 248.62456 100.79106 258.378 103.50775 268.62678 C 103.75074 269.54344 105.20888 270.2928 106.74798 270.2928 C 110.39465 270.2928 109.58974 273.05144 102.07806 286.2928 C 98.957961 291.79279 94.522806 301.72226 92.220638 308.35725 C 86.251294 325.56123 86.576917 328.8153 94.683529 332.951 C 97.426246 334.35022 101.48212 337.7543 103.6972 340.51545 L 107.72454 345.53498 L 117.94329 344.06428 C 128.42536 342.55418 133.36712 339.84998 133.36712 335.62678 C 133.36712 333.52412 133.83462 333.53115 140.36712 335.72639 C 148.3613 338.41282 165.11866 340.96076 174.79681 340.96076 C 179.40691 340.96076 181.36712 341.49525 181.36712 342.75178 C 181.36712 347.30636 192.30516 377.83945 194.63079 379.77717 C 197.18148 381.9024 197.17909 381.99635 194.47454 387.46272 C 190.76006 394.97038 190.82338 409.40648 194.61712 420.21272 C 196.14609 424.56788 196.94091 428.54245 196.38275 429.0467 C 193.53756 431.61717 178.58312 435.76584 167.72454 436.99592 C 153.56852 438.59953 149.00913 440.80394 143.42181 448.75373 C 139.65009 454.12023 139.42756 455.17737 139.21478 468.69123 C 139.07887 477.32289 137.87816 488.15473 136.17767 496.10725 C 134.63153 503.33796 133.36712 513.02117 133.36712 517.62483 C 133.36712 525.09007 133.89825 526.76685 138.28119 533.1385 C 140.98404 537.06776 144.62549 544.48457 146.37298 549.62092 C 148.12048 554.75727 150.55992 559.89946 151.7929 561.0467 C 153.02587 562.19396 156.21174 567.29266 158.87298 572.37873 C 163.96226 582.1052 167.96347 584.74107 170.48626 580.02717 C 172.63186 576.01809 186.70111 537.85232 186.70111 536.04084 C 186.70111 533.22198 179.21704 530.2928 172.01361 530.2928 C 161.08919 530.2928 155.13434 525.52626 165.03509 524.70686 C 169.41777 524.34412 170.08698 523.82656 170.46673 520.50959 C 170.74652 518.06565 169.67458 514.9546 167.43744 511.72639 C 162.52349 504.63557 161.5095 499.96774 162.92376 490.94905 C 164.64839 479.95122 168.58377 473.5783 175.81048 470.0799 L 181.76165 467.19905 L 196.99212 469.58772 C 211.26502 471.82607 216.47855 471.81386 229.53704 469.51545 C 234.22667 468.69004 234.39342 468.80141 234.99408 473.14631 C 235.33482 475.61104 237.27466 485.33618 239.30462 494.75959 C 242.60796 510.09424 242.83549 512.71056 241.46673 519.6678 C 239.79626 528.15866 240.37119 532.21937 244.38275 540.22053 C 246.6203 544.68337 246.88364 546.998 246.11517 555.47834 C 245.61692 560.9767 243.98949 568.80986 242.49798 572.88459 C 241.00648 576.95935 239.13636 582.66679 238.34369 585.56819 C 237.44042 588.87431 234.64033 593.04241 230.84173 596.7342 C 227.50815 599.97408 224.16359 603.68015 223.40814 604.96858 C 222.65268 606.257 219.41706 610.67511 216.21869 614.78694 C 212.70189 619.30811 210.71303 623.07016 211.18744 624.30647 C 211.86157 626.06323 215.58681 626.29941 237.66986 625.98811 L 263.36712 625.62678 L 263.77142 621.46858 C 264.02719 618.8409 262.87618 614.98117 260.64251 610.9803 C 257.46819 605.29453 257.31627 604.43934 259.15033 602.6053 C 260.85696 600.89866 261.8421 600.83379 265.15228 602.20491 C 267.33086 603.1073 270.52054 603.64564 272.24017 603.40217 C 275.26638 602.97373 275.34737 602.6397 274.76165 592.96076 C 274.10374 582.08873 274.18394 559.58992 275.0429 512.96076 C 275.46244 490.18584 276.12564 481.19398 277.79876 475.62678 C 279.01091 471.59344 280.00851 466.86492 280.01751 465.11897 C 280.0321 462.19441 280.4287 462.00992 285.03509 462.77131 C 287.78509 463.22585 297.6851 463.60316 307.03509 463.61115 C 323.07516 463.625 324.03509 463.77641 324.03509 466.2635 C 324.03509 470.59205 318.35454 473.09765 305.99212 474.22444 C 297.94396 474.95798 293.43711 476.05073 291.02533 477.85139 C 280.69321 485.56543 284.24646 489.11817 306.3515 493.17756 L 322.6679 496.17365 L 328.68353 493.25178 L 334.70111 490.32795 L 334.70111 493.67756 C 334.70111 497.57827 339.47701 499.99493 345.92962 499.3592 C 349.35307 499.0219 350.33529 498.03855 352.31829 492.96076 C 354.20658 488.12553 354.50806 484.60444 353.87103 474.82405 L 353.08001 462.68733 L 363.55658 461.76155 C 376.15793 460.64731 394.95338 456.41024 406.39837 452.1053 C 410.99844 450.37501 414.98341 448.96076 415.25384 448.96076 C 415.52426 448.96076 416.13169 450.50499 416.6054 452.3924 C 417.07912 454.27981 422.92011 461.32918 429.58392 468.05842 C 441.74985 480.3438 449.36412 492.3913 449.36712 499.3592 C 449.36987 507.35209 436.89526 520.0596 418.50579 530.7967 C 394.98345 544.53076 392.97102 546.60263 391.30072 558.81623 C 390.02427 568.1498 388.67062 571.26624 383.31244 577.19709 C 380.77644 580.00413 378.69253 583.34947 378.68353 584.63069 C 378.67417 585.9119 377.1495 591.71149 375.29486 597.51936 C 371.70788 608.75203 371.79893 611.62678 375.74212 611.62678 C 378.66076 611.62678 418.62618 597.21763 421.03509 595.2967 C 423.97606 592.95148 422.84251 589.63423 416.60931 582.33186 C 411.6372 576.50686 410.67804 574.56346 411.3847 571.74787 C 412.57224 567.01636 412.63194 567.0029 417.23236 570.40412 C 423.51452 575.04873 426.69017 572.83573 430.43548 561.20686 C 432.61712 554.43313 434.68031 550.75665 437.75384 548.16584 C 443.98292 542.91509 457.90894 537.01734 469.23626 534.83186 C 480.83669 532.5937 487.09323 529.11942 489.3554 523.65803 C 491.40703 518.70494 490.73006 513.0989 486.05072 496.2928 C 482.07427 482.01111 480.93828 466.1702 483.57025 461.701 C 484.96836 459.32694 486.57677 460.56094 502.71283 476.36897 C 512.40201 485.86118 522.87943 496.92744 525.99603 500.96076 C 537.87258 516.33072 542.97705 531.35684 543.21673 551.65217 C 543.346 562.59855 542.84484 565.71892 539.5722 574.32014 C 532.70547 592.36749 530.88972 595.60554 526.02728 598.47444 C 523.46409 599.98675 521.36712 602.0619 521.36712 603.08576 C 521.36712 604.10962 518.35127 608.6896 514.664 613.26545 C 510.97672 617.84132 508.13359 622.49609 508.34759 623.60725 C 508.67928 625.32963 512.56797 625.62678 534.71869 625.62678 L 560.70111 625.62678 L 561.1054 621.46858 C 561.35802 618.87335 560.23365 615.0225 558.11322 611.22444 C 554.04738 603.94184 554.71795 600.29903 559.88861 601.58772 C 574.41415 605.20793 574.72462 604.63705 570.94134 581.18147 C 567.33204 558.80439 567.26401 546.25341 570.67376 532.03108 C 575.88523 510.29374 575.41952 488.41054 569.63665 483.22248 C 568.38829 482.10252 564.96842 480.74561 562.03509 480.20881 C 558.49631 479.56122 555.231 477.68677 552.33392 474.63459 C 546.64815 468.64443 544.96712 465.23907 539.93353 449.52522 C 536.40513 438.51033 535.878 435.1956 536.56439 428.37873 C 539.54873 398.73982 538.73538 379.05041 533.99603 366.12678 C 532.81936 362.91818 531.55026 359.33415 531.17572 358.16194 C 530.26889 355.32386 541.98944 351.7159 544.37298 354.09944 C 545.21284 354.9393 547.04103 355.62678 548.43353 355.62678 C 556.57652 355.62678 564.03509 363.59235 564.03509 372.28889 C 564.03509 375.18085 565.12916 378.59781 566.69134 380.58381 C 569.21037 383.7852 569.33979 385.9097 569.20306 421.46076 C 569.04969 461.33502 570.37596 474.66149 576.24212 492.18733 C 587.05217 524.48357 604.58468 543.74519 631.64837 553.05647 C 639.13215 555.63126 645.77262 555.54165 647.44134 552.84162 C 647.86534 552.15555 646.74372 548.45005 644.94915 544.6092 C 641.03678 536.23572 637.70849 523.29007 636.50189 511.74592 L 635.61908 503.2928 L 639.20306 505.6424 C 641.45904 507.12059 645.59601 508.04681 650.36908 508.1424 C 660.38097 508.34291 660.77847 506.13688 652.54681 496.0428 C 639.88845 480.52048 632.37067 460.19953 624.03509 418.96076 C 614.8463 373.50088 607.35186 354.85176 592.16009 339.65998 C 579.81188 327.31179 572.3759 324.38097 553.36712 324.36897 C 541.85299 324.36185 537.94663 324.91433 531.36712 327.47639 C 519.8908 331.94527 512.71091 332.31642 499.09173 329.14826 C 474.40887 323.4064 454.49863 320.66483 443.03509 321.42951 C 432.21189 322.15148 432.03509 322.11301 432.03509 319.07405 C 432.03509 315.40258 427.3004 308.96076 424.60345 308.96076 C 423.52372 308.96076 422.69253 307.66271 422.68353 305.96076 C 422.67406 304.31077 421.47471 299.1563 420.01751 294.50764 C 416.36516 282.85618 416.66907 277.70662 421.81439 264.07405 C 429.10944 244.74565 430.03509 240.11968 430.03509 222.96076 C 430.03509 205.59609 429.77189 204.77608 418.76165 187.62678 C 414.65998 181.23808 413.8731 176.99827 416.03704 172.9549 C 417.29344 170.60732 417.72767 170.57746 423.30072 172.47639 C 431.47711 175.26237 435.26178 174.53574 435.77728 170.0799 C 436.12864 167.04295 435.21887 165.99067 429.44525 162.74787 C 422.10529 158.62533 422.03236 158.40456 424.13665 147.02131 C 425.27663 140.85464 425.20746 138.90238 423.80267 137.52326 C 422.07755 135.82969 390.16483 127.62678 385.30072 127.62678 z M 162.73431 306.03889 C 165.26254 305.99548 167.18979 307.13405 168.68744 309.41975 C 170.80075 312.64508 177.36712 328.62806 177.36712 330.5467 C 177.36712 331.14099 173.91776 331.56526 169.70111 331.49006 C 157.18453 331.26701 137.36712 326.15451 137.36712 323.14826 C 137.36712 322.26537 141.82544 318.11137 147.27337 313.9178 C 154.06273 308.69167 159.03921 306.10233 162.73431 306.03889 z "
       transform="translate(-88.121029,-127.62678)" />
    <g
       id="layer2"
       inkscape:label="Hooves"
       style="display:inline">
      <path
         style="fill:#666666;stroke-width:1.33333"
         d="m 173.98848,553.6267 c 0.97764,-2.73239 1.98218,-5.33186 4.4571,-11.53364 1.37534,-3.44639 0.94807,-5.13303 -1.30034,-5.13303 -0.61111,0 -1.11111,0.62429 -1.11111,1.38732 0,1.57863 -5.48196,9.71577 -7,10.39045 -0.55,0.24446 -1,1.25159 -1,2.2381 0,0.98652 -0.75,2.60972 -1.66667,3.60712 -2.52833,2.75102 -5,7.45333 -5,9.51244 0,1.01105 1.26828,3.45064 2.8184,5.4213 l 2.81842,3.58302 3.01504,-8.4032 c 1.65826,-4.62178 3.44438,-9.60322 3.96916,-11.06988 z"
         transform="translate(-88.121029,-127.62678)"
         id="path358" />
      <path
         style="fill:#666666;stroke-width:1.33333"
         d="m 556.03142,619.96003 c -0.003,-0.88333 -27.61228,-7 -31.59717,-7 -0.85352,0 -2.83359,1.8 -4.40012,4 l -2.84825,4 h 19.42413 c 10.68327,0 19.42289,-0.45 19.42141,-1 z"
         transform="translate(-88.121029,-127.62678)"
         id="path346" />
      <path
         style="fill:#666666;stroke-width:1.33333"
         d="m 257.96746,619.74696 c -1.23576,-1.18346 -19.27948,-5.19617 -28.6,-6.36029 -4.09604,-0.5116 -4.9444,-0.0843 -6.93798,3.49524 l -2.27132,4.07812 h 19.53798 c 11.77322,0 19.03459,-0.48209 18.27132,-1.21307 z"
         transform="translate(-88.121029,-127.62678)"
         id="path344" />
      <path
         style="fill:#666666;stroke-width:1.33333"
         d="m 389.36746,600.96367 c 3.3,-1.24073 7.68906,-2.94912 9.75347,-3.79643 2.0644,-0.84729 4.37373,-1.54054 5.13183,-1.54054 2.488,0 10.44804,-4.27438 10.44804,-5.61038 0,-1.32786 -5.82804,-0.88257 -22.70246,1.73456 l -8.70244,1.34971 -2.16537,6.02165 c -2.00925,5.5875 -2.00668,5.95228 0.0357,5.05948 1.21064,-0.5292 4.90116,-1.97732 8.20116,-3.21805 z"
         transform="translate(-88.121029,-127.62678)"
         id="path354" />
    </g>
    <g
       id="layer3"
       inkscape:label="Body"
       style="display:inline;fill:#aa4400">
      <path
         style="fill:#aa4400;stroke-width:1.33333"
         d="m 165.25364,538.68298 c 2.18201,-2.42814 1.78128,-3.05628 -1.94984,-3.05628 -3.84324,0 -9.93634,-5.77586 -9.93634,-9.41899 0,-4.89824 1.57068,-6.58101 6.14266,-6.58101 3.13245,0 4.52401,-0.61519 4.52401,-2 0,-1.1 -0.46356,-2 -1.03013,-2 -1.4365,0 -5.30591,-7.85032 -6.25666,-12.69359 -1.2641,-6.4396 1.61679,-22.63545 5.1431,-28.91352 6.33981,-11.28708 16.52734,-13.74963 39.93989,-9.65433 9.51081,1.66362 13.22205,1.76737 19.15589,0.53552 4.04783,-0.84034 11.03955,-1.38194 15.53714,-1.20356 11.38389,0.45148 12.8441,0.21276 12.8441,-2.0998 0,-2.73776 7.1717,-18.39582 10.68642,-23.33179 1.81088,-2.54315 3.99508,-3.97227 6.07104,-3.97227 4.20004,0 4.17086,2.6165 -0.13227,11.86046 -1.84181,3.95657 -3.18595,7.31928 -2.98697,7.47268 1.51393,1.16717 34.69206,4.69622 44.02844,4.68317 10.14729,-0.0141 11.66666,-0.31556 11.66666,-2.31416 0,-1.26383 -2.49158,-12.31785 -5.53686,-24.56449 l -5.53687,-22.26664 -10.1298,-4.944 c -10.03129,-4.89594 -16.12979,-9.27723 -16.12979,-11.588 0,-0.6579 -0.88414,-2.08031 -1.96476,-3.16092 -6.66954,-6.66955 -5.9774,-28.6006 1.76247,-55.84476 6.82488,-24.02343 7.91689,-31.0149 5.01805,-32.1273 -1.182,-0.45357 -2.14909,-1.40334 -2.14909,-2.1106 0,-0.70725 -0.87857,-2.16449 -1.95239,-3.23829 -1.71428,-1.71429 -2.27173,-1.66203 -4.57109,0.42857 -4.10348,3.7309 -5.86687,5.05712 -12.21405,9.18599 -3.26103,2.12132 -6.72199,4.60799 -7.69104,5.52595 -0.96904,0.91796 -2.35908,1.66901 -3.08896,1.66901 -0.72988,0 -3.23703,1.42877 -5.57143,3.17507 -4.28543,3.20577 -22.29545,12.82493 -24.01223,12.82493 -0.51033,0 -3.47133,1.17472 -6.58001,2.61048 -6.70052,3.09469 -24.32977,8.05619 -28.62533,8.05619 -1.66475,0 -3.0268,0.20585 -3.0268,0.45744 0,1.2308 10.77441,33.42809 11.39344,34.0471 0.7189,0.71891 7.65272,-6.5523 13.03886,-13.67333 1.59556,-2.10951 3.95103,-4.95951 5.23436,-6.33333 1.28334,-1.37384 2.33334,-3.0308 2.33334,-3.68215 0,-3.02245 12.90901,-13.78599 21.80973,-18.18496 11.59081,-5.72849 18.66353,-6.69631 19.22563,-2.63077 0.28664,2.07324 -1.5137,3.6353 -8.09015,7.0194 -9.96188,5.12618 -20.63973,13.76825 -25.09921,20.31393 -4.52948,6.64844 -5.23628,7.54047 -11.17934,14.109 -8.25212,9.12064 -9.07564,10.1036 -13.11096,15.64933 -5.05112,6.94175 -6.11922,16.90642 -2.9383,27.41227 l 2.33628,7.71624 6.18982,-1.46079 c 3.4044,-0.80344 8.769,-3.12892 11.92132,-5.16773 11.12648,-7.19625 17.60184,-8.27229 17.60184,-2.92499 0,1.83334 -0.66542,3.33334 -1.47873,3.33334 -0.81331,0 -2.76331,1.19164 -4.33333,2.6481 -7.20576,6.6845 -11.06483,9.33262 -14.79394,10.15167 -2.21525,0.48655 -7.33514,2.24303 -11.37753,3.90328 -4.04239,1.66025 -10.42868,4.26735 -14.19175,5.79353 -3.76308,1.5262 -12.36574,3.40064 -19.11704,4.16544 -14.43905,1.63567 -18.86485,3.61786 -23.40867,10.48403 -2.95647,4.46752 -3.41897,6.80587 -3.88252,19.62948 -0.28943,8.00679 -1.77654,20.47385 -3.30469,27.70457 -1.52816,7.23072 -2.77846,14.90463 -2.77846,17.05312 0,3.9874 3.83534,12.7425 7.00664,15.99434 0.96858,0.99317 2.76339,4.50577 3.98846,7.80577 1.2251,3.3 2.89075,7.79005 3.70148,9.97789 l 1.47407,3.97788 4.46751,-7.31121 c 2.45713,-4.02117 5.11873,-8.03591 5.91468,-8.92161 z"
         transform="translate(-88.121029,-127.62678)"
         id="path360" />
      <path
         style="fill:#aa4400;stroke-width:1.33333"
         d="m 200.51928,327.04694 c 6.48985,-1.78555 15.18562,-4.87171 19.32396,-6.85815 17.75941,-8.52469 23.90709,-11.8704 30.19089,-16.43059 3.66667,-2.66092 9.06667,-6.4842 12,-8.49618 2.93333,-2.01199 6.73544,-4.74491 8.44913,-6.07316 l 3.1158,-2.415 -6.71694,-6.43728 c -3.69432,-3.54051 -8.39644,-7.53891 -10.44914,-8.88532 -2.0527,-1.34642 -6.3174,-4.70775 -9.4771,-7.46963 -5.89403,-5.15192 -25.8234,-16.35493 -29.0943,-16.35493 -1.00509,0 -2.89568,-1.05 -4.20129,-2.33334 -5.01353,-4.92797 -18.83944,-9.69246 -41.54593,-14.31698 -18.36594,-3.74051 -18.6907,-3.6569 -18.72648,4.82189 -0.0175,4.14819 0.56144,5.07925 4.05914,6.52805 5.9974,2.4842 18.07006,15.05583 20.0704,20.89992 0.95392,2.78692 1.76043,10.16712 1.79223,16.40046 0.0468,9.16673 -0.52052,12.50708 -2.96743,17.47309 l -3.02522,6.13976 4.55193,11.19357 c 2.50356,6.15647 4.89609,12.24358 5.31672,13.52691 1.00709,3.07261 3.28253,2.95275 17.33363,-0.91309 z"
         transform="translate(-88.121029,-127.62678)"
         id="path376" />
      <path
         style="fill:#aa4400;stroke-width:1.33333"
         d="m 549.36746,604.59 c 0,-2.4035 0.98168,-5.77154 2.18152,-7.48454 1.80102,-2.57132 3.02196,-2.99482 7,-2.42806 2.65016,0.37758 5.78348,1.0772 6.96294,1.55472 1.94042,0.78562 1.90984,-0.50212 -0.3215,-13.53529 -3.36512,-19.65543 -3.24822,-39.67993 0.3189,-54.63156 4.7636,-19.96671 3.41857,-41.75939 -2.57859,-41.77939 -12.33996,-0.0412 -20.08537,-8.71557 -27.48601,-30.78281 -5.08535,-15.16347 -5.09207,-15.21263 -3.9942,-29.1994 2.44245,-31.11659 0.93562,-49.94881 -4.93074,-61.62389 -1.3671,-2.72075 -2.48565,-6.69551 -2.48565,-8.83276 0,-3.63484 0.58152,-4.06498 9,-6.65716 14.00712,-4.313 17.82091,-4.84988 16.87123,-2.37504 -0.5848,1.52397 1.09037,2.89893 6.38438,5.2402 6.64004,2.93654 7.55174,3.91246 12.18119,13.03956 l 5.00397,9.86545 1.165,45.33333 c 1.20459,46.8736 2.27451,56.40451 8.11952,72.32967 3.04679,8.30116 11.0229,24.68116 13.5136,27.75196 7.12975,8.79027 25.93152,24.31788 24.30123,20.06937 -0.41047,-1.06965 -1.55408,-2.25478 -2.54137,-2.63365 -2.48587,-0.95391 -11.5301,-13.47071 -15.56718,-21.54424 -7.57329,-15.14544 -10.72845,-29.67501 -15.05021,-69.30644 -1.75932,-16.13333 -3.87872,-32.33333 -4.70979,-36 -0.84358,-3.72193 -1.13346,-9.94196 -0.65625,-14.08169 0.58133,-5.04298 0.15853,-10.10191 -1.32167,-15.81416 -2.47725,-9.56004 -2.19064,-11.27432 0.84456,-5.05151 8.58852,17.60827 10.86962,28.2188 15.10922,70.28069 4.02161,39.89911 7.92757,54.88472 19.34432,74.21639 2.76902,4.68872 17.18194,19.11695 19.09666,19.11695 0.67243,0 0.7905,-1.35 0.26238,-3 -1.63418,-5.10554 -4.5755,-21.45264 -4.6312,-25.73896 -0.0291,-2.23976 -1.70634,-6.73976 -3.72719,-10 -2.02084,-3.26024 -4.49084,-7.72771 -5.48889,-9.92771 -0.99804,-2.2 -2.3146,-4.99377 -2.92567,-6.20839 -2.16437,-4.30205 -6.46227,-24.71458 -9.22041,-43.79161 -3.91219,-27.05907 -6.91887,-41.50823 -10.16883,-48.86817 -1.0204,-2.31083 -1.85527,-4.84258 -1.85527,-5.62611 0,-1.582 -4.18658,-9.35177 -8.35493,-15.50572 -3.53865,-5.22429 -10.20553,-11.51687 -14.71935,-13.89293 -3.18461,-1.6764 -9.71625,-10.42766 -8.60913,-11.53476 1.06893,-1.06894 10.85891,2.13916 16.35233,5.35852 7.81523,4.58002 13.60252,10.96238 18.89215,20.83468 8.11809,15.15116 11.33501,27.12885 17.77569,66.18485 6.40619,38.84681 9.55246,48.47853 18.88403,57.81012 3.75407,3.75405 7.78892,6.57285 9.40845,6.57285 h 2.8356 l -2.9802,-3.17228 c -1.63912,-1.74474 -4.4688,-5.79474 -6.2882,-9 -10.38965,-18.3035 -14.56528,-31.08566 -21.74597,-66.56732 -7.71799,-38.13658 -12.18432,-52.14501 -21.21965,-66.55422 -5.3002,-8.45258 -12.42636,-17.31403 -13.95147,-17.3488 -0.57969,-0.0133 -2.67969,-1.21366 -4.66667,-2.66763 -5.34912,-3.91424 -18.48358,-8.02308 -25.64688,-8.02308 -3.45588,0 -10.71194,1.52651 -16.1246,3.39224 -20.1392,6.94193 -20.12777,6.9416 -45.50856,1.31167 -21.8878,-4.85512 -41.67057,-7.59398 -48.59896,-6.72832 -6.95541,0.86902 -7.06701,0.95366 -7.06701,5.36012 0,2.46244 -1.83789,12.46926 -4.0842,22.2374 -2.77108,12.0501 -4.47212,23.97612 -5.29075,37.09356 -1.5145,24.26809 -3.02084,30.76694 -8.33565,35.96317 -3.38024,3.30481 -5.23152,4.03497 -10.20919,4.02664 -7.72648,-0.0133 -20.26193,-3.80963 -29.53318,-8.94487 -13.22414,-7.3247 -24.52691,-14.1931 -26.37243,-16.02584 -1.00396,-0.99701 -1.97932,-1.63418 -2.16747,-1.41593 -0.18814,0.21825 0.44987,4.89683 1.41779,10.39683 0.96793,5.5 2.50317,17.07029 3.41164,25.71174 l 1.65177,15.71175 6.08918,-0.80089 c 19.59742,-2.57764 32.55788,-6.21395 56.55808,-15.8685 9.64209,-3.87872 20.59626,-7.77464 24.3426,-8.6576 l 6.81152,-1.60538 -2.47819,-4.86082 c -1.71593,-3.3657 -2.48128,-7.74741 -2.48825,-14.24556 -0.0197,-18.37605 -4.43375,-33.66696 -11.38366,-39.43486 -1.06678,-0.88536 -1.93961,-3.03627 -1.93961,-4.7798 0,-8.9472 15.0748,2.70045 18.56292,14.34278 0.90064,3.00607 2.14955,12.25475 2.77535,20.55263 1.00468,13.32152 2.52316,19.72397 5.20225,21.93451 0.44439,0.36666 2.39304,2.76666 4.33033,5.33333 4.82323,6.39017 15.28763,16.9144 23.2007,23.33333 6.90546,5.6016 41.74258,40.36175 46.97754,46.87376 4.06559,5.05739 10.28623,18.11311 12.82707,26.92114 2.70992,9.39417 4.02785,32.57892 2.28544,40.2051 -3.80355,16.64743 -13.59504,37.14064 -17.89232,37.44794 -2.64815,0.18937 11.13887,4.06096 18.06405,5.07264 0.55,0.0804 1,-1.8204 1,-4.2239 z"
         transform="translate(-88.121029,-127.62678)"
         id="path350" />
      <path
         style="fill:#aa4400;stroke-width:1.33333"
         d="m 403.36746,581.48316 c 2.27624,-0.5643 2.67831,-1.80629 2.74614,-8.48294 0.0445,-4.38286 0.84908,-8.74916 1.82993,-9.93102 2.42568,-2.92277 8.02327,-2.63726 11.45229,0.58415 l 2.86691,2.69331 1.65372,-5.69331 c 2.53253,-8.7188 6.82252,-17.02665 8.79217,-17.02665 0.97348,0 1.96995,-0.5157 2.2144,-1.14598 0.96778,-2.49536 21.64831,-11.13541 31.41892,-13.1264 18.1618,-3.70089 20.49632,-7.27856 15.65372,-23.98938 -4.64126,-16.01603 -6.4206,-28.84844 -5.4514,-39.31487 l 0.82508,-8.90996 -5.90232,-4.83651 -5.90232,-4.83652 -5.632,4.07982 c -3.25129,2.35521 -7.29401,4.0798 -9.56378,4.0798 -5.52719,0 -12.98708,-3.84298 -14.68232,-7.56363 -1.07022,-2.34887 -2.13192,-2.93331 -4.20855,-2.31669 -3.76585,1.1182 -8.77725,4.36402 -8.77725,5.68492 0,1.28273 15.3792,16.60142 19.66666,19.58929 1.65,1.14985 3,2.90663 3,3.90393 0,0.99731 0.47415,2.01328 1.05366,2.25774 0.5795,0.24444 2.6795,3.91084 4.66666,8.14756 4.70204,10.02496 4.94087,20.04025 0.61302,25.70668 -6.1299,8.02582 -21.50122,21.92353 -24.24815,21.92353 -0.47543,0 -1.58908,0.64681 -2.4748,1.43736 -0.88571,0.79056 -6.2932,4.13 -12.01663,7.421 -11.73693,6.74877 -14.94484,10.87556 -16.3228,20.99829 -1.12124,8.23686 -5.53545,18.14335 -8.08446,18.14335 -1.01924,0 -1.85316,0.67729 -1.85316,1.50511 0,1.42216 9.14177,0.88354 16.66666,-0.98198 z"
         transform="translate(-88.121029,-127.62678)"
         id="path356" />
      <path
         style="fill:#aa4400;stroke-width:1.33333"
         d="m 252.06378,604.6267 c 0.0163,-2.38334 1.12632,-5.75948 2.46671,-7.50255 1.95489,-2.5422 3.33397,-3.04404 6.97035,-2.53652 2.4933,0.34799 5.67309,1.1228 7.0662,1.72179 2.23252,0.95992 2.4254,0.66078 1.62645,-2.52247 -2.48171,-9.88792 -3.19971,-24.09253 -2.02996,-40.16025 0.69403,-9.53334 1.45652,-30.23334 1.69443,-46 0.31793,-21.07016 0.98493,-30.52163 2.51701,-35.66667 2.06244,-6.92607 2.05405,-7.00016 -0.79485,-7.01468 -1.58363,-0.008 -5.06718,-0.37648 -7.74122,-0.81871 -4.08169,-0.67501 -4.99738,-0.37712 -5.70625,1.85631 -1.77396,5.58925 -5.5066,8.31041 -11.39945,8.31041 -5.41252,0 -5.61783,0.14738 -4.79159,3.4394 6.25687,24.92935 7.41513,34.6237 5.43892,45.52227 -0.80553,4.44247 -0.3818,7.20216 2.01117,13.09805 2.69086,6.62983 2.9338,8.84547 2.16066,19.705 -1.15106,16.16767 -7.75016,36.01044 -14.46275,43.48783 l -4.74795,5.28891 7.5129,1.48038 c 4.1321,0.81422 8.1129,1.69503 8.84624,1.95735 2.87724,1.02924 3.33438,0.53364 3.36298,-3.64585 z"
         transform="translate(-88.121029,-127.62678)"
         id="path348" />
      <path
         style="fill:#aa4400;stroke-width:1.33333"
         d="m 124.00448,306.6086 c 0.0163,-0.92661 0.62939,-2.72661 1.36241,-4 1.42022,-2.46718 4.20986,-9.39572 4.7139,-11.70776 0.16697,-0.76588 1.55876,-4.14781 3.09287,-7.5154 1.53412,-3.36758 4.45532,-12.53414 6.49155,-20.37014 3.68235,-14.17067 3.68792,-14.2578 1.03559,-16.20916 -4.72909,-3.47928 -8.60886,-3.74432 -11.37336,-0.77698 -1.39992,1.50263 -4.34738,3.79658 -6.54992,5.09764 -3.28118,1.93824 -4.26141,3.70248 -5.42609,9.76607 -2.95424,15.38037 -4.15435,19.50344 -6.69851,23.01317 -1.44033,1.98698 -2.61879,4.15324 -2.61879,4.81394 0,0.66069 -1.44573,3.33168 -3.21275,5.93552 -5.433442,8.00662 -5.111032,8.89144 5.21275,14.30594 l 9.33333,4.89506 2.30369,-2.78158 c 1.26703,-1.52985 2.31703,-3.5397 2.33333,-4.46632 z"
         transform="translate(-88.121029,-127.62678)"
         id="path380" />
      <path
         style="fill:#aa4400;stroke-width:1.33333"
         d="m 279.7008,278.78631 c 1.65,-0.44217 3,-1.71023 3,-2.81788 0,-1.10765 -4.98975,-6.88767 -11.08834,-12.84449 -6.09858,-5.95682 -12.43945,-12.78058 -14.0908,-15.16391 -1.65134,-2.38333 -3.7116,-4.3384 -4.57832,-4.34459 -0.86673,-0.007 -5.55466,-3.7562 -10.41762,-8.33333 -8.60512,-8.09936 -10.8303,-9.30679 -33.82492,-18.35412 -12.64138,-4.9738 -23.09558,-7.03164 -36.38396,-7.16191 l -14.21758,-0.13938 -1.31138,3.7276 c -1.14974,3.2681 -0.85654,4.08986 2.37862,6.66666 2.02951,1.61648 8.90498,4.33756 15.27883,6.04683 14.11415,3.78497 33.03975,9.97848 37.90404,12.40429 1.27339,0.63504 3.18053,1.15462 4.23809,1.15462 1.05758,0 2.71572,0.78366 3.68476,1.74148 0.96906,0.95782 3.86191,2.88609 6.42858,4.28506 8.38794,4.57186 19.29912,11.92788 20.94532,14.12078 0.88658,1.18101 5.86118,4.71473 11.05468,7.85268 5.19349,3.13794 10.16809,6.72684 11.05468,7.9753 1.39608,1.96591 4.04037,3.60894 6.27865,3.90123 0.36667,0.0479 2.01667,-0.27473 3.66667,-0.71692 z"
         transform="translate(-88.121029,-127.62678)"
         id="path388" />
      <path
         style="fill:#aa4400;stroke-width:1.33333"
         d="m 113.81663,338.6267 c 0.3336,-0.55 0.81652,-4.3 1.07317,-8.33334 0.3234,-5.08244 -0.0113,-7.24165 -1.0906,-7.03464 -0.85647,0.16428 -3.33995,-1.33572 -5.51884,-3.33333 -4.17702,-3.82949 -9.628532,-7.44259 -10.145952,-6.72441 -0.16869,0.23414 -1.08939,2.39102 -2.04601,4.79308 -1.50471,3.77829 -1.44583,4.69165 0.43655,6.77165 1.19672,1.32236 2.17585,3.11992 2.17585,3.99456 0,0.87464 1.650002,2.30715 3.666672,3.18332 2.01666,0.87619 4.82843,2.96333 6.24836,4.63809 2.68378,3.16543 4.16738,3.7488 5.2008,2.04502 z"
         transform="translate(-88.121029,-127.62678)"
         id="path370" />
      <path
         style="fill:#aa4400;stroke-width:1.33333"
         d="m 162.7841,299.58211 c 3.30002,-1.76611 7.60399,-10.19693 8.6979,-17.03784 1.01426,-6.34287 -2.09282,-16.63935 -6.5133,-21.58424 -3.90117,-4.36397 -11.5149,-10.66667 -12.88548,-10.66667 -0.5938,0 -1.47838,2.85 -1.96574,6.33334 -0.48735,3.48333 -2.35351,11.53938 -4.14701,17.90236 -3.18255,11.29097 -3.21736,15.7643 -0.12269,15.7643 1.89982,0 8.85302,7.2364 8.85302,9.21359 0,1.83933 4.70518,1.88308 8.0833,0.0752 z"
         transform="translate(-88.121029,-127.62678)"
         id="path386" />
      <path
         style="fill:#aa4400;stroke-width:1.33333"
         d="m 109.36747,254.08588 c 0,-3.18424 5.99515,-11.79252 8.21278,-11.79252 0.77572,0 4.67223,-3.26182 8.65891,-7.2485 6.82524,-6.82524 7.18166,-7.50651 6.10365,-11.66667 -0.62967,-2.42999 -1.70672,-4.41816 -2.39344,-4.41816 -2.38096,0 -6.60473,4.03316 -11.17078,10.66667 -2.52388,3.66666 -6.79436,8.97857 -9.48997,11.80424 -4.65443,4.87901 -4.83472,5.39908 -3.58227,10.33333 1.41993,5.59411 3.66112,7.01529 3.66112,2.32161 z"
         transform="translate(-88.121029,-127.62678)"
         id="path390" />
      <path
         style="fill:#aa4400;stroke-width:1.33333"
         d="m 146.36763,224.96003 -0.0673,-7.33333 -0.87537,6 -0.87538,6 -1.71098,-4 c -0.94104,-2.2 -1.80701,-7 -1.92437,-10.66667 -0.18265,-5.70665 -0.59739,-6.66667 -2.88005,-6.66667 -2.1019,0 -2.75219,1.02351 -3.07051,4.8327 -0.46247,5.53429 3.86741,18.96125 7.3586,22.81897 2.3256,2.56976 2.36683,2.56307 3.2342,-0.52436 0.48321,-1.72003 0.84826,-6.42731 0.81122,-10.46064 z"
         transform="translate(-88.121029,-127.62678)"
         id="path392" />
      <path
         style="fill:#aa4400;stroke-width:1.33333"
         d="m 132.03413,319.68066 c 0,-1.77212 6.29599,-7.61571 12.57884,-11.67499 5.00541,-3.23393 5.12747,-3.47519 2.66666,-5.271 -1.41836,-1.03508 -3.87626,-3.00813 -5.462,-4.38456 -2.84774,-2.47185 -2.89343,-2.46169 -3.71895,0.82743 -0.45968,1.8315 -2.61226,7.08993 -4.7835,11.68538 -4.33841,9.18226 -4.57528,10.09711 -2.61438,10.09711 0.73333,0 1.33333,-0.57572 1.33333,-1.27937 z"
         transform="translate(-88.121029,-127.62678)"
         id="path378" />
      <path
         style="fill:#aa4400;stroke-width:1.33333"
         d="m 127.19458,333.99672 c 1.0566,-1.67782 1.02052,-2.7224 -0.13391,-3.87681 -2.07217,-2.07217 -5.69321,0.74828 -5.69321,4.43448 0,3.16396 3.70688,2.80921 5.82712,-0.55767 z"
         transform="translate(-88.121029,-127.62678)"
         id="path372" />
      <path
         style="fill:#aa4400;stroke-width:1.33333"
         d="m 451.53249,444.34412 c 0.41139,-1.07209 1.89256,-2.31252 3.29148,-2.75652 4.75004,-1.5076 2.57179,-3.08664 -2.45651,-1.78073 -9.16942,2.38139 -9.28722,2.46556 -6.41182,4.58172 3.28145,2.41499 4.63721,2.40419 5.57685,-0.0444 z"
         transform="translate(-88.121029,-127.62678)"
         id="path364" />
      <g
         id="layer5"
         inkscape:label="Lines"
         style="display:inline">
        <path
           style="display:inline;fill:#000000;stroke-width:1.33333"
           d="m 508.9258,471.96003 c -7.32846,-12.23364 -11.55556,-24.81173 -16.91548,-50.33333 -1.64823,-7.84815 -10.35838,-27.28899 -14.08543,-31.43832 -1.03992,-1.15775 -1.89076,-2.53394 -1.89076,-3.05819 0,-0.52427 -1.5,-2.57089 -3.33333,-4.54807 -4.18628,-4.5147 -4.48464,-9.62209 -0.56211,-9.62209 5.18195,0 18.97093,16.82409 24.35996,29.72184 1.13044,2.70553 3.35153,11.07492 4.93577,18.59865 4.66727,22.1655 7.54516,32.33606 11.17912,39.50734 4.43202,8.74616 4.47872,12.17217 0.16595,12.17217 -1.79005,0 -3.52421,-0.45 -3.85369,-1 z"
           transform="translate(-88.121029,-127.62678)"
           id="path352" />
        <path
           style="fill:#000000;stroke-width:1.33333"
           d="m 127.58969,266.7378 c -1.80862,-1.80861 -0.79431,-4.05949 2.50718,-5.56374 4.26673,-1.94407 4.60393,-1.93262 4.60393,0.15632 0,0.93702 -1.20686,2.73702 -2.68191,4 -3.02176,2.5873 -3.19445,2.64218 -4.4292,1.40742 z"
           transform="translate(-88.121029,-127.62678)"
           id="path382" />
      </g>
    </g>
    <path
       style="fill:#de8787;stroke-width:1.33333"
       d="m 304.40088,393.29336 c -0.43942,-2.75 -1.9812,-5.8397 -3.42618,-6.86601 -2.32254,-1.6496 -2.53825,-2.92753 -1.8599,-11.01884 0.70105,-8.36221 5.47485,-20.90189 10.22457,-26.85765 0.69777,-0.87495 3.08955,-3.77004 5.31505,-6.43352 2.22551,-2.66347 4.04638,-5.25266 4.04638,-5.75375 0,-0.50108 3.32,-4.28448 7.37776,-8.40756 4.05777,-4.12308 7.90454,-8.13389 8.5484,-8.91292 0.81149,-0.98187 -2.98594,-1.4662 -12.37776,-1.57869 -10.66106,-0.12774 -14.92168,-0.76704 -19.99228,-3 -3.54412,-1.56075 -6.69412,-2.83772 -7,-2.83772 -0.30587,0 -0.56534,1.65 -0.57659,3.66666 -0.0207,3.70907 -3.06131,16.72362 -8.17708,35 -3.97215,14.19071 -3.74711,24.97171 0.67351,32.26514 4.88242,8.05536 7.502,10.78498 12.85737,13.39756 2.56667,1.25212 4.77895,2.29025 4.91617,2.30694 0.13723,0.0167 -0.11,-2.21964 -0.54942,-4.96964 z"
       transform="translate(-88.121029,-127.62678)"
       id="path368" />
    <g
       id="layer1"
       inkscape:label="Rider"
       style="display:inline">
      <path
         style="fill:#008000;stroke-width:1.33333"
         d="m 348.73854,477.6267 c -0.3394,-3.66667 -1.28016,-14.76667 -2.09056,-24.66667 -1.30809,-15.97972 -5.47537,-44.64628 -7.41328,-50.99564 -1.33424,-4.37147 -22.85408,-13.79529 -25.48789,-11.16148 -0.48264,0.48263 0.0804,4.61543 1.25128,9.18399 1.17085,4.56856 3.99776,15.50646 6.28204,24.30646 5.52769,21.29503 8.08683,34.66254 8.08711,42.24255 3.2e-4,8.76644 -4.21419,11.64003 -19.05571,12.99276 -6.03999,0.55052 -12.47331,1.81379 -14.29627,2.80728 -3.18312,1.73475 -2.9182,1.89892 6.68554,4.14288 13.68826,3.19833 18.65245,3.34876 23.91262,0.72464 2.47339,-1.23389 6.49347,-2.24344 8.9335,-2.24344 3.73328,0 4.57862,0.58112 5.33377,3.66667 1.44517,5.90502 3.58591,6.13069 6.14752,0.64805 1.61664,-3.46008 2.13896,-7.01739 1.71033,-11.64805 z"
         transform="translate(-88.121029,-127.62678)"
         id="path362" />
      <path
         style="fill:#ffcc00;stroke-width:1.33333"
         d="m 411.12937,420.6267 c 3.21585,-3.41075 5.01667,-11.92116 6.87964,-32.51226 1.05267,-11.63493 2.87169,-26.25441 4.04228,-32.48774 3.24205,-17.26384 4.60207,-26.8605 4.53495,-32 -0.0551,-4.21356 -0.25112,-3.95903 -2.01963,2.62157 -1.07728,4.00853 -4.13471,11.20853 -6.79429,16 -5.01258,9.0306 -20.32506,25.37843 -23.77115,25.37843 -1.08187,0 -1.96704,0.47514 -1.96704,1.05588 0,1.61333 -14.32497,7.8014 -23.56371,10.179 -4.5267,1.16496 -12.9267,2.26368 -18.66666,2.44161 -9.5908,0.29729 -10.4363,0.11147 -10.4363,-2.29315 0,-1.98 1.29762,-2.88504 5.33334,-3.71977 21.39817,-4.42592 35.99574,-9.97612 44.92181,-17.07989 2.707,-2.15436 5.28565,-3.91702 5.73033,-3.91702 0.99935,0 6.05447,-5.39917 9.46742,-10.11177 1.4009,-1.93437 3.20482,-4.21543 4.00872,-5.06901 1.7205,-1.82686 5.00738,-8.96052 7.07329,-15.35151 2.30129,-7.11912 1.74263,-15.14015 -1.93496,-27.78089 -4.53627,-15.59222 -3.84685,-20.94279 5.45711,-42.35348 3.35213,-7.7141 6.29064,-26.16231 5.60886,-35.21299 -0.54513,-7.23675 -1.66322,-10.51029 -6.33741,-18.55468 -5.23204,-9.00448 -5.94843,-9.69999 -9.16867,-8.90141 -1.92124,0.47644 -3.69317,1.42188 -3.93761,2.101 -0.24445,0.6791 -0.93759,1.23474 -1.54032,1.23474 -0.60272,0 -5.48239,2.70448 -10.84369,6.00995 -9.09982,5.61041 -20.99648,17.74643 -21.1207,21.54561 -0.028,0.85555 -0.51761,1.75555 -1.08808,2 -2.2542,0.96591 -8.35021,17.22519 -9.47225,25.26439 -1.80409,12.92599 0.32624,13.90613 3.64112,1.67525 3.7168,-13.71386 7.44363,-23.34734 11.54667,-29.84697 1.82693,-2.89404 3.32169,-5.63383 3.32169,-6.0884 0,-1.73925 9.17539,-9.89911 12.59159,-11.19795 5.60684,-2.13172 15.52001,-1.67418 18.30342,0.84478 4.98248,4.50908 1.204,10.82866 -4.38688,7.3371 -4.70234,-2.93666 -8.70858,-1.7499 -14.70964,4.35739 -3.18917,3.24563 -6.79681,7.89563 -8.01697,10.33333 -3.73444,7.46087 -11.02999,29.17282 -12.46579,37.09886 -0.46494,2.56666 -1.85118,5.88462 -3.08054,7.37325 -3.90847,4.73277 -35.91438,21.96008 -40.79872,21.96008 -2.60239,0 -3.26407,2.62336 -2.4603,9.75439 0.63987,5.67692 1.02204,6.24381 4.19723,6.2259 5.35761,-0.0303 20.45432,-3.86649 23.77311,-6.04104 1.62781,-1.06658 3.60586,-1.93925 4.39566,-1.93925 0.7898,0 2.62104,-1.10403 4.06942,-2.4534 1.44838,-1.34937 4.25506,-3.29937 6.23708,-4.33333 8.84472,-4.61406 21.3869,-17.69786 31.76282,-33.13444 7.12792,-10.60443 9.66834,-13.41216 12.13518,-13.41216 4.61556,0 4.03033,4.67854 -1.66744,13.33017 -2.6331,3.99815 -5.61911,8.87761 -6.63559,10.84327 -1.01648,1.96565 -2.73549,4.46128 -3.82004,5.54582 -1.08455,1.08455 -3.09364,3.99139 -4.46465,6.45966 -2.68391,4.83189 -15.84892,16.14446 -21.91076,18.82769 -2.04316,0.90439 -3.71486,2.09788 -3.71486,2.6522 0,0.55432 -0.75,1.01044 -1.66666,1.01359 -0.91667,0.003 -4.82884,2.40316 -8.69372,5.33333 -3.86487,2.93019 -7.33336,5.3276 -7.70774,5.3276 -0.62009,0 -23.30869,22.95012 -26.71178,27.01969 -7.12414,8.51934 -17.67919,31.41344 -15.84847,34.3756 0.36243,0.58642 2.60207,1.45654 4.977,1.93362 12.83993,2.57925 32.16235,11.19605 52.55945,23.43878 6.46722,3.88176 12.05859,7.4161 12.42526,7.85408 0.6777,0.80951 16.34701,8.47518 20,9.7843 3.76646,1.34978 10.85645,0.928 12.42857,-0.7394 z"
         transform="translate(-88.121029,-127.62678)"
         id="path366" />
      <path
         style="fill:#ffeeaa;stroke-width:1.33333"
         d="m 315.12586,300.66142 c -0.89517,-8.5646 -4.73548,-17.03472 -7.72344,-17.03472 -2.30513,0 -3.49122,6.7309 -2.48269,14.08896 0.71589,5.22298 1.48057,6.3873 5.63797,8.58452 2.64538,1.3981 4.95056,2.56852 5.12266,2.60092 0.17208,0.0324 -0.0775,-3.67544 -0.5545,-8.23968 z"
         transform="translate(-88.121029,-127.62678)"
         id="path384" />
      <path
         style="fill:#ffeeaa;stroke-width:1.33333"
         d="m 407.03413,181.20579 c 1.30348,-1.11303 2.33333,-3.83959 2.33333,-6.17759 0,-4.06385 -0.31906,-4.2891 -11.0053,-7.76922 -9.71747,-3.16463 -11.60772,-3.39915 -16.15326,-2.00408 -4.47378,1.37304 -5.3668,1.28064 -6.81916,-0.70558 -1.87974,-2.57072 -3.00932,-1.63601 -5.73308,4.74404 -1.46637,3.4348 -1.35638,3.66667 1.73939,3.66667 2.3536,0 3.30475,0.72644 3.30475,2.52401 0,1.38822 0.9,2.86938 2,3.2915 2.21109,0.84846 2.78629,6.18449 0.66666,6.18449 -0.73333,0 -1.33333,0.9 -1.33333,2 0,2.90372 2.23427,2.46552 7.35899,-1.44329 5.50133,-4.19607 9.32057,-3.83191 9.27548,0.88441 l -0.0321,3.36788 6.0322,-3.28543 c 3.31771,-1.80698 7.0822,-4.182 8.36554,-5.27781 z"
         transform="translate(-88.121029,-127.62678)"
         id="path394" />
      <path
         style="fill:#ff6600;stroke-width:1.33333"
         d="m 418.56789,144.80987 c 0.12853,-3.36864 -0.40339,-3.61373 -16.13199,-7.43307 l -16.26489,-3.94956 -3.02631,3.43306 c -1.66446,1.88818 -3.04526,3.77466 -3.06844,4.19218 -0.0232,0.41752 8.20787,3.48435 18.2912,6.81518 18.01298,5.95022 18.34848,6.00685 19.20043,3.24088 0.47691,-1.54835 0.92691,-4.38275 1,-6.29867 z"
         transform="translate(-88.121029,-127.62678)"
         id="path396" />
    </g>
  </g>
</svg>
