<?xml version="1.0"?>
<svg xmlns:rdf="http://www.w3.org/1999/02/22-rdf-syntax-ns#" xmlns="http://www.w3.org/2000/svg" xmlns:cc="http://web.resource.org/cc/" xmlns:dc="http://purl.org/dc/elements/1.1/" xmlns:svg="http://www.w3.org/2000/svg" id="svg2" viewBox="0 0 291.39 369.59" version="1.0">
  <g id="layer1" fill-rule="evenodd" transform="translate(-16.598 -6.4449)">
    <path id="path17290" style="color:#000000" d="m2095.7 955.33a247.08 25.279 0 1 1 -494.2 0 247.08 25.279 0 1 1 494.2 0z" fill-opacity=".99569" transform="matrix(.55469 .0098483 -.0080660 .45431 -854.84 -87.918)" fill="#b3b3b3"/>
    <path id="path16238" d="m204.86 6.5019c19.01-1.3938 31.98 23.064 20.22 38.023-11.87 10.411-8.44 29.035-12.99 43.333-2.5 16.822-6.62 33.692-5.99 50.762 15.21 32.57 37.39 64.52 35.73 102.12-0.29 29.42-13.96 57.19-32.91 79.1-8.36 21.1 25.85 10.19 37.45 15.85 16.22 0.77 32.7 2.17 46.13 11.97 14.48 4.1 23.69 22.33 1.37 19.06-29.34-7.08-61.04-9.86-91.17-6.29-13.44-0.04-27.91 5.22-39.44-4.44-6.75-2.74-22.49 6.15-33.46 1.8-31.957-3.96-63.776-3.44-95.009 4.64-17.803 6.77-23.78-8.98-5.205-15.07 13.697-10.02 30.787-14.08 47.772-14.1 14.941-1.42 31.322-2.8 46.332-3.16-17.23-19.37-38.414-40.85-42.344-67.68 4.342-39.37 18.237-78.38 44.604-108.19 11.36-5.56 28.67-21.2 15.37-32.34-14.88-7.12-16.53-31.816-0.12-37.216 16.77-9.217 34.84 5.586 28.63 23.796-6.57 9.48-19.86 15.81-8.95 30.8 11.3 12.37 33.52-1.65 34.52-21.05 5.34-20.958 6.84-46.571 3.82-67.56-17.64-6.158-23.08-30.818-6.97-40.23 3.74-2.4381 8.15-3.8514 12.61-3.9281z" style="color:#000000" fill="#0f0"/>
    <path id="path13301" d="m201.39 9.6924c-22.2-0.6467-27.27 33.739-6.53 39.972 5.85 8.384 1.93 24.311 3.03 35.268-1.5 18.818-2.42 40.478-16.25 54.808-18.63 8.63 12.81 2.9 13.88-6.98 7.19-10.97 5.04-24.83 8.41-37.727 3.52-14.55 3.24-29.831 1.31-44.474-14.97-5.086-22.48-30.247-4.62-39.123 4.26-1.337 4.31-1.8932 0.77-1.7436zm-53.46 74.459c-16.87-1.743-26.52 19.559-15.56 31.639 12.88 3.55 14.65 23.64 4.21 30.93-15.63 8.94-26.49 23.72-34.06 39.85-11.768 24.45-21.881 51.14-21.369 78.57 8.04 24.43 25.449 44.59 43.189 62.62 11.46 1.17-26.069 4.63-8.47 2.98 5.65-1.47 29.33-0.96 14.06-6.51-16.48-18.38-36.045-36.74-38.126-66.68-2.08-29.94 16.386-65.1 36.546-94.05 6.33-12.22 23.85-14.81 23.06-30.53 4.32-14.18-12.57-14.74-14.41-26.21-3.8-10.683 6.75-21.878 10.93-22.609zm-23.07 245.64c-41.02 3.05-77.104-1.7-106.27 26.04-2.466 7.37 3.891-1.33 7.387-3.04 3.429-1.69 24.707-12.55 36.679-14.51 11.943-1.95 66.514-6.53 62.204-8.49z" style="color:#000000" fill="#d5ffd5"/>
    <path id="path13295" d="m202.73 133.55c-3.13 17.48 12.65 54.05 20.58 70.98 9.12 38.45 3.87 80.51-27.68 105.76l5.68 19.87 4.26-10.65 13.48-19.87 15.62-29.1 6.38-40.46-14.9-48.97-22.72-44.01-0.7-3.55zm-75.58 174.16c6.42 9.19 13.44 12.08 18.67 21.76 4.28 9.89-0.9 24.85-13.81 22.24-14.91-1.47-29.68-5.38-44.797-3.51-16.474 1.33-29.725 3.57-40.537 6.73-10.811 3.15-17.757 6.78-28.438 5.23 4.864 3.52 13.602 5.26 24.118 2.58 26.569-6.74 52.583-8.34 79.754-5.68 11.93 0.25 26.17 5.47 37.3-0.72 4.45-2.7 9.82 8.48 17.42 6.02 27.35-1.28 55.41-3.92 82.76 0.19 13.49 1.18 26.25 5.45 39.75 5.95 6.95 0.6 9.64-7.09 7.57-9.65-2.5-5.65-9.04-8.23-6.97 0.49-8.62 5.78-19.44-1.02-28.82-1.68-26.95-4.1-54.43-8.52-81.67-4.51-11.17 3.37-25.72-1.83-19.23-14.69 5.25-5.56 7.76-18.21 17.97-24.43 5.32-3.69-3.76-0.41-14.22 1.04-10.45 1.44-28.39 3.63-46.82-7.36z" style="color:#000000" fill="#008000"/>
    <path id="path18331" d="m214.04 332.82l-14.76-1.23s6.76 6.15 12.91 6.15 31.98 0 45.5 2.46c13.53 2.46 19.68 4.3 24.6 5.53s7.38 0 7.38 0l-14.76-5.53-19.06-4.3-41.81-3.08z" style="color:#000000" fill="#fff"/>
    <path id="path5915" d="m205.24 6.5781c-18.73-0.457-30.78 23.909-18.71 38.396 15.46 7.155 11.54 23.942 11.8 38.475-1.33 18.461-2 39.591-15.07 54.001-12.51 14.52-36.4-6.64-20.5-17.16 16.87-7.66 12-36.517-6.3-38.655-16.69-4.639-34.11 12.38-27.05 29.065 5.21 10.73 22.04 18.07 10.82 31.97-13.8 8.57-24.81 20.67-32.62 34.92-15.521 25.79-25.728 54.91-28.729 84.9 3.938 26.84 24.399 46.18 41.639 65.55-22.231 1.03-44.619 2.32-66.559 5.97-13.791 4.77-27.564 12.14-37.363 23.06 1.409 15.09 24.191 5.68 34.529 4.21 32.205-7.63 65.213-2.73 97.713-0.83 9.32-1.92 12.95-6.25 19.9 1.81 14.51 4.46 29.87-1.19 44.72-0.96 27.21-2.74 54.52 1.94 80.98 8.01 18.05 3.78 17.2-15.4 2.52-20.01-13.63-9.99-30.02-14.43-46.92-14.6-13-4.82-36.31 3.12-42.5-8.15 5.1-15.75 20.24-27.01 25.28-43.45 15.62-33.71 10.51-73.48-6.82-105.47-6.48-13.51-14.43-26.59-19.74-40.57 1.27-29.21 8.08-57.903 13.2-86.63 16.83-10.22 11.9-38.836-7.33-43.004-2.24-0.6139-4.57-0.8932-6.89-0.8479zm-0.04 3.4095c16.56-1.2784 27.66 20.031 17.32 32.94-12.35 9.611-8.37 28.435-13.05 42.334-2.77 17.638-6.53 34.648-6.74 51.928 11.69 30.86 34.56 58.88 34.67 93.34 1.74 31.8-13.27 62.1-34.91 84.61-4.38 6.67-2.74 17.01-3.67 17.56 30.07 6.95 63.11-0.16 91.21 15.31 10.08 3.27 28.25 20.39 5.74 19.12-27.47-6.49-55.71-11.42-84.06-8.91-14.54-0.68-30.58 6-44.11-0.97-5.86-10.61 5.93-23.17 7.96-34.33-0.54-3.92 3.37-3.88 5.9-5.56 1.19-0.63 3.97-2.26 3.95-2.5-8.44 3.77-18.01 5.01-26.98 4.24-8.41 1.06-18.03-1.34-24.46-6.64 4.52 5.47 11.29 8.56 18.08 10.04 7.6 13.76 14.11 39.96-10.8 34.09-33.73-3.22-67.356-5.04-100.31 4.25-9.601 6.51-33.806-0.47-15.894-9.7 18.731-15.04 43.304-19.06 66.712-18.12 13.212-0.79 27.132-0.65 39.682-4.82-12.9-4.91-20.4-20.5-29.67-30.83-9.047-13.67-20.836-29.3-16.1-46.68 4.988-32.58 17.53-64.74 38.05-90.68 8.82-9.63 27.23-14.59 22.91-31.08-2.62-12.72-22.77-18.84-13.07-35.308 8.69-14.687 36.37-10.989 36.03 7.828 0.37 15.97-25.64 20.64-11.9 39.17 15.1 12.45 36.4-2.09 38.53-19.51 6.47-22.455 6.7-46.501 4.22-69.454-14.97-5.089-22.47-30.24-4.61-39.117 2.86-1.579 6.11-2.466 9.37-2.5514zm3.29 228.78c-7.11 24.87-35.14 44.22-60.76 34.27-7.94-2.25-27.09-12.6-9.95-2 19.35 11.56 45.69 7.72 60.54-9.38 6.37-5.06 11.99-21.16 10.94-4.43 1.25 12.7 2.93-16.42-0.77-18.46z"/>
    <path id="path9033" style="color:#000000" d="m1945.4 289.08a27.519 27.519 0 1 1 -55 0 27.519 27.519 0 1 1 55 0z" transform="matrix(.58067 0 0 .58067 -910.1 -135.08)" stroke="#000" stroke-width="3.5016" fill="#fff"/>
    <path id="path10004" style="color:#000000" d="m1932.7 309.07a16.221 16.221 0 1 1 -32.5 0 16.221 16.221 0 1 1 32.5 0z" transform="matrix(.47091 0 0 .47091 -699.21 -108.69)" stroke="#000" stroke-width="17.353" fill="#fff"/>
    <g id="g11950" stroke="#000" transform="matrix(.44385 0 0 .44385 -705.46 -26.155)" fill="#fff">
      <path id="path11946" style="color:#000000" stroke-width="3.5016" transform="matrix(1.1549 0 0 1.1549 -294.79 -39.568)" d="m1945.4 289.08a27.519 27.519 0 1 1 -55 0 27.519 27.519 0 1 1 55 0z"/>
      <path id="path11948" style="color:#000000" stroke-width="17.353" transform="matrix(.93661 0 0 .93661 124.68 12.931)" d="m1932.7 309.07a16.221 16.221 0 1 1 -32.5 0 16.221 16.221 0 1 1 32.5 0z"/>
    </g>
    <path id="path16260" d="m150.83 157.07c0 0.84-0.69 1.53-1.53 1.53-0.85 0-1.53-0.69-1.53-1.53 0-0.85 0.68-1.53 1.53-1.53 0.84 0 1.53 0.68 1.53 1.53zm15.47 3.74c0 1.1-0.89 1.99-1.99 1.99s-1.99-0.89-1.99-1.99 0.89-1.99 1.99-1.99 1.99 0.89 1.99 1.99zm-9.5 19.75c0 0.93-0.76 1.69-1.69 1.69-0.92 0-1.68-0.76-1.68-1.69s0.76-1.68 1.68-1.68c0.93 0 1.69 0.75 1.69 1.68zm13.52 14.19c0 0.84-0.69 1.53-1.53 1.53-0.85 0-1.53-0.69-1.53-1.53 0-0.85 0.68-1.54 1.53-1.54 0.84 0 1.53 0.69 1.53 1.54zm23.81-34.99c0 1.43-1.17 2.6-2.61 2.6-1.43 0-2.6-1.17-2.6-2.6 0-1.44 1.17-2.61 2.6-2.61 1.44 0 2.61 1.17 2.61 2.61zm3.14 15.75c0 0.76-0.62 1.38-1.38 1.38s-1.38-0.62-1.38-1.38 0.62-1.38 1.38-1.38 1.38 0.62 1.38 1.38zm-11.03 14.85c0 1.52-1.23 2.76-2.75 2.76s-2.76-1.24-2.76-2.76 1.24-2.76 2.76-2.76 2.75 1.24 2.75 2.76zm-11.04-14.43c0 1.52-1.23 2.75-2.76 2.75-1.52 0-2.75-1.23-2.75-2.75s1.23-2.76 2.75-2.76c1.53 0 2.76 1.24 2.76 2.76zm-23.86 22.33c0 1.95-1.58 3.52-3.53 3.52-1.94 0-3.52-1.57-3.52-3.52 0-1.94 1.58-3.52 3.52-3.52 1.95 0 3.53 1.58 3.53 3.52zm-9.59-27.59c0 1.02-0.82 1.84-1.84 1.84-1.01 0-1.84-0.82-1.84-1.84 0-1.01 0.83-1.84 1.84-1.84 1.02 0 1.84 0.83 1.84 1.84zm-16.45 16.63c0 0.67-0.55 1.22-1.22 1.22-0.68 0-1.23-0.55-1.23-1.22 0-0.68 0.55-1.23 1.23-1.23 0.67 0 1.22 0.55 1.22 1.23zm-2 15.06c0 0.7-0.58 1.27-1.3 1.27-0.71 0-1.29-0.57-1.29-1.27 0-0.71 0.58-1.28 1.29-1.28 0.72 0 1.3 0.57 1.3 1.28zm38.14 11.18c0 0.84-0.69 1.53-1.53 1.53-0.85 0-1.54-0.69-1.54-1.53 0-0.85 0.69-1.53 1.54-1.53 0.84 0 1.53 0.68 1.53 1.53zm44.66-22.3c0 0.68-0.55 1.22-1.23 1.22s-1.22-0.54-1.22-1.22 0.54-1.23 1.22-1.23 1.23 0.55 1.23 1.23zm-2 15.06c0 0.7-0.59 1.27-1.3 1.27-0.72 0-1.3-0.57-1.3-1.27 0-0.71 0.58-1.28 1.3-1.28 0.71 0 1.3 0.57 1.3 1.28z" style="color:#000000" fill="#df5"/>
  </g>
  <metadata>
    <rdf:RDF>
      <cc:Work>
        <dc:format>image/svg+xml</dc:format>
        <dc:type rdf:resource="http://purl.org/dc/dcmitype/StillImage"/>
        <cc:license rdf:resource="http://creativecommons.org/licenses/publicdomain/"/>
        <dc:publisher>
          <cc:Agent rdf:about="http://openclipart.org/">
            <dc:title>Openclipart</dc:title>
          </cc:Agent>
        </dc:publisher>
        <dc:title>comic alien</dc:title>
        <dc:date>2008-03-30T18:21:51</dc:date>
        <dc:description>alien, clip art, clipart, comic, green, outline, space, </dc:description>
        <dc:source>http://openclipart.org/detail/16059/comic-alien-by-chrisdesign</dc:source>
        <dc:creator>
          <cc:Agent>
            <dc:title>Chrisdesign</dc:title>
          </cc:Agent>
        </dc:creator>
        <dc:subject>
          <rdf:Bag>
            <rdf:li>alien</rdf:li>
            <rdf:li>clip art</rdf:li>
            <rdf:li>clipart</rdf:li>
            <rdf:li>comic</rdf:li>
            <rdf:li>green</rdf:li>
            <rdf:li>outline</rdf:li>
            <rdf:li>space</rdf:li>
          </rdf:Bag>
        </dc:subject>
      </cc:Work>
      <cc:License rdf:about="http://creativecommons.org/licenses/publicdomain/">
        <cc:permits rdf:resource="http://creativecommons.org/ns#Reproduction"/>
        <cc:permits rdf:resource="http://creativecommons.org/ns#Distribution"/>
        <cc:permits rdf:resource="http://creativecommons.org/ns#DerivativeWorks"/>
      </cc:License>
    </rdf:RDF>
  </metadata>
</svg>
