<?xml version="1.0" encoding="UTF-8" standalone="no"?>
<svg
   xmlns:dc="http://purl.org/dc/elements/1.1/"
   xmlns:cc="http://creativecommons.org/ns#"
   xmlns:rdf="http://www.w3.org/1999/02/22-rdf-syntax-ns#"
   xmlns:svg="http://www.w3.org/2000/svg"
   xmlns="http://www.w3.org/2000/svg"
   xmlns:sodipodi="http://sodipodi.sourceforge.net/DTD/sodipodi-0.dtd"
   xmlns:inkscape="http://www.inkscape.org/namespaces/inkscape"
   version="1.1"
   id="Layer_1"
   x="0px"
   y="0px"
   viewBox="0 0 1575.947 1654.679"
   enable-background="new 0 0 1575.947 1654.679"
   xml:space="preserve"
   sodipodi:docname="Super-Lady.svg"
   inkscape:version="0.92.3 (2405546, 2018-03-11)"><metadata
   id="metadata978"><rdf:RDF><cc:Work
       rdf:about=""><dc:format>image/svg+xml</dc:format><dc:type
         rdf:resource="http://purl.org/dc/dcmitype/StillImage" /><dc:title></dc:title></cc:Work></rdf:RDF></metadata><defs
   id="defs976">
	
	
	
	
	
	
	
	
	
	
	
	
	
	
	
	
	
	
	
	
	
	
	
	
	
	
	
	
	
	
	
	
	
	
	
	
	
	
	
	
	
	
	
	
	
	
	
	
	
	
	
	
	
	
	
	
	
	
</defs><sodipodi:namedview
   pagecolor="#ffffff"
   bordercolor="#666666"
   borderopacity="1"
   objecttolerance="10"
   gridtolerance="10"
   guidetolerance="10"
   inkscape:pageopacity="0"
   inkscape:pageshadow="2"
   inkscape:window-width="1920"
   inkscape:window-height="1177"
   id="namedview974"
   showgrid="false"
   inkscape:snap-global="false"
   inkscape:zoom="0.40340684"
   inkscape:cx="383.66095"
   inkscape:cy="962.82211"
   inkscape:window-x="-8"
   inkscape:window-y="-8"
   inkscape:window-maximized="1"
   inkscape:current-layer="Layer_1" />
<path
   style="fill:#fad01c;stroke:#fad01c;stroke-width:0.90259999"
   inkscape:connector-curvature="0"
   id="path857"
   d="m 722.63108,60.537 c 40.201,-13.222 83.244,-19.035 125.384,-13.647 18.719,2.383 37.149,6.932 54.803,13.593 28.864,10.831 57.195,23.638 82.93599,40.733 20.82203,13.854 39.72203,30.895 54.26203,51.329 16.219,22.465 26.653,48.395 35.777,74.38 2.509,7.266 5.298,14.45 7.491,21.833 -13.872,-4.432 -25.949,-13.015 -37.456,-21.707 -26.662,-20.948 -49.86603,-45.895 -71.83503,-71.618 -3.159,-3.502 -5.767,-7.491 -9.19699,-10.731 5.93899,10.181 12.48199,20.028 18.66499,30.073 15.091,23.701 30.66903,47.646 51.72603,66.573 16.77,15.217 37.339,25.903 59.073,32.032 31.824,8.999 65.192,10.397 98.081,9.937 -4.865,1.607 -10.055,1.616 -15.028,2.717 -23.133,3.728 -46.31,8.665 -69.867,7.997 -24.198,-0.587 -47.303,-9.044 -69.118,-18.891 -34.767,-15.993 -67.94503,-35.128 -101.20402,-53.973 -13.872,-8.069 -28.024,-15.677 -41.509,-24.387 -28.313,-17.437 -58.35,-32.212 -89.886,-42.835 -18.99,-6.354 -38.557,-11.183 -58.486,-13.331 -18.259,-1.679 -37.131,-1.516 -54.668,4.423 -12.618,4.215 -24.342,11.995 -31.842,23.133 14.36,34.658 18.728,72.927 15.804,110.166 -1.706,19.27 -5.515,38.377 -11.508,56.771 -7.509,-4.991 -15.1,-9.928 -22.095,-15.641 -1.913,-1.39 -1.399,-4.034 -1.561,-6.065 0.749,-12.861 0.352,-25.831 -1.742,-38.557 -0.785,-4.377 -1.381,-8.854 -2.997,-13.024 -2.32,15.47 -3.8,31.057 -5.758,46.581 -21.337,-19.324 -36.039,-46.067 -40.353,-74.578 -3.069,-18.602 -1.778,-37.601 1.11,-56.13 1.11,-8.295 3.005,-16.508 3.357,-24.893 0.199,-3.204 -0.839,-6.273 -2.085,-9.161 3.845,-4.802 8.529,-8.827 12.69,-13.34 7.988,-10.388 18.502,-18.43 29.071,-26.021 26.934,-18.839 56.818,-33.334 87.965,-43.741 z" /><path
   style="fill:#ce8c11;stroke:#ce8c11;stroke-width:0.90259999"
   inkscape:connector-curvature="0"
   id="path859"
   d="m 552.17408,217.609 c 7.789,-27.284 21.661,-52.935 40.733,-73.974 1.246,2.888 2.284,5.957 2.085,9.161 -0.352,8.385 -2.247,16.598 -3.357,24.893 -2.888,18.53 -4.179,37.528 -1.11,56.13 4.314,28.512 19.017,55.255 40.353,74.578 -1.995,19.739 -4.025,39.487 -6.507,59.172 -2.013,14.017 -4.116,28.304 -9.937,41.337 -2.293,4.919 -5.027,9.739 -8.863,13.638 -6.029,-1.625 -11.39,-4.955 -17.275,-6.905 -5.163,-1.462 -9.477,2.491 -13.448,5.136 -12.744,-29.902 -22.167,-61.293 -27.357,-93.397 -5.66,-36.372 -5.543,-74.19 4.683,-109.769 z" /><path
   style="fill:#d1a26a;stroke:#d1a26a;stroke-width:0.90259999"
   inkscape:connector-curvature="0"
   id="path861"
   d="m 685.16608,159.313 c 33.349,-12.094 70.607,-11.634 104.173,-0.632 15.948,5.036 30.741,12.943 45.751,20.19 17.853,8.926 35.543,18.214 52.746,28.349 10.316,6.183 20.605,12.5 30.118,19.883 -7.807,3.989 -16.084,7.049 -23.891,11.056 -11.67,5.867 -23.602,11.986 -32.736,21.535 -1.336,1.471 -3.105,-0.271 -4.531,-0.65 -28.295,-13.213 -59.045,-22.672 -90.536,-22.293 -24.992,0.045 -49.758,7.157 -71.311,19.739 -2.834,-31.138 -13.286,-61.23 -28.476,-88.442 5.724,-3.861 12.276,-6.289 18.693,-8.735 z" /><path
   style="fill:#ab1a0b;stroke:#ab1a0b;stroke-width:0.90259999"
   inkscape:connector-curvature="0"
   id="path863"
   d="m 917.81908,237.529 c 3.231,-1.616 7.13,-3.394 10.641,-1.48 7.067,3.556 12.997,9.08 18.286,14.892 -14.531,1.318 -28.566,7.852 -38.702,18.376 -11.688,11.472 -18.295,27.817 -18.196,44.162 -0.045,11.381 3.123,22.772 9.071,32.483 8.854,14.639 23.882,25.47 40.696,28.882 13.222,2.663 27.375,1.291 39.59499,-4.567 10.036,-4.585 18.611,-12.094 24.94703,-21.084 9.91,-14.188 13.556,-32.591 9.648,-49.478 -0.966,-4.955 -3.06,-9.576 -4.766,-14.297 9.91,4.386 19.396,9.684 29.297,14.089 13.033,5.93 26.147,12.112 40.263,14.992 0.532,6.841 -0.406,13.701 -1.219,20.479 -0.677,3.637 -0.921,7.852 -3.836,10.515 -6.941,6.354 -15.145,11.138 -23.53,15.307 -35.814,17.221 -76.64503,20.633 -115.80702,17.817 -3.538,-0.334 -7.572,0.144 -10.416,-2.419 -8.89,-6.995 -19.216,-12.311 -30.245,-14.964 -9.351,-2.247 -19.64,-2.022 -28.376,2.329 -7.41,3.601 -13.232,9.838 -17.555,16.751 -1.57,2.455 -2.608,5.217 -4.314,7.582 -1.841,1.877 -4.386,2.825 -6.634,4.107 -15.289,8.249 -31.409,15.055 -48.233,19.441 -35.281,9.432 -72.512,8.457 -108.307,2.635 -11.399,-1.868 -22.772,-4.043 -33.981,-6.859 5.533,-7.654 10.569,-15.659 14.649,-24.189 8.033,-16.174 14.495,-33.097 19.965,-50.291 7.04,-23.169 12.5,-47.24 11.462,-71.6 9.486,-3.755 19.631,-5.506 29.604,-7.446 38.909,-6.562 79.931,-3.421 116.412,12.13 8.439,3.385 16.3,7.979 24.306,12.239 9.684,-9.089 20.127,-17.338 30.859,-25.145 7.845,-5.569 15.842,-10.994 24.416,-15.389 m -157.524,29.441 c -21.869,3.439 -41.617,18.096 -51.058,38.142 -8.556,17.555 -9.053,38.801 -1.309,56.726 9.793,23.566 33.62,40.579 59.172,41.77 19.405,1.255 39.279,-6.21 52.809,-20.235 10.587,-10.425 17.546,-24.486 19.432,-39.225 1.877,-13.241 -0.37,-26.987 -6.128,-39.036 -7.112,-14.919 -19.847,-27.032 -35.064,-33.467 -11.842,-5.189 -25.119,-6.525 -37.854,-4.675 z" /><path
   style="fill:#fffdff;stroke:#fffdff;stroke-width:0.90259999"
   inkscape:connector-curvature="0"
   id="path865"
   d="m 945.33808,261.718 c 9.964,-1.688 20.461,-0.578 29.69399,3.637 13.033,5.785 23.394,17.329 27.63603,30.958 3.592,11.237 3.069,23.71 -1.435,34.613 -4.86503,11.914 -14.45903,21.806 -26.22803,27.023 -13.71899,6.201 -30.23599,5.822 -43.62999,-1.065 -12.212,-6.164 -21.716,-17.446 -25.615,-30.561 -4.034,-13.069 -2.392,-27.718 4.377,-39.595 7.267,-12.997 20.516,-22.447 35.201,-25.01 m -28.07,46.599 c -4.296,11.309 0.072,25.037 10.045,31.851 7.726,5.542 18.403,6.525 27.05,2.617 6.598,-2.951 11.977,-8.592 14.48599,-15.389 2.518,-6.462 2.247,-13.791 -0.036,-20.281 0.307,4.585 -0.108,9.675 -3.60999,13.06 -5.461,6.264 -16.481,5.587 -21.147,-1.291 -4.928,-6.255 -2.69,-16.327 4.305,-20.046 4.937,-3.015 11.156,-1.868 15.777,1.182 -4.594,-5.858 -11.869,-9.269 -19.215,-9.847 -11.896,-0.891 -23.765,6.853 -27.655,18.144 z" /><path
   style="fill:#541301;stroke:#541301;stroke-width:0.90259999"
   inkscape:connector-curvature="0"
   id="path867"
   d="m 760.29508,266.97 c 12.735,-1.85 26.012,-0.514 37.853,4.675 15.217,6.435 27.952,18.548 35.064,33.467 5.758,12.049 8.006,25.795 6.128,39.036 -1.886,14.739 -8.845,28.801 -19.432,39.225 -13.529,14.026 -33.404,21.49 -52.809,20.235 -25.551,-1.191 -49.379,-18.205 -59.172,-41.77 -7.744,-17.925 -7.248,-39.171 1.309,-56.726 9.442,-20.045 29.19,-34.703 51.059,-38.142 m 5.362,13.34 c -20.001,2.473 -37.853,16.932 -44.496,35.958 -4.441,12.275 -4.305,26.138 0.424,38.314 5.28,13.899 16.49,25.398 30.236,31.075 11.616,4.874 24.911,5.542 36.969,1.886 14.125,-4.197 26.346,-14.351 33.052,-27.474 6.977,-13.34 7.997,-29.595 2.915,-43.747 -4.531,-12.771 -13.999,-23.665 -25.949,-30.028 -10.064,-5.451 -21.833,-7.401 -33.151,-5.984 z" /><path
   style="fill:#fffdff;stroke:#fffdff;stroke-width:0.90259999"
   inkscape:connector-curvature="0"
   id="path869"
   d="m 765.65708,280.31 c 11.318,-1.417 23.087,0.533 33.151,5.984 11.95,6.363 21.418,17.257 25.949,30.028 5.081,14.152 4.062,30.407 -2.915,43.747 -6.706,13.123 -18.927,23.277 -33.052,27.474 -12.058,3.655 -25.353,2.987 -36.969,-1.886 -13.746,-5.677 -24.956,-17.176 -30.236,-31.075 -4.729,-12.176 -4.865,-26.039 -0.424,-38.314 6.642,-19.026 24.495,-33.485 44.496,-35.958 m -0.019,28.882 c -8.168,0.839 -15.921,5.099 -20.867,11.679 -8.412,10.56 -8.213,26.779 0.442,37.131 8.123,10.452 23.458,14.242 35.498,8.719 12.925,-5.415 20.732,-20.66 17.248,-34.288 -2.96,-14.414 -17.726,-24.992 -32.321,-23.241 z" /><path
   style="fill:#541301;stroke:#541301;stroke-width:0.90259999"
   inkscape:connector-curvature="0"
   id="path871"
   d="m 917.26808,308.317 c 3.89,-11.291 15.759,-19.035 27.654,-18.141 7.347,0.578 14.621,3.989 19.215,9.847 -4.621,-3.051 -10.84,-4.197 -15.777,-1.182 -6.995,3.719 -9.233,13.791 -4.305,20.046 4.666,6.877 15.686,7.554 21.147,1.291 3.50199,-3.385 3.91699,-8.475 3.60999,-13.06 2.284,6.489 2.554,13.818 0.036,20.281 -2.50899,6.796 -7.88799,12.437 -14.48599,15.389 -8.646,3.908 -19.324,2.924 -27.05,-2.617 -9.971,-6.817 -14.34,-20.545 -10.044,-31.854 z" /><path
   style="fill:#541301;stroke:#541301;stroke-width:0.90259999"
   inkscape:connector-curvature="0"
   id="path873"
   d="m 765.63808,309.192 c 14.594,-1.751 29.36,8.827 32.321,23.241 3.484,13.629 -4.323,28.873 -17.248,34.288 -12.04,5.524 -27.375,1.733 -35.498,-8.719 -8.656,-10.352 -8.854,-26.571 -0.442,-37.131 4.946,-6.579 12.699,-10.839 20.867,-11.679 m 10.831,9.008 c -4.043,1.363 -7.058,5.415 -6.95,9.721 -0.244,5.524 4.775,10.524 10.28,10.37 5.858,0.181 11.047,-5.442 10.28,-11.282 -0.36,-6.436 -7.59,-11.066 -13.61,-8.809 z" /><path
   style="fill:#ce8c11;stroke:#ce8c11;stroke-width:0.90259999"
   inkscape:connector-curvature="0"
   id="path875"
   d="m 618.30508,422.951 c 11.435,-35.552 21.21,-72.078 23.069,-109.553 0.162,2.031 -0.352,4.675 1.561,6.065 6.995,5.713 14.585,10.65 22.095,15.641 -8.764,27.663 -22.248,53.711 -38.81,77.494 -2.527,3.529 -4.801,7.293 -7.915,10.353 z" /><path
   style="fill:#fffdff;stroke:#fffdff;stroke-width:0.90259999"
   inkscape:connector-curvature="0"
   id="path877"
   d="m 776.46908,318.2 c 6.02,-2.256 13.25,2.374 13.611,8.809 0.767,5.84 -4.423,11.463 -10.28,11.282 -5.506,0.153 -10.524,-4.847 -10.28,-10.37 -0.109,-4.306 2.906,-8.358 6.949,-9.721 z" /><path
   style="fill:#d1a26a;stroke:#d1a26a;stroke-width:0.90259999"
   inkscape:connector-curvature="0"
   id="path879"
   d="m 1087.6721,351.703 c 7.275,0.758 14.712,4.91 17.14,12.158 2.879,9.008 0.515,18.674 -2.753,27.248 -5.307,13.547 -12.176,26.743 -22.104,37.492 -4.224,4.332 -8.854,8.619 -14.649,10.686 6.228,-20.831 12.455,-41.68 17.573,-62.818 2.031,-8.168 3.646,-16.436 4.793,-24.766 z" /><path
   style="fill:#d1a26a;stroke:#d1a26a;stroke-width:0.90259999"
   inkscape:connector-curvature="0"
   id="path881"
   d="m 1019.3121,387.796 c 18.99,-7.193 36.797,-17.067 54.767,-26.445 -7.239,32.276 -20.524,63.305 -39.568,90.409 -16.21,23.133 -36.72503,43.215 -60.10103,59.072 -16.76999,11.499 -35.00099,20.795 -53.91899,28.214 -8.89,3.358 -17.826,6.724 -27.068,8.971 -32.131,5.442 -65.057,6.255 -97.422,2.365 -5.099,-0.65 -10.262,-1.038 -15.253,-2.274 -10.109,-8.529 -19.342,-18.141 -27.122,-28.846 -17.338,-23.593 -30.813,-49.749 -42.79,-76.384 -1.652,-3.457 -2.681,-7.22 -4.648,-10.515 -1.372,-1.39 -3.457,-1.733 -5.172,-2.536 1.327,-0.072 2.654,-0.117 3.989,-0.135 21.192,2.446 42.736,3.06 63.892,-0.108 23.81,-3.466 47.159,-12.338 65.86,-27.718 1.092,2.762 1.904,5.767 3.926,8.042 0.325,0 0.984,0.009 1.309,0.009 3.764,-11.056 9.693,-21.68 18.746,-29.261 10.352,-8.944 25.245,-12.284 38.422,-8.574 6.192,1.598 12.573,4.513 16.102,10.118 3.944,5.957 3.105,14.071 -0.587,19.938 -4.901,7.275 -12.546,12.302 -20.56,15.56 -10.948,4.567 -23.151,4.865 -34.73,2.996 -2.663,-0.939 -5.054,2.04 -3.52,4.414 2.933,3.755 8.222,3.989 12.6,4.179 14.531,0.19 29.505,-1.724 42.655,-8.249 7.491,-3.8 14.188,-9.721 17.537,-17.564 2.41,-5.334 2.816,-11.264 2.951,-17.04 18.232,4.802 37.195,5.876 55.96799,5.921 11.343,-0.236 23.00403,-0.407 33.73603,-4.559 m -243.00502,60.887 c -1.823,13.015 -3.096,26.273 -1.435,39.37 1.101,9.017 5.09,17.456 10.632,24.577 2.771,3.403 6.58,5.776 10.47,7.708 10.533,5.072 23.151,6.453 34.234,2.347 11.129,-4.179 19.91,-13.448 24.857,-24.107 -8.078,3.809 -15.813,8.448 -24.369,11.138 -8.006,2.563 -16.986,4.044 -25.037,0.876 -7.446,-2.861 -12.708,-9.513 -15.867,-16.634 -3.637,-8.313 -5.632,-17.311 -6.408,-26.337 6.986,3.881 14.107,7.554 21.68,10.163 19.568,7.004 40.696,10.497 61.428,7.961 14.297,-1.886 28.449,-7.022 39.704,-16.192 -9.224,2.356 -18.475,4.766 -27.988,5.623 -33.223,3.845 -67.963,-3.755 -95.725,-22.636 -1.988,-1.411 -3.965,-2.828 -6.176,-3.857 z" /><path
   style="fill:#bc8654;stroke:#bc8654;stroke-width:0.90259999"
   inkscape:connector-curvature="0"
   id="path883"
   d="m 621.78908,432.698 c 6.517,-6.291 12.934,-12.699 18.737,-19.658 1.191,1.2 2.32,2.608 4.007,3.159 19.64,6.525 40.001,10.596 60.471,13.493 -1.336,0.018 -2.663,0.063 -3.989,0.135 1.715,0.803 3.8,1.146 5.172,2.536 1.968,3.294 2.997,7.058 4.648,10.515 11.977,26.635 25.452,52.791 42.79,76.384 7.78,10.704 17.013,20.317 27.122,28.846 -42.682,-6.571 -83.767,-22.311 -120.681,-44.613 0.045,-3.448 0.334,-7.13 -1.534,-10.199 -1.417,-0.099 -1.859,1.381 -2.554,2.311 -7.293,11.724 -17.78,22.185 -31.075,26.725 -9.179,3.249 -19.405,2.419 -28.34,-1.2 -11.914,-4.847 -21.869,-13.421 -30.497,-22.781 -3.881,-4.323 -8.051,-8.647 -10.208,-14.152 -4.034,-9.757 -3.412,-20.939 0.208,-30.714 3.15,-8.538 8.692,-16.679 16.878,-21.048 7.293,-3.691 15.858,-2.672 23.457,-0.56 9.63,2.626 18.403,7.5 26.932,12.555 -0.543,-3.908 -1.201,-7.807 -1.544,-11.734 z" /><path
   style="fill:#fad01c;stroke:#fad01c;stroke-width:0.90259999"
   inkscape:connector-curvature="0"
   id="path885"
   d="m 1071.7231,447.509 c 16.526,-7.554 32.249,-18.809 41.148,-35.028 17.013,14.748 33.864,29.83 52.466,42.583 6.544,4.603 14.197,7.211 20.93,11.508 26.093,15.614 50.913,33.476 73.658,53.675 10.551,9.585 20.732,19.739 28.99,31.409 2.049,2.951 4.052,5.975 5.497,9.296 -4.982,-3.484 -9.278,-7.825 -14.008,-11.634 -24.116,-20.326 -49.812,-39.532 -79.1,-51.753 -15.957,-6.661 -33.259,-10.804 -50.634,-9.739 24.965,17.14 50.309,33.999 72.728,54.478 11.959,11.02 23.051,23.241 31.165,37.411 7.229,12.627 11.661,26.896 12.356,41.455 0.803,16.616 -2.59,33.187 -8.024,48.819 -12.564,-1.264 -25.145,-2.302 -37.7,-3.502 -1.011,-17.076 -4.892,-33.99 -11.869,-49.623 -10.56,-23.981 -26.4,-45.173 -43.097,-65.192 -12.744,-15.181 -26.283,-29.685 -40.092,-43.9 -8.502,-8.367 -16.544,-17.248 -25.849,-24.748 -14.062,-11.679 -29.875,-21.075 -46.274,-29.071 5.868,-2.247 12.032,-3.7 17.709,-6.444 z" /><path
   style="fill:#541301;stroke:#541301;stroke-width:0.90259999"
   inkscape:connector-curvature="0"
   id="path887"
   d="m 776.30708,448.683 c 2.211,1.029 4.188,2.446 6.173,3.854 27.763,18.882 62.502,26.481 95.725,22.636 9.513,-0.857 18.764,-3.267 27.988,-5.623 -11.255,9.17 -25.407,14.306 -39.704,16.192 -20.732,2.536 -41.861,-0.957 -61.428,-7.961 -7.573,-2.608 -14.694,-6.282 -21.68,-10.163 0.776,9.026 2.771,18.024 6.408,26.337 3.159,7.121 8.421,13.773 15.867,16.634 8.051,3.168 17.031,1.688 25.037,-0.876 8.556,-2.69 16.291,-7.329 24.369,-11.138 -4.946,10.659 -13.728,19.928 -24.857,24.107 -11.083,4.107 -23.701,2.726 -34.234,-2.347 -3.89,-1.931 -7.699,-4.305 -10.47,-7.708 -5.542,-7.121 -9.531,-15.56 -10.632,-24.577 -1.658,-13.094 -0.386,-26.352 1.438,-39.367 z" /><path
   style="fill:#ce8c11;stroke:#ce8c11;stroke-width:0.90259999"
   inkscape:connector-curvature="0"
   id="path889"
   d="m 1035.5221,478.088 c 6.534,-7.753 12.591,-15.894 18.493,-24.134 16.4,7.997 32.212,17.392 46.274,29.071 9.305,7.5 17.347,16.381 25.849,24.748 13.809,14.215 27.348,28.719 40.092,43.9 16.697,20.019 32.537,41.211 43.097,65.192 6.977,15.632 10.858,32.546 11.869,49.623 -9.739,-0.596 -19.477,-1.119 -29.207,-1.57 -15.19,-23.385 -36.012,-42.601 -58.423,-58.937 -49.496,-35.525 -108.361,-56.013 -168.01102,-66.374 2.73499,-3.015 6.57999,-4.639 9.76599,-7.094 22.465,-15.245 42.88103,-33.504 60.20103,-54.425 z" /><path
   style="fill:#ef3900;stroke:#ef3900;stroke-width:0.90259999"
   inkscape:connector-curvature="0"
   id="path891"
   d="m 646.15808,522.81 c 2.87,-2.798 5.199,-6.092 7.997,-8.962 19.983,19.631 45.922,31.752 72.024,41.021 27.862,9.784 56.807,16.327 86.023,20.461 2.311,0.199 3.782,2.211 5.415,3.637 8.403,8.231 17.293,15.984 25.488,24.423 -7.744,-3.71 -15.1,-8.186 -22.934,-11.733 -46.419,-22.14 -97.142,-34.189 -148.146,-39.46 -17.862,-1.625 -35.859,-3.069 -53.784,-2.049 0.126,1.155 -0.027,2.482 0.821,3.43 3.583,4.603 9.107,6.941 13.945,9.964 -24.504,14.278 -48.72,29.162 -71.519,46.076 -27.158,19.974 -52.682,42.375 -74.687,67.972 -18.214,21.129 -33.638,44.613 -45.85,69.687 -2.256,5.208 -7.239,8.349 -10.749,12.627 -17.636,19.712 -32.05,42.077 -45.236,64.939 -44.054,78.026 -70.562,165.692 -78.631,254.865 -3.52,41.382 -1.435,83.451 8.439,123.876 7.645,31.906 20.1,62.565 36.12,91.158 16.842,30.29 37.574,58.197 59.262,85.148 10.262,12.961 21.165,25.425 31.174,38.575 -12.428,-8.186 -24.035,-17.573 -35.741,-26.743 -47.809,-38.485 -91.574,-83.396 -121.864,-137.171 -16.219,-28.774 -28.241,-59.948 -34.965,-92.305 -8.999,-42.52 -8.773,-86.61 -2.563,-129.508 6.21,-43.458 18.205,-85.879 32.573,-127.288 9.459,-27.05 19.513,-53.964 32.465,-79.57 29.496,-58.991 70.03,-112.026 116.638,-158.516 48.892,-48.549 104.255,-90.509 163.869,-125.013 2.229,-1.471 4.973,-1.273 7.518,-1.336 8.511,-0.036 17.113,-1.002 25.163,-3.845 8.277,-2.934 15.633,-8.087 21.735,-14.36 z" /><path
   style="fill:#0ebad9;stroke:#0ebad9;stroke-width:0.90259999"
   inkscape:connector-curvature="0"
   id="path893"
   d="m 956.88208,546.367 c 38.01599,12.834 75.67102,26.788 112.67602,42.312 16.724,7.211 33.711,14.161 49.072,24.089 21.607,13.71 40.516,32.6 51.428,55.986 6.083,12.789 9.432,26.77 10.407,40.877 -9.477,-9.919 -22.122,-17.474 -36.057,-18.295 -9.351,-0.758 -18.692,1.3 -27.23,5.027 -1.399,-6.002 -0.695,-12.175 -0.704,-18.268 -0.045,-2.175 0.09,-4.495 -1.101,-6.408 -2.148,-0.785 -4.585,-1.625 -6.814,-0.704 -2.202,0.966 -2.852,3.502 -3.899,5.451 -4.179,-12.121 -14.251,-20.984 -24.811,-27.618 -14.612,-9.134 -31.03,-15.001 -47.7,-19.017 -17.149,-8.385 -33.63803,-18.187 -51.33803,-25.443 -11.21,-4.477 -23.00599,-9.197 -35.30799,-8.286 5.442,2.987 11.39,4.937 16.869,7.897 16.44499,8.231 32.26699,18.205 45.27202,31.328 9.558,9.757 17.627,21.77 19.82,35.498 2.771,16.102 -1.164,32.655 -8.376,47.096 -4.811,9.486 -10.813,18.412 -17.961,26.31 -1.092,1.471 -3.36703,2.744 -2.70803,4.883 1.85903,11.092 5.21703,21.842 8.15003,32.673 -9.35003,1.011 -18.42103,4.756 -25.41603,11.111 -10.632,9.567 -17.13999,23.033 -20.34399,36.815 -5.74,1.57 -11.715,0.903 -17.573,1.002 -2.013,-0.866 -3.303,-2.816 -5.127,-3.971 -6.399,-4.359 -14.098,-6.21 -21.625,-7.482 -6.417,-0.984 -12.925,-1.444 -19.405,-1.182 -9.486,0.478 -18.71,4.811 -24.974,11.968 -6.011,6.625 -9.54,15.082 -11.571,23.701 -4.928,2.329 -10.416,3.312 -15.56,5.117 -16.075,4.946 -32.158,9.847 -48.296,14.585 -1.76,-6.508 -2.148,-13.277 -3.746,-19.82 -7.527,-34.315 -22.203,-66.591 -39.09,-97.224 -23.042,-41.455 -50.552,-80.328 -80.734,-116.872 -1.209,-1.399 -2.365,-2.924 -3.944,-3.917 -1.751,-0.289 -3.529,0.126 -5.244,0.451 0.749,-1.877 1.525,-3.728 2.238,-5.605 -12.275,4.161 -20.93,14.504 -29.432,23.746 -28.71,33.521 -51.383,71.555 -76.284,107.865 -2.419,3.258 -4.585,6.805 -7.699,9.459 -2.392,1.995 -5.731,0.668 -7.735,-1.2 -6.589,-5.975 -10.217,-14.369 -16.084,-20.939 -1.3,-1.273 -3.06,-3.042 -5.036,-2.211 -2.455,1.67 -2.527,4.973 -2.085,7.627 0.975,5.497 3.502,10.551 6.137,15.425 4.856,9.062 11.363,17.049 17.519,25.227 -5.099,1.092 -10.289,2.004 -15.037,4.242 -4.486,1.877 -8.331,4.883 -12.121,7.861 -3.529,-3.917 -7.455,-7.609 -9.91,-12.347 -4.675,-8.782 -5.623,-19.152 -4.17,-28.882 2.283,-15.443 8.619,-29.956 16.066,-43.558 14.955,-26.734 34.144,-50.832 54.46,-73.658 9.26,-10.569 19.243,-20.47 29.189,-30.389 19.685,-19.739 40.624,-38.286 63.242,-54.614 17.997,2.816 35.588,7.798 53.052,12.889 46.879,14.107 92.603,31.716 138.083,49.722 13.475,5.289 26.824,10.894 40.408,15.903 8.123,-5.379 13.484,-13.773 18.854,-21.68 15.163,-23.703 27.438,-49.092 39.307,-74.553 z" /><path
   style="fill:#ef3900;stroke:#ef3900;stroke-width:0.90259999"
   inkscape:connector-curvature="0"
   id="path895"
   d="m 903.36908,567.089 c 10.587,-2.987 21.21,-5.966 31.969,-8.304 -7.879,12.834 -16.914,24.965 -25.154,37.583 -0.984,1.579 -2.148,3.06 -3.574,4.278 -0.93,-11.2 -2.203,-22.374 -3.241,-33.557 z" /><path
   style="fill:#0c9eb8;stroke:#0c9eb8;stroke-width:0.90259999"
   inkscape:connector-curvature="0"
   id="path897"
   d="m 646.47408,563.723 c 1.291,-0.912 2.59,-2.229 4.332,-1.832 5.479,0.451 10.984,0.993 16.372,2.193 -22.618,16.327 -43.557,34.875 -63.242,54.614 -9.946,9.919 -19.929,19.82 -29.189,30.389 -20.317,22.826 -39.505,46.924 -54.46,73.658 -7.446,13.602 -13.782,28.115 -16.066,43.558 -1.453,9.73 -0.505,20.1 4.17,28.882 2.455,4.738 6.381,8.43 9.91,12.347 -11.923,11.914 -17.428,28.485 -20.443,44.704 -10.073,-7.816 -20.939,-14.721 -30.01,-23.737 -8.294,-8.06 -13.926,-18.864 -15.298,-30.389 -1.76,-15.695 1.616,-31.436 6.535,-46.274 5.406,-14.45 14.603,-27.068 24.053,-39.117 19.396,-24.062 41.599,-45.67 64.298,-66.573 31.743,-28.956 64.975,-56.24 99.038,-82.423 z" /><path
   style="fill:#d1a26a;stroke:#d1a26a;stroke-width:0.90259999"
   inkscape:connector-curvature="0"
   id="path899"
   d="m 844.30608,577.063 c 15.181,-2.139 30.552,-3.132 45.534,-6.552 1.164,12.374 0.948,24.902 -0.027,37.285 -14.224,-9.161 -28.151,-18.791 -42.321,-28.034 -1.192,-0.75 -2.248,-1.679 -3.186,-2.699 z" /><path
   style="fill:#0c9eb8;stroke:#0c9eb8;stroke-width:0.90259999"
   inkscape:connector-curvature="0"
   id="path901"
   d="m 663.92008,636.036 c 1.715,-0.325 3.493,-0.74 5.244,-0.451 1.579,0.993 2.735,2.518 3.944,3.917 30.182,36.545 57.692,75.418 80.734,116.872 16.887,30.633 31.563,62.908 39.09,97.224 1.598,6.544 1.986,13.313 3.746,19.82 -3.249,1.02 -6.534,1.931 -9.775,2.96 -3.015,-12.717 -11.823,-23.069 -21.95,-30.895 -9.323,-7.365 -19.748,-13.15 -30.371,-18.376 -1.57,-0.551 -1.083,-2.419 -1.2,-3.655 0.298,-22.916 -1.58,-45.994 -7.112,-68.279 -4.504,-17.943 -11.724,-35.434 -22.889,-50.3 -13.34,-17.988 -33.304,-31.581 -55.679,-34.929 5.459,-11.263 10.767,-22.662 16.218,-33.908 z" /><path
   style="fill:#ef3900;stroke:#ef3900;stroke-width:0.90259999"
   inkscape:connector-curvature="0"
   id="path903"
   d="m 1042.7421,648.067 c 15.822,7.771 31.129,16.661 45.85,26.364 4.964,3.601 10.524,6.941 13.89,12.212 0.523,5.749 -1.092,11.463 -1.886,17.131 -3.538,19.279 -8.304,38.314 -13.277,57.258 -20.127,-8.764 -39.974,-18.223 -60.002,-27.23 7.419,-12.798 13.304,-26.589 16.138,-41.157 3.033,-14.667 2.897,-30.02 -0.713,-44.578 z" /><path
   style="fill:#03d4fa;stroke:#03d4fa;stroke-width:0.90259999"
   inkscape:connector-curvature="0"
   id="path905"
   d="m 1115.3711,671.687 c 1.191,1.913 1.056,4.233 1.101,6.408 0.01,6.092 -0.695,12.266 0.704,18.268 -0.496,0.244 -1.471,0.731 -1.959,0.984 -0.09,-8.556 -0.369,-17.131 0.154,-25.66 z" /><path
   style="fill:#ac2801;stroke:#ac2801;stroke-width:0.90259999"
   inkscape:connector-curvature="0"
   id="path907"
   d="m 636.32908,685.352 c 2.293,-3.159 4.062,-6.643 6.21,-9.892 10.208,7.058 18.927,15.993 27.339,25.046 16.011,17.97 30.037,37.835 40.588,59.506 7.618,15.867 13.565,32.961 14.062,50.715 0.009,5.325 -0.135,10.777 -1.805,15.885 -14.405,2.834 -28.385,7.843 -41.319,14.793 -5.849,3.195 -11.67,6.868 -15.524,12.446 -6.417,-2.753 -12.302,-6.562 -18.196,-10.253 -20.199,-13.177 -39.406,-27.79 -58.441,-42.583 -8.728,-6.914 -17.591,-13.665 -26.048,-20.903 8.674,-11.426 17.934,-22.411 26.743,-33.738 15.686,-20.163 31.688,-40.11 46.391,-61.022 z" /><path
   style="fill:#ef3900;stroke:#ef3900;stroke-width:0.90259999"
   inkscape:connector-curvature="0"
   id="path909"
   d="m 1199.3451,675.351 c 34.568,3.105 69.064,9.757 101.511,22.302 29.73,11.517 57.773,28.71 78.983,52.782 19.234,21.589 32.176,48.503 37.853,76.799 5.289,26.31 5.181,53.675 -0.108,79.976 -9.2241,20.08185 -14.4503,40.01911 -27.5653,38.85511 -16.6145,-14.87498 -24.3281,-31.71148 -38.9077,-55.85011 -17.401,-25.163 -39.352,-47.366 -65.156,-63.91 -25.66,-16.797 -54.849,-27.357 -84.498,-34.622 -8.186,-2.094 -16.436,-3.917 -24.514,-6.39 7.356,-12.419 14.116,-25.299 18.322,-39.171 3.664,-11.796 5.894,-24.08 6.219,-36.436 0.461,-11.509 -2.139,-22.836 -2.139,-34.335 z"
   sodipodi:nodetypes="ccccccccccccc" /><path
   style="fill:#bc8654;stroke:#bc8654;stroke-width:0.90259999"
   inkscape:connector-curvature="0"
   id="path911"
   d="m 1115.4251,714.333 c 6.363,-1.146 12.789,-2.076 19.27,-1.968 1.661,5.569 -1.652,10.632 -3.511,15.65 -6.535,17.076 -13.502,33.972 -20.461,50.868 -7.139,16.652 -13.881,33.53 -22.745,49.361 -0.542,1.083 -1.002,2.211 -1.39,3.376 -3.899,-6.074 -8.71,-11.481 -14.26,-16.066 9.314,-10.596 17.392,-22.257 24.36,-34.523 9.414,-16.77 16.634,-35.137 18.358,-54.424 0.307,-4.088 -0.027,-8.194 0.379,-12.274 z" /><path
   style="fill:#d1a26a;stroke:#d1a26a;stroke-width:0.90259999"
   inkscape:connector-curvature="0"
   id="path913"
   d="m 1134.6951,712.365 c 16.354,-0.37 34.442,4.901 43.928,19.179 -3.682,14.215 -10.226,27.492 -16.977,40.471 -11.995,22.293 -25.624,43.702 -40.615,64.091 -3.628,5.46 -6.525,11.39 -10.298,16.77 -5.334,7.861 -12.591,14.82 -21.661,18.087 -8.114,3.051 -17.022,3.015 -25.488,1.733 -0.099,-9.739 1.706,-19.676 -0.469,-29.27 -0.361,-2.888 -3.8,-4.585 -6.21,-2.852 -3.61,2.834 -4.63,7.627 -6.525,11.598 -5.19,11.553 -10.65,22.988 -16.273,34.324 -3.556,-1.417 -6.047,-5.027 -5.487,-8.917 0.83,-6.48 3.249,-12.627 4.756,-18.963 2.112,-8.619 4.937,-17.239 4.973,-26.183 0.226,-2.419 -1.715,-3.953 -3.321,-5.352 -2.834,1.57 -4.332,4.567 -6.228,7.058 -7.121,10.127 -14.441,20.19 -20.335,31.102 -1.877,3.051 -1.95,8.502 -6.417,8.872 -2.59003,-4.107 -1.047,-9.143 -0.018,-13.493 4.242,-14.712 10.515,-28.738 16.616,-42.745 -2.599,-2.139 -5.551,-3.764 -8.52,-5.298 -6.354,8.8 -12.66303,17.645 -18.64703,26.698 -3.719,5.695 -7.645,11.309 -10.388,17.564 -0.641,1.191 -1.155,2.825 -2.735,2.997 -2.157,0.56 -3.89,-1.471 -4.125,-3.421 -0.56,-3.809 1.219,-7.446 2.969,-10.713 5.939,-10.443 10.397,-21.688 16.842,-31.86 3.71,-5.704 7.94303,-11.688 14.40503,-14.477 4.161,-1.913 8.764,-0.352 12.834,1.029 11.706,4.242 22.393,10.84 32.492,18.042 5.361,3.881 10.542,8.078 14.946,13.042 3.123,3.556 7.645,6.11 12.473,6.065 1.76,-0.027 3.773,-0.542 4.793,-2.112 0.298,-1.264 0.37,-2.554 0.605,-3.809 0.388,-1.164 0.848,-2.293 1.39,-3.376 8.863,-15.831 15.605,-32.709 22.745,-49.361 6.959,-16.896 13.926,-33.792 20.461,-50.868 1.857,-5.02 5.17,-10.083 3.509,-15.652 z" /><path
   style="fill:#ac2801;stroke:#ac2801;stroke-width:0.90259999"
   inkscape:connector-curvature="0"
   id="path915"
   d="m 1014.7721,749.686 c 2.888,-2.987 5.867,-5.903 8.881,-8.764 3.61,4.576 6.607,9.657 10.867,13.71 10.894,11.49 26.346,18.611 42.267,18.62 -0.794,6.119 -3.529,11.769 -5.551,17.555 -2.202,5.587 -4.612,11.11 -7.464,16.409 -4.116,-3.276 -7.04,-7.78 -11.038,-11.192 -6.128,-5.831 -12.952,-11.3 -20.984,-14.197 -4.161,-1.589 -8.692,-1.218 -12.934,-0.235 -3.475,-8.168 -4.034,-17.185 -4.991,-25.904 0.01,-1.985 -0.75,-4.485 0.947,-6.002 z" /><path
   style="fill:#ef3900;stroke:#ef3900;stroke-width:0.90259999"
   inkscape:connector-curvature="0"
   id="path917"
   d="m 415.22008,795.464 c 3.168,-4.296 6.002,-8.872 9.621,-12.825 -1.67,15.353 2.473,30.976 10.407,44.126 11.381,18.827 29.676,32.411 49.144,42.05 8.24,4.215 16.914,7.464 25.551,10.759 -26.021,22.501 -41.635,54.623 -50.516,87.35 -5.641,21.436 -8.944,43.449 -10.443,65.544 -1.661,10.867 -0.785,21.887 -1.02,32.835 0.171,10.948 -0.343,21.914 0.334,32.844 1.2,9.125 0.993,18.367 2.166,27.501 4.738,57.276 16.066,113.777 28.584,169.79 -10.217,14.116 -20.028,28.611 -27.745,44.271 -7.572,15.181 -13.863,31.563 -14.053,48.747 -5.054,-3.8 -8.926,-8.881 -13.222,-13.457 -22.699,-26.346 -41.779,-55.688 -57.989,-86.402 -14.649,-28.088 -26.635,-57.674 -34.234,-88.46 -5.551,-22.817 -8.683,-46.31 -8.06,-69.822 1.688,-43.052 4.459,-86.167 11.472,-128.723 7.229,-44.984 19.17,-89.389 37.655,-131.106 11.616,-26.311 25.84,-51.465 42.348,-75.022 z" /><path
   style="fill:#902b0e;stroke:#902b0e;stroke-width:0.90259999"
   inkscape:connector-curvature="0"
   id="path919"
   d="m 1168.4331,798.713 c 0.884,-1.273 2.509,-1.516 3.962,-1.246 19.929,3.764 39.839,8.385 58.702,16.002 29.839,11.499 56.1456,26.33725 78.7006,49.03625 10.37,11.165 20.118,23.06 27.384,36.518 14.226,19.09666 17.0861,25.05904 39.3775,59.13474 -67.2642,70.32051 -112.6177,118.22201 -183.201,158.82081 -53.4805,-62.6793 -61.3531,-82.9775 -87.8781,-147.7718 -4.143,-6.183 -6.841,-13.15 -10.479,-19.613 -5.433,-9.784 -10.1,-19.965 -15.353,-29.839 -3.746,-6.598 -7.031,-13.439 -10.424,-20.217 -2.193,-4.459 -4.865,-8.692 -6.345,-13.448 5.487,0.803 11.174,1.218 16.58,-0.334 7.031,-2.094 13.845,-4.982 20.181,-8.701 5,-2.933 10.614,-5.46 14.008,-10.397 4.287,-5.93 8.583,-11.851 13.159,-17.564 5.09,-6.291 11.246,-11.688 16.084,-18.169 6.85,-11.976 16.724,-21.733 25.542,-32.212 z"
   sodipodi:nodetypes="cccccccccccccccccc" /><path
   style="fill:#d1a26a;stroke:#d1a26a;stroke-width:0.90259999"
   inkscape:connector-curvature="0"
   id="path921"
   d="m 535.08908,823.588 c 7.076,-5.876 15.344,-10.668 24.378,-12.663 2.139,1.399 3.574,3.628 5.388,5.397 17.708,18.439 40.272,31.698 64.109,40.57 13.141,4.711 26.689,8.764 40.57,10.406 3.962,-2.148 7.365,-5.235 11.363,-7.374 9.152,-5.217 18.737,-9.964 29.008,-12.509 9.251,-2.329 19.116,-1.038 27.808,2.717 7.175,3.168 14.928,6.246 19.784,12.744 7.591,9.793 12.374,21.598 15.172,33.593 -6.417,-5.84 -10.957,-13.358 -15.407,-20.714 -4.025,-6.589 -10.867,-10.795 -17.717,-13.945 -9.892,-4.269 -20.822,-6.625 -31.617,-5.497 -5.045,0.614 -10.253,2.383 -13.863,6.092 0.009,0.37 0.027,1.11 0.036,1.48 10.136,2.942 20.948,0.623 31.274,2.265 6.562,2.238 10.343,8.683 13.484,14.45 7.536,15.208 11.86,31.833 15.019,48.449 -3.583,-1.498 -7.374,-2.41 -11.011,-3.728 -3.276,-4.414 -4.702,-9.874 -6.76,-14.901 -3.655,-9.549 -6.706,-19.36 -11.038,-28.629 -2.744,-6.219 -10.533,-7.13 -16.49,-6.471 -8.962,1.218 -17.988,4.107 -25.281,9.576 -5.397,4.125 -6.219,11.823 -3.61,17.789 -5.74,-1.516 -10.686,-4.901 -16.011,-7.383 -35.416,-18.692 -70.237,-38.485 -104.995,-58.359 -7.862,-4.465 -15.533,-9.267 -23.593,-13.355 z" /><path
   style="fill:#bc8654;stroke:#bc8654;stroke-width:0.90259999"
   inkscape:connector-curvature="0"
   id="path923"
   d="m 515.37708,857.344 c 2.22,-13.087 9.721,-25.118 19.712,-33.756 8.06,4.089 15.732,8.89 23.593,13.358 34.758,19.874 69.578,39.667 104.995,58.359 5.325,2.482 10.271,5.867 16.011,7.383 0.523,0.235 1.002,0.596 1.408,1.065 3.998,3.655 11.038,2.798 13.791,8.051 -0.948,2.96 -1.832,5.939 -2.852,8.881 -5.397,2.338 -10.713,4.937 -16.174,7.094 -4.296,0.018 -7.807,-3.159 -11.192,-5.452 -7.979,-6.083 -15.19,-13.096 -22.176,-20.271 -2.392,-2.726 -6.173,-3.114 -9.414,-4.179 -21.327,-6.408 -42.565,-13.114 -63.667,-20.226 -18.204,-6.237 -36.399,-12.573 -54.035,-20.307 z" /><path
   style="fill:#03d2f7;stroke:#03d2f7;stroke-width:0.90259999"
   inkscape:connector-curvature="0"
   id="path925"
   d="m 943.23508,830.682 c 5.858,-0.099 11.833,0.569 17.573,-1.002 -0.153,0.415 -0.451,1.255 -0.605,1.67 -5.822,0.542 -11.724,0.235 -17.564,0.126 z" /><path
   style="fill:#00a7c7;stroke:#00a7c7;stroke-width:0.90259999"
   inkscape:connector-curvature="0"
   id="path927"
   d="m 894.78608,849.97 c 2.681,-4.242 7.482,-6.715 12.32,-7.591 6.3,-0.957 12.825,-0.208 18.755,2.157 -0.686,3.547 -1.643,7.022 -2.645,10.497 -4.35,-1.57 -9.125,-3.52 -13.764,-2.031 -2.518,0.758 -3.349,4.558 -0.939,5.975 4.72,3.033 10.786,3.601 14.982,7.554 5.659,4.793 5.957,14.179 1.146,19.658 -3.069,3.493 -7.672,5.226 -12.167,5.903 -7.094,0.848 -14.504,0.217 -21.03,-2.834 0.596,-3.628 1.552,-7.175 2.446,-10.731 5.226,1.868 10.713,4.35 16.4,3.006 1.977,-0.424 3.601,-2.563 2.924,-4.594 -0.848,-2.509 -3.709,-3.222 -5.885,-4.125 -4.766,-1.643 -9.748,-3.773 -12.708,-8.042 -3.094,-4.342 -2.606,-10.443 0.165,-14.802 z" /><path
   style="fill:#0ebad9;stroke:#0ebad9;stroke-width:0.90259999"
   inkscape:connector-curvature="0"
   id="path929"
   d="m 960.74508,881.586 c 5.623,-1.354 11.31799,-2.581 16.61599,-4.991 2.256,7.816 6.859,15.614 14.648,18.927 5.009,2.464 10.68603,1.986 16.08403,1.742 3.231,2.446 5.379,6.182 8.601,8.746 4.396,3.719 9.585,8.475 15.831,7.031 -0.163,35.498 2.428,71.077 -0.686,106.529 -1.291,10.325 -1.823,21.445 -7.69,30.407 -17.32,-4.63 -34.98303,-8.529 -52.98903,-8.881 -21.94099,-0.713 -43.95499,2.897 -64.69499,10.027 -24.171,8.313 -46.464,21.156 -67.728,35.155 -5.632,-14.793 -11.778,-29.396 -16.363,-44.559 -10.587,-33.286 -17.437,-67.692 -21.3,-102.386 -0.388,-4.531 -0.695,-9.125 -2.274,-13.43 25.696,-7.509 51.482,-14.721 77.268,-21.932 11.12,10.316 26.869,17.708 42.231,13.881 8.34,-2.392 16.201,-6.354 23.593,-10.867 7.13,-4.323 12.257,-11.246 15.47,-18.845 1.153,-2.149 1.614,-4.839 3.383,-6.554 z" /><path
   style="fill:#902b0e;stroke:#902b0e;stroke-width:0.90259999"
   inkscape:connector-curvature="0"
   id="path931"
   d="m 509.94308,879.574 c 10.091,3.439 20.488,5.93 30.786,8.674 -0.776,4.188 -0.713,8.457 -1.128,12.69 -1.101,10.551 -0.072,21.192 -1.255,31.743 -0.361,24.658 -0.045,49.316 -0.153,73.983 0.009,3.601 0.361,7.193 0.614,10.804 0.523,7.121 -0.135,14.288 0.551,21.409 0.903,7.879 0.415,15.831 1.246,23.719 1.462,25.172 3.691,50.309 7.121,75.301 2.744,18.286 5.614,36.59 10.352,54.479 4.134,16.183 9.116,32.294 16.914,47.123 2.654,5.271 6.264,9.982 9.107,15.163 -20.696,2.085 -41.761,4.332 -61.175,12.275 -12.609,4.82 -24.225,11.914 -34.776,20.271 -3.114,2.654 -5.957,5.614 -9.098,8.231 -12.518,-56.013 -23.846,-112.513 -28.584,-169.79 -1.173,-9.134 -0.966,-18.376 -2.166,-27.501 -0.677,-10.93 -0.162,-21.896 -0.334,-32.844 0.235,-10.948 -0.641,-21.968 1.02,-32.835 1.498,-22.095 4.802,-44.108 10.443,-65.544 8.88,-32.729 24.495,-64.851 50.515,-87.351 z" /><path
   style="fill:#ac2801;stroke:#ac2801;stroke-width:0.90259999"
   inkscape:connector-curvature="0"
   id="path933"
   d="m 1053.7441,894.33 c 2.753,-3.556 4.874,-7.672 8.322,-10.641 0.198,0.596 0.605,1.796 0.812,2.401 1.48,4.756 4.152,8.99 6.345,13.448 3.394,6.778 6.679,13.62 10.424,20.217 5.253,9.874 9.919,20.055 15.353,29.839 3.637,6.462 6.336,13.43 10.479,19.613 0.849,1.137 87.6685,146.3047 87.5595,147.6947 -31.624,36.9493 -50.7746,39.4015 -107.6534,74.843 -27.32,23.232 -63.6101,34.6453 -98.92713,40.3493 14.39603,-30.452 26.03003,-62.195 35.25403,-94.588 20.28,-71.131 29.848,-145.763 23.855,-219.647 -0.144,-3.583 -1.263,-7.211 -0.632,-10.759 2.491,-4.538 5.93,-8.482 8.809,-12.77 z"
   sodipodi:nodetypes="cccccccccccccc" /><path
   style="fill:#ac2801;stroke:#ac2801;stroke-width:0.90259999"
   inkscape:connector-curvature="0"
   id="path935"
   d="m 540.73008,888.247 0.099,-0.605 c 6.435,4.567 14.107,6.733 21.652,8.683 23.828,5.758 48.332,7.906 72.737,9.414 2.311,9.242 5.37,18.421 10.488,26.544 5.235,8.331 13.827,15.334 23.981,15.921 9.558,0.912 18.701,-2.834 26.833,-7.482 -8.24,17.239 -14.215,35.57 -17.483,54.406 -4.107,24.053 -3.213,49.776 7.654,72.033 -9.739,8.872 -17.988,19.495 -23.178,31.662 -8.656,19.179 -10.614,40.417 -11.634,61.185 -0.081,8.556 -3.186,16.797 -2.771,25.398 0.578,16.824 6.805,33.386 17.275,46.545 2.663,2.951 5.488,6.507 9.612,7.266 4.107,-1.083 5.93,-5.506 8.087,-8.755 9.08,-16.273 16.093,-33.593 24.866,-50.02 1.832,-3.24 3.213,-6.76 5.596,-9.648 9.838,11.625 21.201,21.788 32.149,32.339 14.721,13.547 29.451,27.095 44.433,40.344 4.612,4.395 9.838,8.15 14.062,12.943 -12.383,1.534 -24.766,3.033 -37.158,4.513 -10.181,1.065 -20.38,2.744 -30.651,2.031 -51.121,-2.274 -102.215,-5.072 -153.282,-8.303 -2.843,-5.181 -6.453,-9.892 -9.107,-15.163 -7.798,-14.829 -12.78,-30.94 -16.914,-47.123 -4.738,-17.889 -7.609,-36.193 -10.352,-54.479 -3.43,-24.992 -5.659,-50.128 -7.121,-75.301 -0.83,-7.888 -0.343,-15.84 -1.246,-23.719 -0.686,-7.121 -0.027,-14.287 -0.551,-21.409 -0.253,-3.61 -0.605,-7.202 -0.614,-10.804 0.108,-24.667 -0.208,-49.325 0.153,-73.983 1.182,-10.551 0.153,-21.192 1.255,-31.743 0.417,-4.233 0.354,-8.502 1.13,-12.69 z" /><path
   style="fill:#d1a26a;stroke:#d1a26a;stroke-width:0.90259999"
   inkscape:connector-curvature="0"
   id="path937"
   d="m 691.71908,896.894 c 4.414,-3.015 9.558,-5.352 15.001,-5.28 4.17,0.199 6.507,4.269 8.096,7.627 3.619,8.466 4.657,17.726 5.659,26.797 0.532,6.814 1.038,13.665 0.677,20.506 -2.789,-2.022 -4.152,-5.262 -5.605,-8.249 -4.531,-9.964 -7.852,-20.425 -11.959,-30.552 -0.686,-1.805 -1.697,-3.457 -3.222,-4.63 -2.997,1.995 -4.161,5.533 -5.479,8.692 -2.753,-5.253 -9.793,-4.395 -13.791,-8.051 4.151,-1.237 7.112,-4.523 10.623,-6.86 z" /><path
   style="fill:#0c9eb8;stroke:#0c9eb8;stroke-width:0.90259999"
   inkscape:connector-curvature="0"
   id="path941"
   d="m 773.18408,933.24 c 8.412,-2.789 17.04,-5.036 25.615,-7.338 1.579,4.305 1.886,8.899 2.274,13.43 3.863,34.694 10.713,69.1 21.3,102.386 4.585,15.163 10.731,29.766 16.363,44.559 -14.324,10.19 -28.394,20.786 -41.445,32.582 -10.488,9.513 -20.975,19.216 -29.496,30.597 -21.228,-20.353 -41.003,-42.89 -54.244,-69.362 -7.464,-14.639 -12.843,-30.362 -15.668,-46.554 -4.765,-27.023 -2.22,-55.137 6.192,-81.194 5.343,5.506 10.47,11.67 17.663,14.82 2.997,1.273 6.986,1.516 9.432,-1.011 5.867,-5.758 9.748,-13.195 12.591,-20.831 5.533,1.029 11.426,2.717 16.95,0.713 5.758,-2.382 8.908,-8.068 12.473,-12.797 z" /><path
   style="fill:#d1a26a;stroke:#d1a26a;stroke-width:0.90259999"
   inkscape:connector-curvature="0"
   id="path957"
   d="m 928.01808,1071.801 c 15.768,-6.011 32.637,-8.331 49.36099,-9.766 14.856,-1.02 29.77603,-1.02 44.64103,-0.316 -3.574,18.322 -8.782,36.301 -13.71,54.307 -6.634,23.475 -13.75503,46.816 -21.05703,70.102 -3.863,11.571 -7.139,23.367 -11.462,34.785 -5.614,-17.302 -10.49699,-34.848 -15.94799,-52.204 -6.453,-21.147 -13.015,-42.258 -19.784,-63.315 -3.765,-11.282 -7.276,-22.681 -12.041,-33.593 z" /><path
   style="fill:#d1a26a;stroke:#d1a26a;stroke-width:0.90259999"
   inkscape:connector-curvature="0"
   id="path959"
   d="m 883.46808,1083.272 c 10.84,-4.513 22.149,-8.484 33.918,-9.396 11.183,36.942 21.255,74.226 29.974,111.827 5.478,24.071 10.524,48.287 13.593,72.809 0.65,6.192 1.543,12.392 1.363,18.638 -6.706,3.06 -11.76,8.665 -18.25,12.058 -3.475,1.787 -6.896,-1.173 -9.36,-3.348 -10.127,-9.648 -16.715,-22.212 -23.575,-34.216 -15.813,-29.387 -29.216,-60.002 -41.752,-90.915 -6.995,-17.374 -13.89,-34.821 -19.45,-52.718 -0.659,-1.85 -1.48,-3.628 -2.32,-5.388 11.318,-7.527 23.394,-13.935 35.859,-19.351 z" /><path
   style="fill:#bc8654;stroke:#bc8654;stroke-width:0.90259999"
   inkscape:connector-curvature="0"
   id="path961"
   d="m 816.29008,1124.339 c 10.163,-7.609 20.38,-15.244 31.319,-21.716 0.839,1.76 1.661,3.538 2.32,5.388 5.56,17.898 12.455,35.344 19.45,52.718 12.537,30.913 25.94,61.527 41.752,90.915 6.859,12.004 13.448,24.568 23.575,34.216 2.464,2.175 5.885,5.136 9.36,3.348 6.489,-3.393 11.544,-8.998 18.25,-12.058 0.569,9.784 0.533,20.741 -5.993,28.738 -5.027,6.697 -13.963,9.107 -22.004,8.177 -14.107,-1.489 -27.05,-7.934 -39.379,-14.567 -13.051,-7.383 -25.768,-15.443 -37.61,-24.658 -4.025,-3.394 -8.529,-6.724 -10.668,-11.706 5.09,-5.199 10.127,-10.479 15.488,-15.38 3.989,0.731 7.419,3.303 11.165,4.829 8.322,3.737 16.345,8.168 24.829,11.526 -1.246,-4.116 -1.399,-8.989 -4.224,-12.356 -33.377,-24.847 -66.889,-49.587 -98.948,-76.131 -6.444,-5.569 -13.195,-10.912 -18.593,-17.537 12.582,-12.058 26.111,-23.114 39.911,-33.746 z" />
<path
   id="path860"
   style="fill:#541301;stroke:#541301;stroke-width:0.90259999"
   d="m 883.46608,1083.272 c -12.464,5.415 -24.541,11.824 -35.859,19.351 -10.939,6.471 -21.156,14.107 -31.319,21.716 -13.8,10.632 -27.329,21.688 -39.911,33.747 5.397,6.625 12.148,11.968 18.593,17.537 32.059,26.544 65.571,51.283 98.948,76.131 2.825,3.367 2.978,8.24 4.224,12.356 -8.484,-3.357 -16.508,-7.789 -24.829,-11.526 -3.746,-1.525 -7.175,-4.098 -11.165,-4.829 -5.361,4.901 -10.397,10.181 -15.488,15.38 2.139,4.982 6.643,8.313 10.668,11.706 11.842,9.215 24.559,17.275 37.61,24.658 12.329,6.634 25.272,13.078 39.379,14.567 8.042,0.93 16.977,-1.48 22.004,-8.177 6.525,-7.997 6.562,-18.954 5.993,-28.738 0.181,-6.246 -0.713,-12.446 -1.363,-18.638 -3.069,-24.523 -8.114,-48.738 -13.593,-72.809 -8.719,-37.601 -18.791,-74.885 -29.974,-111.827 -11.77,0.911 -23.079,4.882 -33.918,9.395 z m 44.55,-11.471 c 4.766,10.912 8.276,22.311 12.04,33.593 6.769,21.057 13.331,42.167 19.784,63.315 5.451,17.356 10.33399,34.902 15.94799,52.204 4.323,-11.417 7.6,-23.214 11.462,-34.785 7.302,-23.286 14.42303,-46.626 21.05703,-70.102 4.928,-18.006 10.136,-35.985 13.71,-54.307 -14.865,-0.704 -29.78403,-0.704 -44.64103,0.316 -16.72399,1.435 -33.59199,3.755 -49.35999,9.766 m 32.727,-190.215 c -1.769,1.715 -2.229,4.404 -3.385,6.553 -3.213,7.6 -8.34,14.522 -15.47,18.845 -7.392,4.513 -15.253,8.475 -23.593,10.867 -15.362,3.827 -31.111,-3.565 -42.231,-13.881 -25.786,7.211 -51.572,14.423 -77.268,21.932 -8.574,2.301 -17.203,4.549 -25.615,7.338 -3.565,4.729 -6.715,10.415 -12.473,12.798 -5.524,2.004 -11.417,0.316 -16.95,-0.713 -2.843,7.636 -6.724,15.073 -12.591,20.831 -2.446,2.527 -6.435,2.284 -9.432,1.011 -7.193,-3.15 -12.32,-9.315 -17.663,-14.82 -8.412,26.057 -10.957,54.172 -6.192,81.194 2.825,16.192 8.204,31.915 15.668,46.554 13.241,26.472 33.016,49.009 54.244,69.362 8.52,-11.381 19.008,-21.084 29.496,-30.597 13.051,-11.796 27.122,-22.392 41.445,-32.582 21.264,-13.999 43.557,-26.842 67.728,-35.155 20.741,-7.13 42.754,-10.74 64.69499,-10.027 18.006,0.352 35.66903,4.251 52.98903,8.881 5.867,-8.962 6.399,-20.082 7.69,-30.407 3.114,-35.452 0.523,-71.031 0.686,-106.529 -6.246,1.444 -11.435,-3.312 -15.831,-7.031 -3.222,-2.563 -5.37,-6.3 -8.601,-8.746 -5.397,0.244 -11.07403,0.722 -16.08403,-1.742 -7.789,-3.312 -12.392,-11.111 -14.648,-18.927 -5.296,2.41 -10.99099,3.637 -16.61399,4.991 m -65.959,-31.616 c -2.771,4.359 -3.258,10.461 -0.163,14.802 2.96,4.269 7.943,6.399 12.708,8.042 2.175,0.903 5.036,1.616 5.885,4.125 0.677,2.031 -0.948,4.17 -2.924,4.594 -5.686,1.345 -11.174,-1.137 -16.4,-3.006 -0.894,3.556 -1.85,7.103 -2.446,10.731 6.526,3.051 13.935,3.682 21.03,2.834 4.495,-0.677 9.098,-2.41 12.167,-5.903 4.811,-5.479 4.513,-14.865 -1.146,-19.658 -4.197,-3.953 -10.262,-4.522 -14.982,-7.554 -2.41,-1.417 -1.579,-5.217 0.939,-5.975 4.639,-1.489 9.414,0.46 13.764,2.031 1.002,-3.475 1.959,-6.95 2.645,-10.497 -5.93,-2.365 -12.455,-3.114 -18.755,-2.157 -4.84,0.876 -9.642,3.349 -12.322,7.591 m -359.697,-26.382 c -9.991,8.638 -17.492,20.669 -19.712,33.756 17.636,7.735 35.832,14.071 54.036,20.308 21.102,7.112 42.339,13.818 63.667,20.226 3.24,1.065 7.022,1.453 9.414,4.179 6.986,7.175 14.197,14.188 22.176,20.271 3.385,2.293 6.896,5.47 11.192,5.452 5.46,-2.157 10.777,-4.757 16.174,-7.094 1.02,-2.942 1.904,-5.921 2.852,-8.881 1.318,-3.159 2.482,-6.697 5.479,-8.692 1.525,1.173 2.536,2.825 3.222,4.63 4.107,10.127 7.428,20.587 11.959,30.552 1.453,2.987 2.816,6.228 5.605,8.249 0.361,-6.841 -0.144,-13.692 -0.677,-20.506 -1.002,-9.071 -2.04,-18.331 -5.659,-26.797 -1.589,-3.357 -3.926,-7.428 -8.096,-7.627 -5.442,-0.072 -10.587,2.265 -15.001,5.28 -3.511,2.338 -6.471,5.623 -10.623,6.859 -0.406,-0.469 -0.885,-0.83 -1.408,-1.065 -2.608,-5.966 -1.787,-13.665 3.61,-17.789 7.293,-5.47 16.318,-8.358 25.281,-9.576 5.957,-0.659 13.746,0.253 16.49,6.471 4.332,9.269 7.383,19.08 11.038,28.629 2.058,5.027 3.484,10.488 6.76,14.901 3.637,1.318 7.428,2.229 11.011,3.728 -3.159,-16.616 -7.482,-33.241 -15.019,-48.449 -3.141,-5.767 -6.923,-12.212 -13.484,-14.45 -10.325,-1.643 -21.138,0.677 -31.274,-2.265 -0.01,-0.37 -0.027,-1.11 -0.036,-1.48 3.61,-3.71 8.818,-5.479 13.863,-6.092 10.795,-1.128 21.725,1.227 31.617,5.497 6.85,3.15 13.692,7.356 17.717,13.945 4.45,7.356 8.989,14.874 15.407,20.714 -2.798,-11.995 -7.581,-23.801 -15.172,-33.593 -4.856,-6.498 -12.609,-9.576 -19.784,-12.744 -8.692,-3.755 -18.557,-5.045 -27.808,-2.717 -10.271,2.545 -19.856,7.293 -29.008,12.509 -3.998,2.139 -7.401,5.226 -11.363,7.374 -13.881,-1.643 -27.429,-5.695 -40.57,-10.406 -23.837,-8.872 -46.401,-22.131 -64.109,-40.57 -1.814,-1.769 -3.249,-3.998 -5.388,-5.397 -9.036,1.991 -17.303,6.784 -24.379,12.66 m 633.34402,-24.875 c -8.818,10.479 -18.692,20.235 -25.542,32.212 -4.838,6.48 -10.993,11.878 -16.084,18.169 -4.576,5.713 -8.872,11.634 -13.159,17.564 -3.394,4.937 -9.008,7.464 -14.008,10.397 -6.336,3.719 -13.15,6.607 -20.181,8.701 -5.406,1.552 -11.093,1.137 -16.58,0.334 -0.208,-0.605 -0.614,-1.805 -0.812,-2.401 -3.448,2.969 -5.569,7.085 -8.322,10.641 -2.879,4.287 -6.318,8.231 -8.809,12.771 -0.632,3.547 0.487,7.175 0.632,10.759 5.993,73.883 -3.574,148.516 -23.855,219.647 -9.224,32.393 -20.858,64.136 -35.25403,94.588 35.31703,-5.704 69.41603,-20.624 170.48753,-89.8672 101.0715,-69.2431 145.3241,-103.3965 219.8973,-184.63984 -7.266,-13.457 -55.4358,-81.12796 -65.8068,-92.29296 -22.555,-22.699 -50.101,-40.326 -79.94,-51.825 -18.863,-7.618 -38.774,-12.239 -58.702,-16.002 -1.453,-0.271 -3.078,-0.027 -3.962,1.245 m -753.21302,-3.249 c -16.508,23.557 -30.732,48.711 -42.348,75.021 -18.484,41.716 -30.425,86.122 -37.655,131.106 -7.013,42.556 -9.784,85.671 -11.472,128.723 -0.623,23.512 2.509,47.005 8.06,69.822 7.6,30.786 19.586,60.372 34.234,88.46 16.21,30.714 35.29,60.056 57.989,86.402 4.296,4.576 8.168,9.657 13.222,13.457 0.19,-17.185 6.48,-33.566 14.053,-48.747 7.717,-15.659 17.528,-30.155 27.745,-44.271 3.141,-2.618 5.984,-5.578 9.098,-8.231 10.551,-8.358 22.167,-15.452 34.776,-20.271 19.414,-7.943 40.48,-10.19 61.175,-12.275 51.067,3.231 102.161,6.029 153.282,8.303 10.271,0.713 20.47,-0.966 30.651,-2.031 12.392,-1.48 24.775,-2.979 37.158,-4.513 -4.224,-4.792 -9.45,-8.547 -14.062,-12.943 -14.982,-13.25 -29.712,-26.797 -44.433,-40.344 -10.948,-10.551 -22.311,-20.714 -32.149,-32.339 -2.383,2.888 -3.764,6.408 -5.596,9.648 -8.773,16.427 -15.786,33.747 -24.866,50.02 -2.157,3.249 -3.98,7.672 -8.087,8.755 -4.125,-0.758 -6.95,-4.314 -9.612,-7.266 -10.47,-13.159 -16.697,-29.721 -17.275,-46.545 -0.415,-8.601 2.69,-16.842 2.771,-25.398 1.02,-20.768 2.978,-42.005 11.634,-61.185 5.19,-12.167 13.439,-22.79 23.178,-31.662 -10.867,-22.257 -11.76,-47.98 -7.654,-72.033 3.267,-18.836 9.242,-37.167 17.483,-54.406 -8.132,4.648 -17.275,8.394 -26.833,7.482 -10.154,-0.587 -18.746,-7.591 -23.981,-15.921 -5.117,-8.123 -8.177,-17.302 -10.488,-26.544 -24.405,-1.507 -48.91,-3.655 -72.737,-9.414 -7.545,-1.95 -15.217,-4.116 -21.652,-8.683 l -0.099,0.605 c -10.298,-2.744 -20.696,-5.235 -30.786,-8.674 -8.638,-3.294 -17.311,-6.544 -25.551,-10.759 -19.468,-9.639 -37.763,-23.223 -49.144,-42.05 -7.934,-13.15 -12.076,-28.774 -10.407,-44.126 -3.62,3.955 -6.454,8.531 -9.622,12.827 m 599.55202,-45.778 c -1.697,1.516 -0.939,4.016 -0.948,6.002 0.957,8.719 1.516,17.735 4.991,25.904 4.242,-0.984 8.773,-1.354 12.934,0.235 8.033,2.897 14.856,8.367 20.984,14.197 3.998,3.412 6.923,7.915 11.038,11.192 2.852,-5.298 5.262,-10.822 7.464,-16.409 2.022,-5.785 4.757,-11.435 5.551,-17.555 -15.921,-0.009 -31.373,-7.13 -42.267,-18.62 -4.26,-4.053 -7.257,-9.134 -10.867,-13.71 -3.013,2.862 -5.992,5.777 -8.88,8.764 m 100.653,-35.353 c -0.406,4.08 -0.072,8.186 -0.379,12.275 -1.724,19.288 -8.944,37.655 -18.358,54.424 -6.968,12.266 -15.046,23.927 -24.36,34.523 5.551,4.585 10.361,9.991 14.26,16.066 -0.235,1.255 -0.307,2.545 -0.605,3.809 -1.02,1.57 -3.033,2.085 -4.793,2.112 -4.829,0.045 -9.351,-2.509 -12.473,-6.065 -4.405,-4.964 -9.585,-9.161 -14.946,-13.042 -10.1,-7.202 -20.786,-13.8 -32.492,-18.042 -4.071,-1.381 -8.674,-2.942 -12.834,-1.029 -6.462,2.789 -10.69503,8.773 -14.40503,14.477 -6.444,10.172 -10.903,21.418 -16.842,31.86 -1.751,3.267 -3.529,6.905 -2.969,10.713 0.235,1.95 1.968,3.98 4.125,3.421 1.579,-0.172 2.094,-1.805 2.735,-2.997 2.744,-6.255 6.67,-11.869 10.388,-17.564 5.984,-9.053 12.29303,-17.898 18.64703,-26.698 2.969,1.534 5.921,3.159 8.52,5.298 -6.101,14.008 -12.374,28.033 -16.616,42.745 -1.029,4.35 -2.57203,9.387 0.018,13.493 4.468,-0.37 4.54,-5.821 6.417,-8.872 5.894,-10.912 13.214,-20.975 20.335,-31.102 1.895,-2.491 3.394,-5.488 6.228,-7.058 1.607,1.399 3.547,2.933 3.321,5.352 -0.036,8.944 -2.861,17.564 -4.973,26.183 -1.507,6.336 -3.926,12.482 -4.756,18.963 -0.56,3.89 1.931,7.5 5.487,8.917 5.623,-11.336 11.083,-22.772 16.273,-34.324 1.895,-3.971 2.915,-8.764 6.525,-11.598 2.41,-1.733 5.849,-0.036 6.21,2.852 2.175,9.594 0.37,19.531 0.469,29.27 8.466,1.282 17.374,1.318 25.488,-1.733 9.071,-3.267 16.327,-10.226 21.661,-18.087 3.773,-5.379 6.67,-11.309 10.298,-16.77 14.992,-20.389 28.62,-41.798 40.615,-64.091 6.751,-12.979 13.295,-26.255 16.977,-40.471 -9.486,-14.279 -27.573,-19.549 -43.928,-19.179 -6.478,-0.107 -12.905,0.823 -19.268,1.969 m 83.92,-38.982 c 0,11.499 2.599,22.826 2.139,34.333 -0.325,12.356 -2.554,24.64 -6.219,36.436 -4.206,13.872 -10.966,26.752 -18.322,39.171 8.078,2.473 16.327,4.296 24.514,6.39 29.649,7.266 58.838,17.826 84.498,34.622 25.804,16.544 47.754,38.747 65.156,63.91 15.4781,20.28994 24.4121,34.80897 39.4705,55.92308 29.6418,-28.35736 33.7842,-84.31316 27.1105,-118.90408 -5.677,-28.295 -18.62,-55.21 -37.853,-76.799 -21.21,-24.071 -49.253,-41.265 -78.983,-52.782 -32.447,-12.543 -66.943,-19.195 -101.511,-22.3 m -563.01602,10.001 c -14.703,20.912 -30.705,40.859 -46.392,61.022 -8.809,11.327 -18.069,22.311 -26.743,33.738 8.457,7.239 17.32,13.99 26.048,20.903 19.035,14.793 38.241,29.405 58.441,42.583 5.894,3.692 11.778,7.5 18.196,10.253 3.854,-5.578 9.675,-9.251 15.524,-12.446 12.934,-6.95 26.914,-11.959 41.319,-14.793 1.67,-5.109 1.814,-10.56 1.805,-15.885 -0.496,-17.753 -6.444,-34.848 -14.062,-50.715 -10.551,-21.67 -24.577,-41.536 -40.588,-59.506 -8.412,-9.053 -17.131,-17.988 -27.339,-25.046 -2.148,3.249 -3.917,6.733 -6.209,9.892 m 406.41302,-37.285 c 3.61,14.558 3.746,29.911 0.713,44.577 -2.834,14.567 -8.719,28.358 -16.138,41.157 20.028,9.008 39.875,18.466 60.002,27.23 4.973,-18.945 9.739,-37.98 13.277,-57.258 0.794,-5.668 2.41,-11.381 1.886,-17.131 -3.367,-5.271 -8.926,-8.61 -13.89,-12.212 -14.721,-9.702 -30.028,-18.592 -45.85,-26.363 M 844.30408,577.063 c 0.939,1.02 1.995,1.95 3.186,2.699 14.17,9.242 28.097,18.872 42.321,28.034 0.975,-12.383 1.191,-24.911 0.027,-37.285 -14.983,3.42 -30.353,4.413 -45.534,6.552 m 59.063,-9.974 c 1.038,11.183 2.311,22.356 3.24,33.557 1.426,-1.218 2.59,-2.699 3.574,-4.278 8.24,-12.618 17.275,-24.748 25.154,-37.583 -10.758,2.339 -21.381,5.317 -31.968,8.304 m 53.513,-20.722 c -11.869,25.461 -24.143,50.85 -39.306,74.551 -5.37,7.906 -10.731,16.3 -18.854,21.68 -13.583,-5.009 -26.932,-10.614 -40.408,-15.903 -45.48,-18.006 -91.204,-35.615 -138.083,-49.722 -17.465,-5.09 -35.055,-10.073 -53.052,-12.889 -5.388,-1.2 -10.894,-1.742 -16.372,-2.193 -1.742,-0.397 -3.042,0.921 -4.332,1.832 -34.063,26.183 -67.295,53.468 -99.038,82.422 -22.699,20.903 -44.902,42.51 -64.298,66.573 -9.45,12.049 -18.647,24.667 -24.053,39.117 -4.919,14.838 -8.295,30.579 -6.535,46.274 1.372,11.526 7.004,22.329 15.298,30.389 9.071,9.017 19.938,15.921 30.01,23.737 3.015,-16.219 8.52,-32.79 20.443,-44.704 3.791,-2.978 7.636,-5.984 12.121,-7.861 4.747,-2.238 9.937,-3.15 15.037,-4.242 -6.155,-8.177 -12.663,-16.165 -17.519,-25.227 -2.635,-4.874 -5.163,-9.928 -6.137,-15.425 -0.442,-2.654 -0.37,-5.957 2.085,-7.627 1.977,-0.83 3.737,0.939 5.036,2.211 5.867,6.571 9.495,14.964 16.084,20.939 2.004,1.868 5.343,3.195 7.735,1.2 3.114,-2.653 5.28,-6.201 7.699,-9.459 24.902,-36.31 47.574,-74.344 76.284,-107.865 8.502,-9.242 17.158,-19.586 29.432,-23.746 -0.713,1.877 -1.489,3.728 -2.238,5.605 -5.451,11.246 -10.759,22.645 -16.219,33.909 22.374,3.348 42.339,16.941 55.679,34.929 11.165,14.865 18.385,32.357 22.889,50.3 5.533,22.284 7.41,45.363 7.112,68.279 0.117,1.237 -0.37,3.105 1.2,3.655 10.623,5.226 21.048,11.011 30.371,18.376 10.127,7.825 18.936,18.178 21.95,30.895 3.24,-1.029 6.526,-1.94 9.775,-2.96 16.138,-4.738 32.221,-9.639 48.296,-14.585 5.145,-1.805 10.632,-2.789 15.56,-5.117 2.031,-8.619 5.56,-17.076 11.571,-23.701 6.264,-7.157 15.488,-11.49 24.974,-11.968 6.48,-0.262 12.988,0.199 19.405,1.182 7.527,1.273 15.226,3.123 21.625,7.482 1.823,1.155 3.114,3.105 5.127,3.971 l -0.596,0.794 c 5.84,0.108 11.742,0.415 17.564,-0.126 0.153,-0.415 0.451,-1.255 0.605,-1.67 3.204,-13.782 9.71199,-27.248 20.34399,-36.815 6.995,-6.354 16.066,-10.1 25.41603,-11.111 -2.933,-10.831 -6.291,-21.58 -8.15003,-32.673 -0.659,-2.139 1.61603,-3.412 2.70803,-4.883 7.148,-7.897 13.15,-16.824 17.961,-26.31 7.211,-14.441 11.147,-30.994 8.376,-47.096 -2.193,-13.728 -10.262,-25.741 -19.82,-35.498 -13.00603,-13.123 -28.82803,-23.096 -45.27202,-31.328 -5.479,-2.96 -11.426,-4.91 -16.869,-7.897 12.302,-0.912 24.09799,3.809 35.30799,8.286 17.699,7.257 34.18903,17.058 51.33803,25.443 16.67,4.016 33.088,9.883 47.7,19.017 10.56,6.634 20.633,15.497 24.811,27.618 1.047,-1.95 1.697,-4.486 3.899,-5.451 2.229,-0.921 4.666,-0.081 6.814,0.704 -0.524,8.529 -0.244,17.104 -0.154,25.66 0.487,-0.253 1.462,-0.74 1.959,-0.984 8.538,-3.727 17.88,-5.785 27.23,-5.027 13.936,0.821 26.58,8.376 36.057,18.295 -0.975,-14.107 -4.323,-28.088 -10.407,-40.877 -10.912,-23.385 -29.821,-42.276 -51.428,-55.986 -15.362,-9.928 -32.348,-16.878 -49.072,-24.089 -37.006,-15.522 -74.66003,-29.476 -112.67602,-42.31 m -310.724,-23.557 c -6.101,6.273 -13.457,11.426 -21.734,14.36 -8.051,2.843 -16.652,3.809 -25.163,3.845 -2.545,0.063 -5.289,-0.135 -7.518,1.336 -59.614,34.505 -114.977,76.465 -163.869,125.013 -46.608,46.491 -87.142,99.525 -116.638,158.516 -12.952,25.606 -23.006,52.52 -32.465,79.57 -14.369,41.409 -26.364,83.83 -32.573,127.288 -6.21,42.899 -6.435,86.989 2.563,129.508 6.724,32.357 18.746,63.531 34.965,92.305 30.29,53.775 74.055,98.686 121.864,137.171 11.706,9.17 23.313,18.557 35.741,26.743 -10.009,-13.15 -20.912,-25.615 -31.174,-38.575 -21.689,-26.95 -42.42,-54.858 -59.262,-85.148 -16.02,-28.593 -28.476,-59.253 -36.12,-91.158 -9.874,-40.426 -11.959,-82.494 -8.439,-123.876 8.069,-89.173 34.577,-176.838 78.631,-254.865 13.186,-22.862 27.6,-45.227 45.236,-64.939 3.511,-4.278 8.493,-7.419 10.749,-12.627 12.212,-25.073 27.636,-48.558 45.85,-69.687 22.004,-25.597 47.529,-47.998 74.687,-67.972 22.799,-16.914 47.014,-31.797 71.519,-46.076 -4.838,-3.024 -10.361,-5.361 -13.945,-9.964 -0.848,-0.948 -0.695,-2.274 -0.821,-3.43 17.925,-1.02 35.922,0.424 53.784,2.049 51.004,5.271 101.727,17.32 148.146,39.46 7.834,3.547 15.19,8.024 22.934,11.733 -8.195,-8.439 -17.085,-16.192 -25.488,-24.423 -1.634,-1.426 -3.105,-3.439 -5.415,-3.637 -29.216,-4.134 -58.161,-10.677 -86.023,-20.461 -26.102,-9.269 -52.042,-21.391 -72.024,-41.021 -2.8,2.87 -5.128,6.164 -7.998,8.962 m 425.56502,-75.301 c -5.677,2.744 -11.842,4.197 -17.708,6.444 -5.903,8.24 -11.959,16.381 -18.493,24.134 -17.32,20.921 -37.73603,39.18 -60.20103,54.424 -3.186,2.455 -7.031,4.08 -9.76599,7.094 59.65002,10.361 118.51502,30.849 168.01102,66.374 22.411,16.336 43.233,35.552 58.423,58.937 9.73,0.451 19.468,0.975 29.207,1.57 12.555,1.2 25.136,2.238 37.7,3.502 5.433,-15.632 8.827,-32.203 8.024,-48.819 -0.695,-14.558 -5.127,-28.828 -12.356,-41.455 -8.114,-14.17 -19.206,-26.391 -31.165,-37.411 -22.419,-20.479 -47.763,-37.339 -72.728,-54.478 17.374,-1.065 34.676,3.078 50.634,9.739 29.288,12.221 54.984,31.427 79.1,51.753 4.729,3.809 9.026,8.15 14.008,11.634 -1.444,-3.321 -3.448,-6.345 -5.497,-9.296 -8.258,-11.67 -18.439,-21.824 -28.99,-31.409 -22.745,-20.199 -47.565,-38.061 -73.658,-53.675 -6.733,-4.296 -14.387,-6.905 -20.93,-11.508 -18.602,-12.753 -35.453,-27.835 -52.466,-42.583 -8.9,16.22 -24.623,27.475 -41.149,35.029 m -52.411,-59.713 c -10.731,4.152 -22.39203,4.323 -33.73803,4.558 -18.77299,-0.045 -37.73599,-1.119 -55.96799,-5.921 -0.135,5.776 -0.542,11.706 -2.951,17.04 -3.349,7.843 -10.046,13.764 -17.537,17.564 -13.15,6.526 -28.124,8.439 -42.655,8.249 -4.377,-0.19 -9.666,-0.424 -12.6,-4.179 -1.534,-2.374 0.857,-5.352 3.52,-4.414 11.58,1.868 23.782,1.57 34.73,-2.996 8.015,-3.258 15.659,-8.285 20.56,-15.56 3.691,-5.867 4.531,-13.981 0.587,-19.938 -3.529,-5.605 -9.91,-8.52 -16.102,-10.118 -13.177,-3.71 -28.07,-0.37 -38.422,8.574 -9.053,7.581 -14.983,18.205 -18.746,29.261 -0.325,0 -0.984,-0.009 -1.309,-0.009 -2.022,-2.274 -2.834,-5.28 -3.926,-8.042 -18.701,15.38 -42.05,24.252 -65.86,27.718 -21.156,3.168 -42.7,2.554 -63.892,0.108 -20.47,-2.897 -40.832,-6.968 -60.471,-13.493 -1.688,-0.551 -2.816,-1.959 -4.007,-3.159 -5.803,6.959 -12.221,13.367 -18.737,19.658 0.343,3.926 1.002,7.825 1.543,11.733 -8.529,-5.054 -17.302,-9.928 -26.932,-12.555 -7.6,-2.112 -16.165,-3.132 -23.457,0.56 -8.186,4.368 -13.728,12.509 -16.878,21.048 -3.619,9.775 -4.242,20.957 -0.208,30.714 2.157,5.506 6.327,9.829 10.208,14.152 8.628,9.36 18.584,17.934 30.497,22.781 8.935,3.619 19.161,4.45 28.34,1.2 13.295,-4.54 23.782,-15.001 31.075,-26.725 0.695,-0.93 1.137,-2.41 2.554,-2.311 1.868,3.069 1.579,6.751 1.534,10.199 36.915,22.302 77.999,38.043 120.681,44.613 4.991,1.237 10.154,1.625 15.253,2.274 32.366,3.89 65.291,3.078 97.422,-2.365 9.242,-2.247 18.178,-5.614 27.068,-8.971 18.918,-7.419 37.149,-16.715 53.91899,-28.214 23.376,-15.858 43.89103,-35.94 60.10103,-59.072 19.044,-27.104 32.33,-58.134 39.568,-90.409 -17.967,9.38 -35.774,19.254 -54.764,26.447 m 68.36,-36.093 c -1.146,8.331 -2.762,16.598 -4.793,24.766 -5.118,21.138 -11.345,41.987 -17.573,62.818 5.794,-2.067 10.425,-6.354 14.649,-10.686 9.928,-10.749 16.797,-23.945 22.104,-37.492 3.267,-8.574 5.632,-18.241 2.753,-27.248 -2.429,-7.248 -9.866,-11.4 -17.14,-12.158 M 945.33608,261.718 c -14.685,2.563 -27.934,12.013 -35.2,25.01 -6.769,11.878 -8.412,26.526 -4.377,39.595 3.899,13.114 13.403,24.396 25.615,30.561 13.394,6.887 29.911,7.266 43.62999,1.065 11.769,-5.217 21.364,-15.109 26.22803,-27.023 4.504,-10.903 5.027,-23.376 1.435,-34.613 -4.24203,-13.629 -14.60303,-25.172 -27.63603,-30.958 -9.23399,-4.215 -19.73099,-5.325 -29.69499,-3.637 m -27.519,-24.189 c -8.574,4.395 -16.571,9.82 -24.414,15.389 -10.731,7.807 -21.174,16.057 -30.859,25.145 -8.006,-4.26 -15.867,-8.854 -24.306,-12.239 -36.481,-15.551 -77.503,-18.692 -116.412,-12.13 -9.973,1.94 -20.118,3.691 -29.604,7.446 1.038,24.36 -4.423,48.431 -11.462,71.6 -5.469,17.194 -11.932,34.117 -19.965,50.291 -4.08,8.529 -9.116,16.535 -14.649,24.189 11.21,2.816 22.582,4.991 33.981,6.859 35.795,5.821 73.026,6.796 108.307,-2.635 16.824,-4.386 32.943,-11.192 48.233,-19.441 2.247,-1.282 4.793,-2.229 6.634,-4.107 1.706,-2.365 2.744,-5.127 4.314,-7.582 4.323,-6.914 10.145,-13.15 17.555,-16.751 8.737,-4.35 19.026,-4.576 28.376,-2.329 11.029,2.654 21.355,7.97 30.245,14.964 2.843,2.563 6.877,2.085 10.416,2.419 39.16199,2.816 79.99402,-0.596 115.80702,-17.817 8.385,-4.17 16.589,-8.953 23.53,-15.307 2.915,-2.663 3.159,-6.878 3.836,-10.515 0.812,-6.778 1.751,-13.638 1.219,-20.479 -14.116,-2.879 -27.23,-9.062 -40.263,-14.992 -9.901,-4.404 -19.387,-9.703 -29.297,-14.089 1.706,4.72 3.8,9.341 4.766,14.297 3.908,16.887 0.262,35.29 -9.648,49.478 -6.33603,8.989 -14.91003,16.499 -24.94703,21.084 -12.22099,5.858 -26.37299,7.229 -39.59499,4.567 -16.815,-3.412 -31.842,-14.242 -40.696,-28.882 -5.948,-9.712 -9.116,-21.102 -9.071,-32.483 -0.099,-16.345 6.507,-32.691 18.196,-44.162 10.136,-10.524 24.17,-17.058 38.702,-18.376 -5.289,-5.812 -11.219,-11.336 -18.286,-14.892 -3.513,-1.914 -7.412,-0.136 -10.643,1.48 m -232.653,-78.216 c -6.417,2.446 -12.97,4.874 -18.692,8.737 15.19,27.212 25.642,57.303 28.476,88.442 21.553,-12.582 46.319,-19.694 71.311,-19.739 31.49,-0.379 62.241,9.08 90.536,22.293 1.426,0.379 3.195,2.121 4.531,0.65 9.134,-9.549 21.066,-15.668 32.736,-21.535 7.807,-4.007 16.084,-7.067 23.891,-11.056 -9.513,-7.383 -19.802,-13.701 -30.118,-19.883 -17.203,-10.136 -34.893,-19.423 -52.746,-28.349 -15.01,-7.248 -29.802,-15.154 -45.751,-20.19 -33.567,-11.004 -70.824,-11.464 -104.174,0.63 m 37.465,-98.776003 c -31.147,10.407 -61.031,24.902 -87.963,43.738003 -10.569,7.591 -21.084,15.632 -29.071,26.021 -4.161,4.513 -8.845,8.538 -12.69,13.34 -19.071,21.039 -32.943,46.689 -40.733,73.974 -10.226,35.579 -10.343,73.396 -4.684,109.769 5.19,32.104 14.612,63.495 27.357,93.397 3.971,-2.645 8.285,-6.598 13.448,-5.136 5.885,1.95 11.246,5.28 17.275,6.905 3.836,-3.899 6.571,-8.719 8.863,-13.638 5.821,-13.033 7.924,-27.32 9.937,-41.337 2.482,-19.685 4.513,-39.433 6.507,-59.172 1.959,-15.524 3.439,-31.111 5.758,-46.581 1.616,4.17 2.211,8.647 2.997,13.024 2.094,12.726 2.491,25.696 1.742,38.557 -1.859,37.474 -11.634,74.001 -23.069,109.553 3.114,-3.06 5.388,-6.823 7.915,-10.352 16.562,-23.782 30.046,-49.83 38.81,-77.494 5.993,-18.394 9.802,-37.501 11.508,-56.771 2.924,-37.24 -1.444,-75.508 -15.804,-110.166 7.5,-11.138 19.224,-18.918 31.842,-23.133 17.537,-5.939 36.409,-6.101 54.668,-4.423 19.929,2.148 39.496,6.977 58.486,13.331 31.535,10.623 61.573,25.398 89.886,42.835 13.484,8.71 27.636,16.318 41.509,24.387 33.25899,18.845 66.43702,37.98 101.20402,53.973 21.815,9.847 44.92,18.304 69.118,18.891 23.557,0.668 46.735,-4.269 69.867,-7.997 4.973,-1.101 10.163,-1.11 15.028,-2.717 -32.889,0.46 -66.257,-0.939 -98.081,-9.937 -21.734,-6.128 -42.303,-16.815 -59.073,-32.032 -21.057,-18.927 -36.63503,-42.872 -51.72603,-66.573 -6.183,-10.045 -12.726,-19.892 -18.66499,-30.073 3.42999,3.24 6.03799,7.23 9.19699,10.731 21.968,25.723 45.17303,50.67 71.83503,71.618 11.508,8.692 23.584,17.275 37.456,21.707 -2.193,-7.383 -4.982,-14.567 -7.491,-21.833 -9.125,-25.985 -19.558,-51.915 -35.777,-74.38 -14.54,-20.434 -33.44,-37.474 -54.26203,-51.329 -25.74099,-17.094003 -54.07199,-29.902003 -82.93599,-40.733003 -17.654,-6.661 -36.084,-11.21 -54.803,-13.593 -42.141,-5.386 -85.184,0.427 -125.385,13.649 m 63.432,-31.237 c 17.122,-1.372 34.315,-2.825 51.5,-1.859 37.953,1.327 76.05,8.258 111.024,23.385 25.86699,11.111 49.80299,26.788 70.04802,46.364 40.895,39.343003 66.356,93.000003 76.239,148.498003 0.767,2.635 0.036,6.589 3.159,7.78 15.416,8.024 32.781,11.174 49.866,13.222 28.855,3.033 58.008,2.311 86.835,-0.623 3.583,-0.352 8.087,2.762 7.365,6.652 -9.712,9.305 -21.77,15.84 -33.909,21.454 -28.079,12.32 -58.603,17.97 -89.001,20.633 -10.055,0.948 -20.172,0.839 -30.227,1.498 -0.217,7.365 -1.219,14.685 -1.318,22.059 4.278,0.695 8.656,0.93 12.87,1.995 4.314,1.742 8.367,4.089 12.401,6.39 4.675,2.563 6.165,8.159 6.877,13.051 1.643,12.934 -0.614,25.94 -3.042,38.63 28.638,21.03 58.748,39.992 89.01,58.603 15.28,9.576 31.508,17.844 45.354,29.541 22.167,18.087 38.964,42.628 47.556,69.93 4.937,15.226 7.356,31.147 9.143,47.014 -3.06,0.749 -5.117,-2.265 -7.184,-3.989 -14.64,-15.091 -27.943,-31.653 -44.397,-44.893 3.953,4.928 7.789,10.027 10.154,15.939 7.518,17.934 8.159,37.853 7.049,57.006 -0.866,16.075 -3.836,31.942 -7.04,47.691 37.059,7.239 73.793,20.064 104.255,42.881 24.08,17.826 43.296,42.186 54.632,69.948 15.885,38.584 20.467,83.06135 9.693,122.622 -19.3112,70.9083 -251.474,239.4107 -371.882,314.252 -15.497,6.345 -31.581,11.092 -47.745,15.353 -11.354,2.906 -22.79003,5.533 -34.36903,7.383 0.352,19.161 0.505,38.711 -4.874,57.294 -2.545,8.493 -6.39,16.95 -12.97899,23.088 -5.993,5.758 -14.351,8.791 -22.627,8.728 -12.861,0.451 -25.037,-4.314 -37.041,-8.24 -12.067,6.787 -22.356,16.246 -32.42,25.642 -24.514,23.728 -46.59,49.812 -68.143,76.212 -51.256,63.378 -98.767,129.689 -145.122,196.695 -0.686,-1.336 -0.975,-2.798 -1.083,-4.242 -2.184,-21.824 -2.329,-43.774 -2.581,-65.679 -0.226,-24.541 1.227,-49.298 7.257,-73.162 3.773,-14.684 9.368,-29.116 18.15,-41.572 7.473,-10.587 17.519,-19.558 29.478,-24.73 9.143,-4.016 19.261,-5.822 29.234,-5.081 7.211,-14.324 13.647,-29.035 20.407,-43.585 14.964,-32.889 29.667,-65.923 42.89,-99.561 -6.345,4.756 -14.486,5.578 -22.068,6.778 -21.445,2.635 -43.079,2.527 -64.641,2.979 -52.078,0.659 -104.273,-0.397 -156.197,4.413 -16.481,1.886 -33.286,3.574 -48.819,9.775 -16.048,6.21 -30.38,16.824 -40.85,30.497 -15.082,19.739 -22.943,44.406 -24.495,69.037 -0.533,3.105 1.805,5.497 3.385,7.897 15.109,20.696 34.694,37.573 54.794,53.233 -32.402,-12.085 -64.407,-25.461 -94.769,-42.113 -30.759,-16.779 -60.074,-36.545 -85.734,-60.499 -21.716,-20.19 -40.723,-43.422 -55.327,-69.262 -16.86,-29.523 -26.67159,-62.569 -33.647,-95.635 -10.17766,-48.2459 -14.67216,-98.2764 -11.454,-147.479 3.00471,-45.9391 10.894,-92.368 28.539,-135.131 21.093,-51.094 51.103,-98.072 85.057,-141.53 40.823,-51.942 87.539,-99.056 137.288,-142.442 33.079,-28.638 67.403,-55.896 103.46,-80.698 0.677,-0.569 1.309,-1.182 1.895,-1.841 -13.358,-8.701 -26.102,-19.414 -33.503,-33.819 -6.228,-11.697 -7.627,-25.687 -4.459,-38.503 3.701,-14.91 12.257,-28.223 22.907,-39.144 -15.416,-34.135 -28.295,-69.705 -34.496,-106.755 -6.047,-35.669 -5.605,-73.125 6.092,-107.648 9.91,-29.793 28.422,-56.437 52.123,-76.925 5.46,-5.09 11.796,-9.179 17.103,-14.414 20.975,-25.082003 46.518,-46.536003 75.58,-61.663003 32.954,-17.385 69.86,-25.923 106.774,-29.325"
   inkscape:connector-curvature="0"
   sodipodi:nodetypes="cccccccccccccccccccccccccccccccccccccccccccccccccccccccccccccccccccccccccccccccccccccccccccccccccccccccccccccccccccccccccccccccccccccccccccccccccccccccccccccccccccccccccccccccccccccccccccccccccccccccccccccccccccccccccccccccccccccccccccccccccccccccccccccccccccccccccccccccccccccccccccccccccccccccccccccccccccccccccccccccccccccccccccccccccccccccccccccccccccccccccccccccccccccccccccccccccccccccccccccccccccccccccccccccccccccccccccccccccccccccccccccccccccccccccccccccccccccccccccccccccccccccccccccccccccccccccccccccccccccccccccccccccccccccccccccccccccccccccccccccscccccccccccccccccccccccccccccaacccccccccccccc" /></svg>